<svg xmlns="http://www.w3.org/2000/svg" xmlns:xlink="http://www.w3.org/1999/xlink" contentStyleType="text/css" data-diagram-type="ACTIVITY" height="1003px" preserveAspectRatio="none" style="width:966px;height:1003px;background:#FFFFFF;" version="1.1" viewBox="0 0 966 1003" width="966px" zoomAndPan="magnify"><defs/><g><ellipse cx="620.9458" cy="20" fill="#222222" rx="10" ry="10" style="stroke:#222222;stroke-width:1;"/><rect fill="#F1F1F1" height="33.9688" rx="12.5" ry="12.5" style="stroke:#181818;stroke-width:0.5;" width="345.2188" x="448.3364" y="50"/><text fill="#000000" font-family="sans-serif" font-size="12" lengthAdjust="spacing" textLength="325.2188" x="458.3364" y="71.1387">Usu&#225;rio ativa um formul&#225;rio de cadastro de candidato</text><rect fill="#F1F1F1" height="33.9688" rx="12.5" ry="12.5" style="stroke:#181818;stroke-width:0.5;" width="315.875" x="463.0083" y="103.9688"/><text fill="#000000" font-family="sans-serif" font-size="12" lengthAdjust="spacing" textLength="295.875" x="473.0083" y="125.1074">Candidato faz a inscri&#231;&#227;o e envio de documentos</text><rect fill="#F1F1F1" height="33.9688" rx="12.5" ry="12.5" style="stroke:#181818;stroke-width:0.5;" width="183.4648" x="529.2134" y="157.9375"/><text fill="#000000" font-family="sans-serif" font-size="12" lengthAdjust="spacing" textLength="163.4648" x="539.2134" y="179.0762">Usu&#225;rio valida documentos</text><polygon fill="#F1F1F1" points="562.1511,211.9063,679.7405,211.9063,691.7405,223.9063,679.7405,235.9063,562.1511,235.9063,550.1511,223.9063,562.1511,211.9063" style="stroke:#181818;stroke-width:0.5;"/><text fill="#000000" font-family="sans-serif" font-size="11" lengthAdjust="spacing" textLength="117.5894" x="562.1511" y="227.7144">Documentos v&#225;lidos?</text><text fill="#000000" font-family="sans-serif" font-size="11" lengthAdjust="spacing" textLength="20.7539" x="529.3972" y="221.312">Sim</text><text fill="#000000" font-family="sans-serif" font-size="11" lengthAdjust="spacing" textLength="21.6992" x="691.7405" y="221.312">N&#227;o</text><rect fill="#F1F1F1" height="33.9688" rx="12.5" ry="12.5" style="stroke:#181818;stroke-width:0.5;" width="206.4453" x="276.1572" y="245.9063"/><text fill="#000000" font-family="sans-serif" font-size="12" lengthAdjust="spacing" textLength="186.4453" x="286.1572" y="267.0449">Prepara arquivos compactados</text><rect fill="#F1F1F1" height="33.9688" rx="12.5" ry="12.5" style="stroke:#181818;stroke-width:0.5;" width="151.1211" x="303.8193" y="299.875"/><text fill="#000000" font-family="sans-serif" font-size="12" lengthAdjust="spacing" textLength="131.1211" x="313.8193" y="321.0137">Seleciona avaliadores</text><rect fill="#F1F1F1" height="33.9688" rx="12.5" ry="12.5" style="stroke:#181818;stroke-width:0.5;" width="155.0586" x="301.8506" y="353.8438"/><text fill="#000000" font-family="sans-serif" font-size="12" lengthAdjust="spacing" textLength="135.0586" x="311.8506" y="374.9824">Upload para o sistema</text><rect fill="#F1F1F1" height="33.9688" rx="12.5" ry="12.5" style="stroke:#181818;stroke-width:0.5;" width="252.9395" x="252.9102" y="407.8125"/><text fill="#000000" font-family="sans-serif" font-size="12" lengthAdjust="spacing" textLength="232.9395" x="262.9102" y="428.9512">Envia e-mail com link para avaliadores</text><rect fill="#555555" height="6" rx="2.5" ry="2.5" style="stroke:#555555;stroke-width:1;" width="738.7598" x="11" y="461.7813"/><rect fill="#F1F1F1" height="33.9688" rx="12.5" ry="12.5" style="stroke:#181818;stroke-width:0.5;" width="230.2461" x="23" y="608.2344"/><text fill="#000000" font-family="sans-serif" font-size="12" lengthAdjust="spacing" textLength="210.2461" x="33" y="629.373">Avaliador interno acessa o sistema</text><rect fill="#F1F1F1" height="33.9688" rx="12.5" ry="12.5" style="stroke:#181818;stroke-width:0.5;" width="274.291" x="351.0737" y="487.7813"/><text fill="#000000" font-family="sans-serif" font-size="12" lengthAdjust="spacing" textLength="254.291" x="361.0737" y="508.9199">Avaliador externo tenta acessar o sistema</text><polygon fill="#F1F1F1" points="425.4338,541.75,551.0046,541.75,563.0046,553.75,551.0046,565.75,425.4338,565.75,413.4338,553.75,425.4338,541.75" style="stroke:#181818;stroke-width:0.5;"/><text fill="#000000" font-family="sans-serif" font-size="11" lengthAdjust="spacing" textLength="125.5708" x="425.4338" y="557.5581">Acesso bem-sucedido?</text><text fill="#000000" font-family="sans-serif" font-size="11" lengthAdjust="spacing" textLength="20.7539" x="392.6799" y="551.1558">Sim</text><text fill="#000000" font-family="sans-serif" font-size="11" lengthAdjust="spacing" textLength="21.6992" x="563.0046" y="551.1558">N&#227;o</text><rect fill="#F1F1F1" height="33.9688" rx="12.5" ry="12.5" style="stroke:#181818;stroke-width:0.5;" width="166.6895" x="291.2461" y="575.75"/><text fill="#000000" font-family="sans-serif" font-size="12" lengthAdjust="spacing" textLength="146.6895" x="301.2461" y="596.8887">Preenche barema online</text><rect fill="#F1F1F1" height="33.9688" rx="12.5" ry="12.5" style="stroke:#181818;stroke-width:0.5;" width="192.5645" x="505.5654" y="575.75"/><text fill="#000000" font-family="sans-serif" font-size="12" lengthAdjust="spacing" textLength="172.5645" x="515.5654" y="596.8887">Reporta problema de acesso</text><rect fill="#F1F1F1" height="33.9688" rx="12.5" ry="12.5" style="stroke:#181818;stroke-width:0.5;" width="247.8242" x="477.9355" y="644.7188"/><text fill="#000000" font-family="sans-serif" font-size="12" lengthAdjust="spacing" textLength="227.8242" x="487.9355" y="665.8574">Sistema envia documentos por e-mail</text><rect fill="#F1F1F1" height="33.9688" rx="12.5" ry="12.5" style="stroke:#181818;stroke-width:0.5;" width="167.5332" x="518.0811" y="698.6875"/><text fill="#000000" font-family="sans-serif" font-size="12" lengthAdjust="spacing" textLength="147.5332" x="528.0811" y="719.8262">Preenche barema offline</text><polygon fill="#F1F1F1" points="488.2192,738.6563,500.2192,750.6563,488.2192,762.6563,476.2192,750.6563,488.2192,738.6563" style="stroke:#181818;stroke-width:0.5;"/><rect fill="#555555" height="6" rx="2.5" ry="2.5" style="stroke:#555555;stroke-width:1;" width="738.7598" x="11" y="782.6563"/><rect fill="#F1F1F1" height="33.9688" rx="12.5" ry="12.5" style="stroke:#181818;stroke-width:0.5;" width="113.9141" x="322.4229" y="808.6563"/><text fill="#000000" font-family="sans-serif" font-size="12" lengthAdjust="spacing" textLength="93.9141" x="332.4229" y="829.7949">Envia avalia&#231;&#227;o</text><rect fill="#F1F1F1" height="33.9688" rx="12.5" ry="12.5" style="stroke:#181818;stroke-width:0.5;" width="193.1035" x="282.8281" y="862.625"/><text fill="#000000" font-family="sans-serif" font-size="12" lengthAdjust="spacing" textLength="173.1035" x="292.8281" y="883.7637">Coordenador recebe barema</text><rect fill="#F1F1F1" height="33.9688" rx="12.5" ry="12.5" style="stroke:#181818;stroke-width:0.5;" width="145.1504" x="306.8047" y="916.5938"/><text fill="#000000" font-family="sans-serif" font-size="12" lengthAdjust="spacing" textLength="125.1504" x="316.8047" y="937.7324">Consolida resultados</text><ellipse cx="379.3799" cy="981.5625" fill="none" rx="11" ry="11" style="stroke:#222222;stroke-width:1;"/><ellipse cx="379.3799" cy="981.5625" fill="#222222" rx="6" ry="6" style="stroke:#222222;stroke-width:1;"/><rect fill="#F1F1F1" height="33.9688" rx="12.5" ry="12.5" style="stroke:#181818;stroke-width:0.5;" width="141.5703" x="791.7266" y="245.9063"/><text fill="#000000" font-family="sans-serif" font-size="12" lengthAdjust="spacing" textLength="121.5703" x="801.7266" y="267.0449">Solicita documentos</text><rect fill="#F1F1F1" height="33.9688" rx="12.5" ry="12.5" style="stroke:#181818;stroke-width:0.5;" width="125.1699" x="799.9268" y="299.875"/><text fill="#000000" font-family="sans-serif" font-size="12" lengthAdjust="spacing" textLength="105.1699" x="809.9268" y="321.0137">Rejeita candidato</text><rect fill="#F1F1F1" height="33.9688" rx="12.5" ry="12.5" style="stroke:#181818;stroke-width:0.5;" width="185.5039" x="769.7598" y="353.8438"/><text fill="#000000" font-family="sans-serif" font-size="12" lengthAdjust="spacing" textLength="165.5039" x="779.7598" y="374.9824">Registra motivo da rejei&#231;&#227;o</text><ellipse cx="862.5117" cy="418.8125" fill="none" rx="11" ry="11" style="stroke:#222222;stroke-width:1;"/><ellipse cx="862.5117" cy="418.8125" fill="#222222" rx="6" ry="6" style="stroke:#222222;stroke-width:1;"/><line style="stroke:#181818;stroke-width:1;" x1="620.9458" x2="620.9458" y1="30" y2="50"/><polygon fill="#181818" points="616.9458,40,620.9458,50,624.9458,40,620.9458,44" style="stroke:#181818;stroke-width:1;"/><line style="stroke:#181818;stroke-width:1;" x1="620.9458" x2="620.9458" y1="83.9688" y2="103.9688"/><polygon fill="#181818" points="616.9458,93.9688,620.9458,103.9688,624.9458,93.9688,620.9458,97.9688" style="stroke:#181818;stroke-width:1;"/><line style="stroke:#181818;stroke-width:1;" x1="620.9458" x2="620.9458" y1="137.9375" y2="157.9375"/><polygon fill="#181818" points="616.9458,147.9375,620.9458,157.9375,624.9458,147.9375,620.9458,151.9375" style="stroke:#181818;stroke-width:1;"/><line style="stroke:#181818;stroke-width:1;" x1="379.3799" x2="379.3799" y1="279.875" y2="299.875"/><polygon fill="#181818" points="375.3799,289.875,379.3799,299.875,383.3799,289.875,379.3799,293.875" style="stroke:#181818;stroke-width:1;"/><line style="stroke:#181818;stroke-width:1;" x1="379.3799" x2="379.3799" y1="333.8438" y2="353.8438"/><polygon fill="#181818" points="375.3799,343.8438,379.3799,353.8438,383.3799,343.8438,379.3799,347.8438" style="stroke:#181818;stroke-width:1;"/><line style="stroke:#181818;stroke-width:1;" x1="379.3799" x2="379.3799" y1="387.8125" y2="407.8125"/><polygon fill="#181818" points="375.3799,397.8125,379.3799,407.8125,383.3799,397.8125,379.3799,401.8125" style="stroke:#181818;stroke-width:1;"/><line style="stroke:#181818;stroke-width:1;" x1="601.8477" x2="601.8477" y1="609.7188" y2="644.7188"/><polygon fill="#181818" points="597.8477,634.7188,601.8477,644.7188,605.8477,634.7188,601.8477,638.7188" style="stroke:#181818;stroke-width:1;"/><line style="stroke:#181818;stroke-width:1;" x1="601.8477" x2="601.8477" y1="678.6875" y2="698.6875"/><polygon fill="#181818" points="597.8477,688.6875,601.8477,698.6875,605.8477,688.6875,601.8477,692.6875" style="stroke:#181818;stroke-width:1;"/><line style="stroke:#181818;stroke-width:1;" x1="413.4338" x2="374.5908" y1="553.75" y2="553.75"/><line style="stroke:#181818;stroke-width:1;" x1="374.5908" x2="374.5908" y1="553.75" y2="575.75"/><polygon fill="#181818" points="370.5908,565.75,374.5908,575.75,378.5908,565.75,374.5908,569.75" style="stroke:#181818;stroke-width:1;"/><line style="stroke:#181818;stroke-width:1;" x1="563.0046" x2="601.8477" y1="553.75" y2="553.75"/><line style="stroke:#181818;stroke-width:1;" x1="601.8477" x2="601.8477" y1="553.75" y2="575.75"/><polygon fill="#181818" points="597.8477,565.75,601.8477,575.75,605.8477,565.75,601.8477,569.75" style="stroke:#181818;stroke-width:1;"/><line style="stroke:#181818;stroke-width:1;" x1="374.5908" x2="374.5908" y1="609.7188" y2="750.6563"/><line style="stroke:#181818;stroke-width:1;" x1="374.5908" x2="476.2192" y1="750.6563" y2="750.6563"/><polygon fill="#181818" points="466.2192,746.6563,476.2192,750.6563,466.2192,754.6563,470.2192,750.6563" style="stroke:#181818;stroke-width:1;"/><line style="stroke:#181818;stroke-width:1;" x1="601.8477" x2="601.8477" y1="732.6563" y2="750.6563"/><line style="stroke:#181818;stroke-width:1;" x1="601.8477" x2="500.2192" y1="750.6563" y2="750.6563"/><polygon fill="#181818" points="510.2192,746.6563,500.2192,750.6563,510.2192,754.6563,506.2192,750.6563" style="stroke:#181818;stroke-width:1;"/><line style="stroke:#181818;stroke-width:1;" x1="488.2192" x2="488.2192" y1="521.75" y2="541.75"/><polygon fill="#181818" points="484.2192,531.75,488.2192,541.75,492.2192,531.75,488.2192,535.75" style="stroke:#181818;stroke-width:1;"/><line style="stroke:#181818;stroke-width:1;" x1="138.123" x2="138.123" y1="467.7813" y2="608.2344"/><polygon fill="#181818" points="134.123,598.2344,138.123,608.2344,142.123,598.2344,138.123,602.2344" style="stroke:#181818;stroke-width:1;"/><line style="stroke:#181818;stroke-width:1;" x1="488.2192" x2="488.2192" y1="467.7813" y2="487.7813"/><polygon fill="#181818" points="484.2192,477.7813,488.2192,487.7813,492.2192,477.7813,488.2192,481.7813" style="stroke:#181818;stroke-width:1;"/><line style="stroke:#181818;stroke-width:1;" x1="138.123" x2="138.123" y1="642.2031" y2="782.6563"/><polygon fill="#181818" points="134.123,772.6563,138.123,782.6563,142.123,772.6563,138.123,776.6563" style="stroke:#181818;stroke-width:1;"/><line style="stroke:#181818;stroke-width:1;" x1="488.2192" x2="488.2192" y1="762.6563" y2="782.6563"/><polygon fill="#181818" points="484.2192,772.6563,488.2192,782.6563,492.2192,772.6563,488.2192,776.6563" style="stroke:#181818;stroke-width:1;"/><line style="stroke:#181818;stroke-width:1;" x1="379.3799" x2="379.3799" y1="441.7813" y2="461.7813"/><polygon fill="#181818" points="375.3799,451.7813,379.3799,461.7813,383.3799,451.7813,379.3799,455.7813" style="stroke:#181818;stroke-width:1;"/><line style="stroke:#181818;stroke-width:1;" x1="379.3799" x2="379.3799" y1="788.6563" y2="808.6563"/><polygon fill="#181818" points="375.3799,798.6563,379.3799,808.6563,383.3799,798.6563,379.3799,802.6563" style="stroke:#181818;stroke-width:1;"/><line style="stroke:#181818;stroke-width:1;" x1="379.3799" x2="379.3799" y1="842.625" y2="862.625"/><polygon fill="#181818" points="375.3799,852.625,379.3799,862.625,383.3799,852.625,379.3799,856.625" style="stroke:#181818;stroke-width:1;"/><line style="stroke:#181818;stroke-width:1;" x1="379.3799" x2="379.3799" y1="896.5938" y2="916.5938"/><polygon fill="#181818" points="375.3799,906.5938,379.3799,916.5938,383.3799,906.5938,379.3799,910.5938" style="stroke:#181818;stroke-width:1;"/><line style="stroke:#181818;stroke-width:1;" x1="379.3799" x2="379.3799" y1="950.5625" y2="970.5625"/><polygon fill="#181818" points="375.3799,960.5625,379.3799,970.5625,383.3799,960.5625,379.3799,964.5625" style="stroke:#181818;stroke-width:1;"/><line style="stroke:#181818;stroke-width:1;" x1="862.5117" x2="862.5117" y1="279.875" y2="299.875"/><polygon fill="#181818" points="858.5117,289.875,862.5117,299.875,866.5117,289.875,862.5117,293.875" style="stroke:#181818;stroke-width:1;"/><line style="stroke:#181818;stroke-width:1;" x1="862.5117" x2="862.5117" y1="333.8438" y2="353.8438"/><polygon fill="#181818" points="858.5117,343.8438,862.5117,353.8438,866.5117,343.8438,862.5117,347.8438" style="stroke:#181818;stroke-width:1;"/><line style="stroke:#181818;stroke-width:1;" x1="862.5117" x2="862.5117" y1="387.8125" y2="407.8125"/><polygon fill="#181818" points="858.5117,397.8125,862.5117,407.8125,866.5117,397.8125,862.5117,401.8125" style="stroke:#181818;stroke-width:1;"/><line style="stroke:#181818;stroke-width:1;" x1="550.1511" x2="379.3799" y1="223.9063" y2="223.9063"/><line style="stroke:#181818;stroke-width:1;" x1="379.3799" x2="379.3799" y1="223.9063" y2="245.9063"/><polygon fill="#181818" points="375.3799,235.9063,379.3799,245.9063,383.3799,235.9063,379.3799,239.9063" style="stroke:#181818;stroke-width:1;"/><line style="stroke:#181818;stroke-width:1;" x1="691.7405" x2="862.5117" y1="223.9063" y2="223.9063"/><line style="stroke:#181818;stroke-width:1;" x1="862.5117" x2="862.5117" y1="223.9063" y2="245.9063"/><polygon fill="#181818" points="858.5117,235.9063,862.5117,245.9063,866.5117,235.9063,862.5117,239.9063" style="stroke:#181818;stroke-width:1;"/><line style="stroke:#181818;stroke-width:1;" x1="620.9458" x2="620.9458" y1="191.9063" y2="211.9063"/><polygon fill="#181818" points="616.9458,201.9063,620.9458,211.9063,624.9458,201.9063,620.9458,205.9063" style="stroke:#181818;stroke-width:1;"/><!--SRC=[TLCnRiCm3Dpz2ex9a0yaGn6aNOkYHXx0o7IYLX9TIJQA_YReq8VuOwMaE8q3530WMxmxaaSwHFInMkz3FvwzPi2e1uJUGilUzgPSDWGA6mpHNzvTenkClAdMk-aTMlm21Es2ydhy6RyP2CWDXTwmwYsvo65pasn08znPKBUmUBn-mp2U1SBXOGdnH0uMjRRB2c3zugb3Zu3-ezU381NR3bN49ga8e2P3IhCJI4eZzvvAPDyPnWOodI7e4CbYZZn9kGYqigXD4WIZtNi1ted88mQzoo6qxHIJxYDv9oug2k5EFU41ZwZTFOi-2ojAptZX-ZaP81cpJI660zbLw1M9yNnlJ9OMSyYf4y41lGW0Esc4YWwPGB1ublbSuQ_KiPVCdUU3INWPMAw2DnEaBgNaWTuE3BfKVpPiys_sjhr9B-lILlcS7FnplfYSboVFOyVi6tBP94-A3fFc9Ue2vmMIeVJcEleGkQlcRQvh0IeTvxkMMt-ZT7spqldsAFtAr2tBxo0Bd588y5fPIP5Q-GK0]--></g></svg>