<svg xmlns="http://www.w3.org/2000/svg" xmlns:xlink="http://www.w3.org/1999/xlink" contentStyleType="text/css" data-diagram-type="CLASS" height="893px" preserveAspectRatio="none" style="width:1386px;height:893px;background:#FFFFFF;" version="1.1" viewBox="0 0 1386 893" width="1386px" zoomAndPan="magnify"><defs/><g><!--class Candidato--><g class="entity" data-entity="Candidato" data-source-line="2" data-uid="ent0002" id="entity_Candidato"><rect fill="#F1F1F1" height="194.6719" rx="2.5" ry="2.5" style="stroke:#181818;stroke-width:0.5;" width="259.2832" x="736.29" y="278.67"/><ellipse cx="825.9194" cy="294.67" fill="#ADD1B2" rx="11" ry="11" style="stroke:#181818;stroke-width:1;"/><path d="M828.8881,300.3106 Q828.31,300.6075 827.6694,300.7481 Q827.0288,300.9044 826.3256,300.9044 Q823.8256,300.9044 822.4975,299.2637 Q821.185,297.6075 821.185,294.4825 Q821.185,291.3575 822.4975,289.7012 Q823.8256,288.045 826.3256,288.045 Q827.0288,288.045 827.6694,288.2012 Q828.3256,288.3575 828.8881,288.6544 L828.8881,291.3731 Q828.2631,290.795 827.6694,290.5294 Q827.0756,290.2481 826.4506,290.2481 Q825.1069,290.2481 824.4194,291.3262 Q823.7319,292.3887 823.7319,294.4825 Q823.7319,296.5762 824.4194,297.6544 Q825.1069,298.7169 826.4506,298.7169 Q827.0756,298.7169 827.6694,298.4512 Q828.2631,298.17 828.8881,297.5919 L828.8881,300.3106 Z " fill="#000000"/><text fill="#000000" font-family="sans-serif" font-size="14" lengthAdjust="spacing" textLength="71.5244" x="846.4194" y="299.5167">Candidato</text><line style="stroke:#181818;stroke-width:0.5;" x1="737.29" x2="994.5732" y1="310.67" y2="310.67"/><rect fill="none" height="6" style="stroke:#C82930;stroke-width:1;" width="6" x="744.29" y="321.3184"/><text fill="#000000" font-family="sans-serif" font-size="14" lengthAdjust="spacing" textLength="52.1582" x="756.29" y="327.6651">id: long</text><rect fill="none" height="6" style="stroke:#C82930;stroke-width:1;" width="6" x="744.29" y="337.6153"/><text fill="#000000" font-family="sans-serif" font-size="14" lengthAdjust="spacing" textLength="89.0449" x="756.29" y="343.962">nome: string</text><rect fill="none" height="6" style="stroke:#C82930;stroke-width:1;" width="6" x="744.29" y="353.9122"/><text fill="#000000" font-family="sans-serif" font-size="14" lengthAdjust="spacing" textLength="115.7461" x="756.29" y="360.2589">matricula: string</text><rect fill="none" height="6" style="stroke:#C82930;stroke-width:1;" width="6" x="744.29" y="370.2091"/><text fill="#000000" font-family="sans-serif" font-size="14" lengthAdjust="spacing" textLength="87.9648" x="756.29" y="376.5557">email: string</text><rect fill="none" height="6" style="stroke:#C82930;stroke-width:1;" width="6" x="744.29" y="386.5059"/><text fill="#000000" font-family="sans-serif" font-size="14" lengthAdjust="spacing" textLength="142.7549" x="756.29" y="392.8526">areaPesquisa: string</text><rect fill="none" height="6" style="stroke:#C82930;stroke-width:1;" width="6" x="744.29" y="402.8028"/><text fill="#000000" font-family="sans-serif" font-size="14" lengthAdjust="spacing" textLength="233.2832" x="756.29" y="409.1495">statusValidacao: StatusValidacao</text><rect fill="none" height="6" style="stroke:#C82930;stroke-width:1;" width="6" x="744.29" y="419.0997"/><text fill="#000000" font-family="sans-serif" font-size="14" lengthAdjust="spacing" textLength="171.7803" x="756.29" y="425.4464">dataCadastro: DateTime</text><line style="stroke:#181818;stroke-width:0.5;" x1="737.29" x2="994.5732" y1="432.7481" y2="432.7481"/><ellipse cx="747.29" cy="446.3966" fill="#84BE84" rx="3" ry="3" style="stroke:#038048;stroke-width:1;"/><text fill="#000000" font-family="sans-serif" font-size="14" lengthAdjust="spacing" textLength="187.5439" x="756.29" y="449.7432">ValidarDocumentos(): bool</text><ellipse cx="747.29" cy="462.6934" fill="#84BE84" rx="3" ry="3" style="stroke:#038048;stroke-width:1;"/><text fill="#000000" font-family="sans-serif" font-size="14" lengthAdjust="spacing" textLength="182.2461" x="756.29" y="466.0401">CalcularPontuacao(): float</text></g><!--class Documento--><g class="entity" data-entity="Documento" data-source-line="15" data-uid="ent0003" id="entity_Documento"><rect fill="#F1F1F1" height="210.9688" rx="2.5" ry="2.5" style="stroke:#181818;stroke-width:0.5;" width="354.207" x="681.83" y="550.34"/><ellipse cx="814.1362" cy="566.34" fill="#ADD1B2" rx="11" ry="11" style="stroke:#181818;stroke-width:1;"/><path d="M817.1049,571.9806 Q816.5268,572.2775 815.8862,572.4181 Q815.2455,572.5744 814.5424,572.5744 Q812.0424,572.5744 810.7143,570.9337 Q809.4018,569.2775 809.4018,566.1525 Q809.4018,563.0275 810.7143,561.3712 Q812.0424,559.715 814.5424,559.715 Q815.2455,559.715 815.8862,559.8712 Q816.5424,560.0275 817.1049,560.3244 L817.1049,563.0431 Q816.4799,562.465 815.8862,562.1994 Q815.2924,561.9181 814.6674,561.9181 Q813.3237,561.9181 812.6362,562.9962 Q811.9487,564.0587 811.9487,566.1525 Q811.9487,568.2462 812.6362,569.3244 Q813.3237,570.3869 814.6674,570.3869 Q815.2924,570.3869 815.8862,570.1212 Q816.4799,569.84 817.1049,569.2619 L817.1049,571.9806 Z " fill="#000000"/><text fill="#000000" font-family="sans-serif" font-size="14" lengthAdjust="spacing" textLength="81.0947" x="834.6362" y="571.1867">Documento</text><line style="stroke:#181818;stroke-width:0.5;" x1="682.83" x2="1035.037" y1="582.34" y2="582.34"/><rect fill="none" height="6" style="stroke:#C82930;stroke-width:1;" width="6" x="689.83" y="592.9884"/><text fill="#000000" font-family="sans-serif" font-size="14" lengthAdjust="spacing" textLength="52.1582" x="701.83" y="599.3351">id: long</text><rect fill="none" height="6" style="stroke:#C82930;stroke-width:1;" width="6" x="689.83" y="609.2853"/><text fill="#000000" font-family="sans-serif" font-size="14" lengthAdjust="spacing" textLength="146.9863" x="701.83" y="615.632">tipo: TipoDocumento</text><rect fill="none" height="6" style="stroke:#C82930;stroke-width:1;" width="6" x="689.83" y="625.5822"/><text fill="#000000" font-family="sans-serif" font-size="14" lengthAdjust="spacing" textLength="142.8779" x="701.83" y="631.9289">nomeArquivo: string</text><rect fill="none" height="6" style="stroke:#C82930;stroke-width:1;" width="6" x="689.83" y="641.8791"/><text fill="#000000" font-family="sans-serif" font-size="14" lengthAdjust="spacing" textLength="146.002" x="701.83" y="648.2257">caminhoLocal: string</text><rect fill="none" height="6" style="stroke:#C82930;stroke-width:1;" width="6" x="689.83" y="658.1759"/><text fill="#000000" font-family="sans-serif" font-size="14" lengthAdjust="spacing" textLength="151.2178" x="701.83" y="664.5226">hashValidacao: string</text><rect fill="none" height="6" style="stroke:#C82930;stroke-width:1;" width="6" x="689.83" y="674.4728"/><text fill="#000000" font-family="sans-serif" font-size="14" lengthAdjust="spacing" textLength="157.9102" x="701.83" y="680.8195">dataUpload: DateTime</text><rect fill="none" height="6" style="stroke:#C82930;stroke-width:1;" width="6" x="689.83" y="690.7697"/><text fill="#000000" font-family="sans-serif" font-size="14" lengthAdjust="spacing" textLength="98.6357" x="701.83" y="697.1164">validado: bool</text><rect fill="none" height="6" style="stroke:#C82930;stroke-width:1;" width="6" x="689.83" y="707.0666"/><text fill="#000000" font-family="sans-serif" font-size="14" lengthAdjust="spacing" textLength="157.3633" x="701.83" y="713.4132">motivoRejeicao: string</text><line style="stroke:#181818;stroke-width:0.5;" x1="682.83" x2="1035.037" y1="720.715" y2="720.715"/><ellipse cx="692.83" cy="734.3634" fill="#84BE84" rx="3" ry="3" style="stroke:#038048;stroke-width:1;"/><text fill="#000000" font-family="sans-serif" font-size="14" lengthAdjust="spacing" textLength="189.2871" x="701.83" y="737.7101">VerificarIntegridade(): bool</text><ellipse cx="692.83" cy="750.6603" fill="#84BE84" rx="3" ry="3" style="stroke:#038048;stroke-width:1;"/><text fill="#000000" font-family="sans-serif" font-size="14" lengthAdjust="spacing" textLength="328.207" x="701.83" y="754.007">ExtrairMetadados(): Dictionary&lt;string, string&gt;</text></g><!--class TipoDocumento--><g class="entity" data-entity="TipoDocumento" data-source-line="29" data-uid="ent0004" id="entity_TipoDocumento"><rect fill="#F1F1F1" height="129.4844" rx="2.5" ry="2.5" style="stroke:#181818;stroke-width:0.5;" width="171.8584" x="7" y="39.59"/><ellipse cx="34.9916" cy="55.59" fill="#EB937F" rx="11" ry="11" style="stroke:#181818;stroke-width:1;"/><path d="M39.1009,61.59 L31.3822,61.59 L31.3822,49.1994 L39.1009,49.1994 L39.1009,51.3556 L33.8353,51.3556 L33.8353,54.0275 L38.6009,54.0275 L38.6009,56.1837 L33.8353,56.1837 L33.8353,59.4337 L39.1009,59.4337 L39.1009,61.59 Z " fill="#000000"/><text fill="#000000" font-family="sans-serif" font-size="14" lengthAdjust="spacing" textLength="110.9883" x="51.8786" y="60.4367">TipoDocumento</text><line style="stroke:#181818;stroke-width:0.5;" x1="8" x2="177.8584" y1="71.59" y2="71.59"/><text fill="#000000" font-family="sans-serif" font-size="14" lengthAdjust="spacing" textLength="112.3008" x="13" y="88.5851">HistoricoEscolar</text><text fill="#000000" font-family="sans-serif" font-size="14" lengthAdjust="spacing" textLength="159.8584" x="13" y="104.882">ComprovanteMatricula</text><text fill="#000000" font-family="sans-serif" font-size="14" lengthAdjust="spacing" textLength="98.998" x="13" y="121.1789">CartaIntencao</text><text fill="#000000" font-family="sans-serif" font-size="14" lengthAdjust="spacing" textLength="112.9912" x="13" y="137.4757">CurriculumLatte</text><text fill="#000000" font-family="sans-serif" font-size="14" lengthAdjust="spacing" textLength="146.2139" x="13" y="153.7726">CartaRecomendacao</text><line style="stroke:#181818;stroke-width:0.5;" x1="8" x2="177.8584" y1="161.0744" y2="161.0744"/></g><!--class StatusValidacao--><g class="entity" data-entity="StatusValidacao" data-source-line="37" data-uid="ent0005" id="entity_StatusValidacao"><rect fill="#F1F1F1" height="113.1875" rx="2.5" ry="2.5" style="stroke:#181818;stroke-width:0.5;" width="144.8545" x="213.5" y="47.74"/><ellipse cx="228.5" cy="63.74" fill="#EB937F" rx="11" ry="11" style="stroke:#181818;stroke-width:1;"/><path d="M232.6094,69.74 L224.8906,69.74 L224.8906,57.3494 L232.6094,57.3494 L232.6094,59.5056 L227.3438,59.5056 L227.3438,62.1775 L232.1094,62.1775 L232.1094,64.3337 L227.3438,64.3337 L227.3438,67.5837 L232.6094,67.5837 L232.6094,69.74 Z " fill="#000000"/><text fill="#000000" font-family="sans-serif" font-size="14" lengthAdjust="spacing" textLength="112.8545" x="242.5" y="68.5867">StatusValidacao</text><line style="stroke:#181818;stroke-width:0.5;" x1="214.5" x2="357.3545" y1="79.74" y2="79.74"/><text fill="#000000" font-family="sans-serif" font-size="14" lengthAdjust="spacing" textLength="66.4043" x="219.5" y="96.7351">Pendente</text><text fill="#000000" font-family="sans-serif" font-size="14" lengthAdjust="spacing" textLength="60.8535" x="219.5" y="113.032">Validado</text><text fill="#000000" font-family="sans-serif" font-size="14" lengthAdjust="spacing" textLength="66.2539" x="219.5" y="129.3289">Rejeitado</text><text fill="#000000" font-family="sans-serif" font-size="14" lengthAdjust="spacing" textLength="73.1992" x="219.5" y="145.6257">EmAnalise</text><line style="stroke:#181818;stroke-width:0.5;" x1="214.5" x2="357.3545" y1="152.9275" y2="152.9275"/></g><!--class Avaliador--><g class="entity" data-entity="Avaliador" data-source-line="44" data-uid="ent0006" id="entity_Avaliador"><rect fill="#F1F1F1" height="194.6719" rx="2.5" ry="2.5" style="stroke:#181818;stroke-width:0.5;" width="349.1416" x="1030.36" y="278.67"/><ellipse cx="1167.6769" cy="294.67" fill="#ADD1B2" rx="11" ry="11" style="stroke:#181818;stroke-width:1;"/><path d="M1170.6456,300.3106 Q1170.0675,300.6075 1169.4269,300.7481 Q1168.7863,300.9044 1168.0831,300.9044 Q1165.5831,300.9044 1164.255,299.2637 Q1162.9425,297.6075 1162.9425,294.4825 Q1162.9425,291.3575 1164.255,289.7012 Q1165.5831,288.045 1168.0831,288.045 Q1168.7863,288.045 1169.4269,288.2012 Q1170.0831,288.3575 1170.6456,288.6544 L1170.6456,291.3731 Q1170.0206,290.795 1169.4269,290.5294 Q1168.8331,290.2481 1168.2081,290.2481 Q1166.8644,290.2481 1166.1769,291.3262 Q1165.4894,292.3887 1165.4894,294.4825 Q1165.4894,296.5762 1166.1769,297.6544 Q1166.8644,298.7169 1168.2081,298.7169 Q1168.8331,298.7169 1169.4269,298.4512 Q1170.0206,298.17 1170.6456,297.5919 L1170.6456,300.3106 Z " fill="#000000"/><text fill="#000000" font-family="sans-serif" font-size="14" lengthAdjust="spacing" textLength="66.0078" x="1188.1769" y="299.5167">Avaliador</text><line style="stroke:#181818;stroke-width:0.5;" x1="1031.36" x2="1378.5016" y1="310.67" y2="310.67"/><rect fill="none" height="6" style="stroke:#C82930;stroke-width:1;" width="6" x="1038.36" y="321.3184"/><text fill="#000000" font-family="sans-serif" font-size="14" lengthAdjust="spacing" textLength="52.1582" x="1050.36" y="327.6651">id: long</text><rect fill="none" height="6" style="stroke:#C82930;stroke-width:1;" width="6" x="1038.36" y="337.6153"/><text fill="#000000" font-family="sans-serif" font-size="14" lengthAdjust="spacing" textLength="89.0449" x="1050.36" y="343.962">nome: string</text><rect fill="none" height="6" style="stroke:#C82930;stroke-width:1;" width="6" x="1038.36" y="353.9122"/><text fill="#000000" font-family="sans-serif" font-size="14" lengthAdjust="spacing" textLength="87.9648" x="1050.36" y="360.2589">email: string</text><rect fill="none" height="6" style="stroke:#C82930;stroke-width:1;" width="6" x="1038.36" y="370.2091"/><text fill="#000000" font-family="sans-serif" font-size="14" lengthAdjust="spacing" textLength="131.8994" x="1050.36" y="376.5557">tipo: TipoAvaliador</text><rect fill="none" height="6" style="stroke:#C82930;stroke-width:1;" width="6" x="1038.36" y="386.5059"/><text fill="#000000" font-family="sans-serif" font-size="14" lengthAdjust="spacing" textLength="183.2373" x="1050.36" y="392.8526">areaEspecializacao: string</text><rect fill="none" height="6" style="stroke:#C82930;stroke-width:1;" width="6" x="1038.36" y="402.8028"/><text fill="#000000" font-family="sans-serif" font-size="14" lengthAdjust="spacing" textLength="121.8848" x="1050.36" y="409.1495">instituicao: string</text><rect fill="none" height="6" style="stroke:#C82930;stroke-width:1;" width="6" x="1038.36" y="419.0997"/><text fill="#000000" font-family="sans-serif" font-size="14" lengthAdjust="spacing" textLength="73.8828" x="1050.36" y="425.4464">ativo: bool</text><line style="stroke:#181818;stroke-width:0.5;" x1="1031.36" x2="1378.5016" y1="432.7481" y2="432.7481"/><ellipse cx="1041.36" cy="446.3966" fill="#84BE84" rx="3" ry="3" style="stroke:#038048;stroke-width:1;"/><text fill="#000000" font-family="sans-serif" font-size="14" lengthAdjust="spacing" textLength="293.7129" x="1050.36" y="449.7432">PreencherBarema(barema: Barema): void</text><ellipse cx="1041.36" cy="462.6934" fill="#84BE84" rx="3" ry="3" style="stroke:#038048;stroke-width:1;"/><text fill="#000000" font-family="sans-serif" font-size="14" lengthAdjust="spacing" textLength="323.1416" x="1050.36" y="466.0401">ListarAvaliacoesPendentes(): List&lt;Avaliacao&gt;</text></g><!--class TipoAvaliador--><g class="entity" data-entity="TipoAvaliador" data-source-line="57" data-uid="ent0007" id="entity_TipoAvaliador"><rect fill="#F1F1F1" height="80.5938" rx="2.5" ry="2.5" style="stroke:#181818;stroke-width:0.5;" width="127.9014" x="28.98" y="335.71"/><ellipse cx="43.98" cy="351.71" fill="#EB937F" rx="11" ry="11" style="stroke:#181818;stroke-width:1;"/><path d="M48.0894,357.71 L40.3706,357.71 L40.3706,345.3194 L48.0894,345.3194 L48.0894,347.4756 L42.8238,347.4756 L42.8238,350.1475 L47.5894,350.1475 L47.5894,352.3037 L42.8238,352.3037 L42.8238,355.5537 L48.0894,355.5537 L48.0894,357.71 Z " fill="#000000"/><text fill="#000000" font-family="sans-serif" font-size="14" lengthAdjust="spacing" textLength="95.9014" x="57.98" y="356.5567">TipoAvaliador</text><line style="stroke:#181818;stroke-width:0.5;" x1="29.98" x2="155.8814" y1="367.71" y2="367.71"/><text fill="#000000" font-family="sans-serif" font-size="14" lengthAdjust="spacing" textLength="50.2988" x="34.98" y="384.7051">Interno</text><text fill="#000000" font-family="sans-serif" font-size="14" lengthAdjust="spacing" textLength="54.4277" x="34.98" y="401.002">Externo</text><line style="stroke:#181818;stroke-width:0.5;" x1="29.98" x2="155.8814" y1="408.3037" y2="408.3037"/></g><!--class Barema--><g class="entity" data-entity="Barema" data-source-line="62" data-uid="ent0008" id="entity_Barema"><rect fill="#F1F1F1" height="210.9688" rx="2.5" ry="2.5" style="stroke:#181818;stroke-width:0.5;" width="267.9238" x="1070.97" y="550.34"/><ellipse cx="1173.2971" cy="566.34" fill="#ADD1B2" rx="11" ry="11" style="stroke:#181818;stroke-width:1;"/><path d="M1176.2659,571.9806 Q1175.6878,572.2775 1175.0471,572.4181 Q1174.4065,572.5744 1173.7034,572.5744 Q1171.2034,572.5744 1169.8753,570.9337 Q1168.5628,569.2775 1168.5628,566.1525 Q1168.5628,563.0275 1169.8753,561.3712 Q1171.2034,559.715 1173.7034,559.715 Q1174.4065,559.715 1175.0471,559.8712 Q1175.7034,560.0275 1176.2659,560.3244 L1176.2659,563.0431 Q1175.6409,562.465 1175.0471,562.1994 Q1174.4534,561.9181 1173.8284,561.9181 Q1172.4846,561.9181 1171.7971,562.9962 Q1171.1096,564.0587 1171.1096,566.1525 Q1171.1096,568.2462 1171.7971,569.3244 Q1172.4846,570.3869 1173.8284,570.3869 Q1174.4534,570.3869 1175.0471,570.1212 Q1175.6409,569.84 1176.2659,569.2619 L1176.2659,571.9806 Z " fill="#000000"/><text fill="#000000" font-family="sans-serif" font-size="14" lengthAdjust="spacing" textLength="54.7695" x="1193.7971" y="571.1867">Barema</text><line style="stroke:#181818;stroke-width:0.5;" x1="1071.97" x2="1337.8938" y1="582.34" y2="582.34"/><rect fill="none" height="6" style="stroke:#C82930;stroke-width:1;" width="6" x="1078.97" y="592.9884"/><text fill="#000000" font-family="sans-serif" font-size="14" lengthAdjust="spacing" textLength="52.1582" x="1090.97" y="599.3351">id: long</text><rect fill="none" height="6" style="stroke:#C82930;stroke-width:1;" width="6" x="1078.97" y="609.2853"/><text fill="#000000" font-family="sans-serif" font-size="14" lengthAdjust="spacing" textLength="150.1377" x="1090.97" y="615.632">candidato: Candidato</text><rect fill="none" height="6" style="stroke:#C82930;stroke-width:1;" width="6" x="1078.97" y="625.5822"/><text fill="#000000" font-family="sans-serif" font-size="14" lengthAdjust="spacing" textLength="140.1846" x="1090.97" y="631.9289">avaliador: Avaliador</text><rect fill="none" height="6" style="stroke:#C82930;stroke-width:1;" width="6" x="1078.97" y="641.8791"/><text fill="#000000" font-family="sans-serif" font-size="14" lengthAdjust="spacing" textLength="241.9238" x="1090.97" y="648.2257">criterios: Dictionary&lt;string, float&gt;</text><rect fill="none" height="6" style="stroke:#C82930;stroke-width:1;" width="6" x="1078.97" y="658.1759"/><text fill="#000000" font-family="sans-serif" font-size="14" lengthAdjust="spacing" textLength="105.4102" x="1090.97" y="664.5226">notaFinal: float</text><rect fill="none" height="6" style="stroke:#C82930;stroke-width:1;" width="6" x="1078.97" y="674.4728"/><text fill="#000000" font-family="sans-serif" font-size="14" lengthAdjust="spacing" textLength="137.5049" x="1090.97" y="680.8195">observacoes: string</text><rect fill="none" height="6" style="stroke:#C82930;stroke-width:1;" width="6" x="1078.97" y="690.7697"/><text fill="#000000" font-family="sans-serif" font-size="14" lengthAdjust="spacing" textLength="214.792" x="1090.97" y="697.1164">dataPreenchimento: DateTime</text><rect fill="none" height="6" style="stroke:#C82930;stroke-width:1;" width="6" x="1078.97" y="707.0666"/><text fill="#000000" font-family="sans-serif" font-size="14" lengthAdjust="spacing" textLength="151.5664" x="1090.97" y="713.4132">status: StatusBarema</text><line style="stroke:#181818;stroke-width:0.5;" x1="1071.97" x2="1337.8938" y1="720.715" y2="720.715"/><ellipse cx="1081.97" cy="734.3634" fill="#84BE84" rx="3" ry="3" style="stroke:#038048;stroke-width:1;"/><text fill="#000000" font-family="sans-serif" font-size="14" lengthAdjust="spacing" textLength="174.9727" x="1090.97" y="737.7101">CalcularNotaFinal(): float</text><ellipse cx="1081.97" cy="750.6603" fill="#84BE84" rx="3" ry="3" style="stroke:#038048;stroke-width:1;"/><text fill="#000000" font-family="sans-serif" font-size="14" lengthAdjust="spacing" textLength="184.3857" x="1090.97" y="754.007">ValidarCompletude(): bool</text></g><!--class ProcessoSelecao--><g class="entity" data-entity="ProcessoSelecao" data-source-line="76" data-uid="ent0009" id="entity_ProcessoSelecao"><rect fill="#F1F1F1" height="194.6719" rx="2.5" ry="2.5" style="stroke:#181818;stroke-width:0.5;" width="211.7939" x="930.03" y="7"/><ellipse cx="973.2548" cy="23" fill="#ADD1B2" rx="11" ry="11" style="stroke:#181818;stroke-width:1;"/><path d="M976.2235,28.6406 Q975.6454,28.9375 975.0048,29.0781 Q974.3641,29.2344 973.661,29.2344 Q971.161,29.2344 969.8329,27.5938 Q968.5204,25.9375 968.5204,22.8125 Q968.5204,19.6875 969.8329,18.0313 Q971.161,16.375 973.661,16.375 Q974.3641,16.375 975.0048,16.5313 Q975.661,16.6875 976.2235,16.9844 L976.2235,19.7031 Q975.5985,19.125 975.0048,18.8594 Q974.411,18.5781 973.786,18.5781 Q972.4423,18.5781 971.7548,19.6563 Q971.0673,20.7188 971.0673,22.8125 Q971.0673,24.9063 971.7548,25.9844 Q972.4423,27.0469 973.786,27.0469 Q974.411,27.0469 975.0048,26.7813 Q975.5985,26.5 976.2235,25.9219 L976.2235,28.6406 Z " fill="#000000"/><text fill="#000000" font-family="sans-serif" font-size="14" lengthAdjust="spacing" textLength="117.0723" x="993.5269" y="27.8467">ProcessoSelecao</text><line style="stroke:#181818;stroke-width:0.5;" x1="931.03" x2="1140.8239" y1="39" y2="39"/><rect fill="none" height="6" style="stroke:#C82930;stroke-width:1;" width="6" x="938.03" y="49.6484"/><text fill="#000000" font-family="sans-serif" font-size="14" lengthAdjust="spacing" textLength="52.1582" x="950.03" y="55.9951">id: long</text><rect fill="none" height="6" style="stroke:#C82930;stroke-width:1;" width="6" x="938.03" y="65.9453"/><text fill="#000000" font-family="sans-serif" font-size="14" lengthAdjust="spacing" textLength="89.0449" x="950.03" y="72.292">nome: string</text><rect fill="none" height="6" style="stroke:#C82930;stroke-width:1;" width="6" x="938.03" y="82.2422"/><text fill="#000000" font-family="sans-serif" font-size="14" lengthAdjust="spacing" textLength="145.8994" x="950.03" y="88.5889">dataInicio: DateTime</text><rect fill="none" height="6" style="stroke:#C82930;stroke-width:1;" width="6" x="938.03" y="98.5391"/><text fill="#000000" font-family="sans-serif" font-size="14" lengthAdjust="spacing" textLength="134.4355" x="950.03" y="104.8857">dataFim: DateTime</text><rect fill="none" height="6" style="stroke:#C82930;stroke-width:1;" width="6" x="938.03" y="114.8359"/><text fill="#000000" font-family="sans-serif" font-size="14" lengthAdjust="spacing" textLength="149.3037" x="950.03" y="121.1826">vagasDisponiveis: int</text><rect fill="none" height="6" style="stroke:#C82930;stroke-width:1;" width="6" x="938.03" y="131.1328"/><text fill="#000000" font-family="sans-serif" font-size="14" lengthAdjust="spacing" textLength="159.0244" x="950.03" y="137.4795">status: StatusProcesso</text><line style="stroke:#181818;stroke-width:0.5;" x1="931.03" x2="1140.8239" y1="144.7813" y2="144.7813"/><ellipse cx="941.03" cy="158.4297" fill="#84BE84" rx="3" ry="3" style="stroke:#038048;stroke-width:1;"/><text fill="#000000" font-family="sans-serif" font-size="14" lengthAdjust="spacing" textLength="154.7588" x="950.03" y="161.7764">IniciarProcesso(): void</text><ellipse cx="941.03" cy="174.7266" fill="#84BE84" rx="3" ry="3" style="stroke:#038048;stroke-width:1;"/><text fill="#000000" font-family="sans-serif" font-size="14" lengthAdjust="spacing" textLength="170.8027" x="950.03" y="178.0732">FinalizarProcesso(): void</text><ellipse cx="941.03" cy="191.0234" fill="#84BE84" rx="3" ry="3" style="stroke:#038048;stroke-width:1;"/><text fill="#000000" font-family="sans-serif" font-size="14" lengthAdjust="spacing" textLength="185.7939" x="950.03" y="194.3701">GerarRelatorio(): Relatorio</text></g><!--class Avaliacao--><g class="entity" data-entity="Avaliacao" data-source-line="93" data-uid="ent0013" id="entity_Avaliacao"><rect fill="#F1F1F1" height="48" rx="2.5" ry="2.5" style="stroke:#181818;stroke-width:0.5;" width="99.6416" x="1155.11" y="838.31"/><ellipse cx="1170.11" cy="854.31" fill="#ADD1B2" rx="11" ry="11" style="stroke:#181818;stroke-width:1;"/><path d="M1173.0788,859.9506 Q1172.5006,860.2475 1171.86,860.3881 Q1171.2194,860.5444 1170.5163,860.5444 Q1168.0163,860.5444 1166.6881,858.9038 Q1165.3756,857.2475 1165.3756,854.1225 Q1165.3756,850.9975 1166.6881,849.3413 Q1168.0163,847.685 1170.5163,847.685 Q1171.2194,847.685 1171.86,847.8413 Q1172.5163,847.9975 1173.0788,848.2944 L1173.0788,851.0131 Q1172.4538,850.435 1171.86,850.1694 Q1171.2663,849.8881 1170.6413,849.8881 Q1169.2975,849.8881 1168.61,850.9663 Q1167.9225,852.0288 1167.9225,854.1225 Q1167.9225,856.2163 1168.61,857.2944 Q1169.2975,858.3569 1170.6413,858.3569 Q1171.2663,858.3569 1171.86,858.0913 Q1172.4538,857.81 1173.0788,857.2319 L1173.0788,859.9506 Z " fill="#000000"/><text fill="#000000" font-family="sans-serif" font-size="14" lengthAdjust="spacing" textLength="67.6416" x="1184.11" y="859.1567">Avaliacao</text><line style="stroke:#181818;stroke-width:0.5;" x1="1156.11" x2="1253.7516" y1="870.31" y2="870.31"/><line style="stroke:#181818;stroke-width:0.5;" x1="1156.11" x2="1253.7516" y1="878.31" y2="878.31"/></g><!--class EmailNotificationService--><g class="entity" data-entity="EmailNotificationService" data-source-line="98" data-uid="ent0017" id="entity_EmailNotificationService"><rect fill="#F1F1F1" height="80.5938" rx="2.5" ry="2.5" style="stroke:#181818;stroke-width:0.5;" width="509.5264" x="192.17" y="335.71"/><ellipse cx="357.2271" cy="351.71" fill="#B4A7E5" rx="11" ry="11" style="stroke:#181818;stroke-width:1;"/><path d="M353.149,347.4756 L353.149,345.3194 L360.5396,345.3194 L360.5396,347.4756 L358.0709,347.4756 L358.0709,355.5537 L360.5396,355.5537 L360.5396,357.71 L353.149,357.71 L353.149,355.5537 L355.6178,355.5537 L355.6178,347.4756 L353.149,347.4756 Z " fill="#000000"/><text fill="#000000" font-family="sans-serif" font-size="14" font-style="italic" lengthAdjust="spacing" textLength="170.9121" x="377.7271" y="356.5567">EmailNotificationService</text><line style="stroke:#181818;stroke-width:0.5;" x1="193.17" x2="700.6964" y1="367.71" y2="367.71"/><line style="stroke:#181818;stroke-width:0.5;" x1="193.17" x2="700.6964" y1="375.71" y2="375.71"/><ellipse cx="203.17" cy="389.3584" fill="#84BE84" rx="3" ry="3" style="stroke:#038048;stroke-width:1;"/><text fill="#000000" font-family="sans-serif" font-size="14" lengthAdjust="spacing" textLength="430.5957" x="212.17" y="392.7051">SendNotification(to: string, subject: string, body: string): void</text><ellipse cx="203.17" cy="405.6553" fill="#84BE84" rx="3" ry="3" style="stroke:#038048;stroke-width:1;"/><text fill="#000000" font-family="sans-serif" font-size="14" lengthAdjust="spacing" textLength="483.5264" x="212.17" y="409.002">SendBulkNotification(recipients: List&lt;string&gt;, template: string): void</text></g><!--reverse link Candidato to Documento--><g class="link" data-entity-1="Candidato" data-entity-2="Documento" data-source-line="90" data-uid="lnk10" id="link_Candidato_Documento"><path codeLine="90" d="M863.1875,485.7762 C862.5675,510.3662 862.2,524.9 861.57,549.87" fill="none" id="Candidato-backto-Documento" style="stroke:#181818;stroke-width:1;"/><polygon fill="#181818" points="863.49,473.78,859.34,479.6773,863.1875,485.7762,867.3375,479.8789,863.49,473.78" style="stroke:#181818;stroke-width:1;"/><text fill="#000000" font-family="sans-serif" font-size="13" lengthAdjust="spacing" textLength="41.6025" x="863.64" y="516.4069">possui</text><text fill="#000000" font-family="sans-serif" font-size="13" lengthAdjust="spacing" textLength="8.271" x="855.0466" y="493.2536">1</text><text fill="#000000" font-family="sans-serif" font-size="13" lengthAdjust="spacing" textLength="23.0356" x="837.9757" y="539.3186">0..*</text></g><!--link Candidato to Barema--><g class="link" data-entity-1="Candidato" data-entity-2="Barema" data-source-line="91" data-uid="lnk11" id="link_Candidato_Barema"><path codeLine="91" d="M984.02,473.78 C1014.02,498.37 1046.39,524.9 1076.86,549.87" fill="none" id="Candidato-Barema" style="stroke:#181818;stroke-width:1;"/><text fill="#000000" font-family="sans-serif" font-size="13" lengthAdjust="spacing" textLength="92.8345" x="1036.43" y="516.4069">&#233; avaliado por</text><text fill="#000000" font-family="sans-serif" font-size="13" lengthAdjust="spacing" textLength="8.271" x="984.0514" y="493.2536">1</text><text fill="#000000" font-family="sans-serif" font-size="13" lengthAdjust="spacing" textLength="23.0356" x="1044.4837" y="539.3186">1..*</text></g><!--link Avaliador to Barema--><g class="link" data-entity-1="Avaliador" data-entity-2="Barema" data-source-line="92" data-uid="lnk12" id="link_Avaliador_Barema"><path codeLine="92" d="M1204.93,473.78 C1204.93,498.37 1204.93,524.9 1204.93,549.87" fill="none" id="Avaliador-Barema" style="stroke:#181818;stroke-width:1;"/><text fill="#000000" font-family="sans-serif" font-size="13" lengthAdjust="spacing" textLength="61.2168" x="1205.93" y="516.4069">preenche</text><text fill="#000000" font-family="sans-serif" font-size="13" lengthAdjust="spacing" textLength="8.271" x="1196.6582" y="493.2536">1</text><text fill="#000000" font-family="sans-serif" font-size="13" lengthAdjust="spacing" textLength="23.0356" x="1181.1584" y="539.3186">0..*</text></g><!--link Barema to Avaliacao--><g class="link" data-entity-1="Barema" data-entity-2="Avaliacao" data-source-line="93" data-uid="lnk14" id="link_Barema_Avaliacao"><path codeLine="93" d="M1204.93,761.76 C1204.93,790.4 1204.93,818.75 1204.93,837.83" fill="none" id="Barema-Avaliacao" style="stroke:#181818;stroke-width:1;"/><text fill="#000000" font-family="sans-serif" font-size="13" lengthAdjust="spacing" textLength="49.0991" x="1205.93" y="804.3769">cont&#233;m</text><text fill="#000000" font-family="sans-serif" font-size="13" lengthAdjust="spacing" textLength="8.271" x="1196.6702" y="781.4528">1</text><text fill="#000000" font-family="sans-serif" font-size="13" lengthAdjust="spacing" textLength="8.271" x="1195.9878" y="827.118">1</text></g><!--reverse link ProcessoSelecao to Candidato--><g class="link" data-entity-1="ProcessoSelecao" data-entity-2="Candidato" data-source-line="94" data-uid="lnk15" id="link_ProcessoSelecao_Candidato"><path codeLine="94" d="M968.6399,212.0808 C953.0099,236.8708 942.6,253.38 926.97,278.18" fill="none" id="ProcessoSelecao-backto-Candidato" style="stroke:#181818;stroke-width:1;"/><polygon fill="#181818" points="975.04,201.93,968.4564,204.8721,968.6399,212.0808,975.2236,209.1388,975.04,201.93" style="stroke:#181818;stroke-width:1;"/><text fill="#000000" font-family="sans-serif" font-size="13" lengthAdjust="spacing" textLength="34.4614" x="957.03" y="244.7369">inclui</text><text fill="#000000" font-family="sans-serif" font-size="13" lengthAdjust="spacing" textLength="8.271" x="962.2848" y="221.7196">1</text><text fill="#000000" font-family="sans-serif" font-size="13" lengthAdjust="spacing" textLength="23.0356" x="907.6093" y="267.5169">0..*</text></g><!--reverse link ProcessoSelecao to Avaliador--><g class="link" data-entity-1="ProcessoSelecao" data-entity-2="Avaliador" data-source-line="95" data-uid="lnk16" id="link_ProcessoSelecao_Avaliador"><path codeLine="95" d="M1102.8336,212.0974 C1118.3736,236.8874 1128.71,253.38 1144.25,278.18" fill="none" id="ProcessoSelecao-backto-Avaliador" style="stroke:#181818;stroke-width:1;"/><polygon fill="#181818" points="1096.46,201.93,1096.2577,209.1383,1102.8336,212.0974,1103.036,204.8892,1096.46,201.93" style="stroke:#181818;stroke-width:1;"/><text fill="#000000" font-family="sans-serif" font-size="13" lengthAdjust="spacing" textLength="51.0923" x="1126.5" y="244.7369">designa</text><text fill="#000000" font-family="sans-serif" font-size="13" lengthAdjust="spacing" textLength="8.271" x="1092.6216" y="221.7196">1</text><text fill="#000000" font-family="sans-serif" font-size="13" lengthAdjust="spacing" textLength="23.0356" x="1115.9505" y="267.5169">0..*</text></g><!--SRC=[bLN1Jjmm4BtdAwozG2aWk4O82NQXHO9g1PJxh3F0qCHERMS5HNnFnNVmOnqxTh89Yzfo03nlF9vvysQo8QObM8jMr8QKf1h8PjARn1HKGGKuBPupmJyxWefSb5hTnQFI5UR2EhwOJ1NmIJObZEnO0PKZ6nY4ETgV3TcnktNW6di39RylGUVYQcY8RfmSJA40lii-Ct1uJHKo6F3FelKtCosR2fNJTlDJBXPQbn6VGkbpDNEjNEFZUlosrE2oboooq5t-Y0L7DJz-pRyxrnL-ZWpNjzIZ-YHKfExrkPOmPkKUxFrAuGFCr_kzvloAGRKUMeOhXLwfZxkX7RzzYGz8ms297pHqov0vKmxlZ0-08ufE7fq1CXVem8SF3Cv8Ej8ApDD16t4xHZxqjA5ggY4TaRclP9rcTUWJApMp7enJNTL6Bu4Jk4ZQQG4m3dnUAlLxsfY0DzKvE8UzroLAPbgroaWPZ1GJSvYp6wVKNhw9d8L3OCcbqqbrf1Yrs0lXo5FCkFcFSLWd-rulNSILWJYnDKfY-wyr_ITb7Rc6tYFWWiXYusBlvWQPlNiqnnovWir5-9EBziYDN6egekyvDmTCcv7KQ1DHeU4UF8WOw66NnxJubXaLMNni_-yuR5_-Y42P5axUxvvKNteb5sFMf25-XRHTAymmpOTTXnoSal8prqvvQzOBYsOPobupS9552b9-DtVjfaeBggslxq1QCD_Im_s26MmeFmKbkcPb_3hEvaPBj5PVOOczaFz5VJxxCqMItgVjeLEgrgoHEx0pihLMj4JYmaYvjQMcjFfYmrEyJ2EmEHHOA9zL_H7-1GsOIop1xuW0TWVFnKOuIj_TTfLd_UTfiZyHMpixOhAtkxirMTdOkQYrjGsDVBthVd2DUip5ssidCRvZibxLwSBUy48TPokBbYxkH7I3mcwIlonlhrKsRk8evJu_JxWiEUM_tEWJp4M1bkuKU9B2zDq2tsIhyBAcjzywesJcnSORYUKOzhuVbYllmy1pxCCL3_uglkcwNSDhlbaye7IzOQ6BftGQzjF7EMxA7uDOXdTRJTmR6vTA_6vi2uSy0Qp5SR2NFm00]--></g></svg>