<svg xmlns="http://www.w3.org/2000/svg" xmlns:xlink="http://www.w3.org/1999/xlink" contentStyleType="text/css" data-diagram-type="DESCRIPTION" height="1091px" preserveAspectRatio="none" style="width:1491px;height:1091px;background:#FFFFFF;" version="1.1" viewBox="0 0 1491 1091" width="1491px" zoomAndPan="magnify"><defs/><g><!--cluster Sistema de Sele??o IC/Pesquisa--><g class="cluster" data-entity="Sistema de Sele..o IC.Pesquisa" data-source-line="1" data-uid="ent0002" id="cluster_Sistema de Sele..o IC.Pesquisa"><path d="M8.5,6 L259.5654,6 A3.75,3.75 0 0 1 262.0654,8.5 L269.0654,28.2969 L1481.5,28.2969 A2.5,2.5 0 0 1 1484,30.7969 L1484,1081.58 A2.5,2.5 0 0 1 1481.5,1084.08 L8.5,1084.08 A2.5,2.5 0 0 1 6,1081.58 L6,8.5 A2.5,2.5 0 0 1 8.5,6" fill="none" style="stroke:#000000;stroke-width:1.5;"/><line style="stroke:#000000;stroke-width:1.5;" x1="6" x2="269.0654" y1="28.2969" y2="28.2969"/><text fill="#000000" font-family="sans-serif" font-size="14" font-weight="bold" lengthAdjust="spacing" textLength="250.0654" x="10" y="20.9951">Sistema de Sele&#231;&#227;o IC/Pesquisa</text></g><!--cluster ModCad--><g class="cluster" data-entity="ModCad" data-source-line="6" data-uid="ent0005" id="cluster_ModCad"><rect fill="none" height="113.3" rx="2.5" ry="2.5" style="stroke:#181818;stroke-width:1;" width="448" x="148" y="620.19"/><rect fill="none" height="10" style="stroke:#181818;stroke-width:1;" width="15" x="576" y="625.19"/><rect fill="none" height="2" style="stroke:#181818;stroke-width:1;" width="4" x="574" y="627.19"/><rect fill="none" height="2" style="stroke:#181818;stroke-width:1;" width="4" x="574" y="631.19"/><text fill="#000000" font-family="sans-serif" font-size="14" font-weight="bold" lengthAdjust="spacing" textLength="133.5674" x="305.2163" y="646.1851">M&#243;dulo Cadastro</text></g><!--cluster ModAv--><g class="cluster" data-entity="ModAv" data-source-line="11" data-uid="ent0008" id="cluster_ModAv"><rect fill="none" height="273.59" rx="2.5" ry="2.5" style="stroke:#181818;stroke-width:1;" width="416" x="180" y="281.6"/><rect fill="none" height="10" style="stroke:#181818;stroke-width:1;" width="15" x="576" y="286.6"/><rect fill="none" height="2" style="stroke:#181818;stroke-width:1;" width="4" x="574" y="288.6"/><rect fill="none" height="2" style="stroke:#181818;stroke-width:1;" width="4" x="574" y="292.6"/><text fill="#000000" font-family="sans-serif" font-size="14" font-weight="bold" lengthAdjust="spacing" textLength="138.6465" x="318.6768" y="307.5951">M&#243;dulo Avalia&#231;&#227;o</text></g><!--cluster ModProc--><g class="cluster" data-entity="ModProc" data-source-line="17" data-uid="ent0012" id="cluster_ModProc"><rect fill="none" height="273.59" rx="2.5" ry="2.5" style="stroke:#181818;stroke-width:1;" width="370" x="1082" y="281.6"/><rect fill="none" height="10" style="stroke:#181818;stroke-width:1;" width="15" x="1432" y="286.6"/><rect fill="none" height="2" style="stroke:#181818;stroke-width:1;" width="4" x="1430" y="288.6"/><rect fill="none" height="2" style="stroke:#181818;stroke-width:1;" width="4" x="1430" y="292.6"/><text fill="#000000" font-family="sans-serif" font-size="14" font-weight="bold" lengthAdjust="spacing" textLength="133.6904" x="1200.1548" y="307.5951">M&#243;dulo Processo</text></g><!--cluster ModNot--><g class="cluster" data-entity="ModNot" data-source-line="23" data-uid="ent0016" id="cluster_ModNot"><rect fill="none" height="291.6" rx="2.5" ry="2.5" style="stroke:#181818;stroke-width:1;" width="396" x="636" y="441.89"/><rect fill="none" height="10" style="stroke:#181818;stroke-width:1;" width="15" x="1012" y="446.89"/><rect fill="none" height="2" style="stroke:#181818;stroke-width:1;" width="4" x="1010" y="448.89"/><rect fill="none" height="2" style="stroke:#181818;stroke-width:1;" width="4" x="1010" y="452.89"/><text fill="#000000" font-family="sans-serif" font-size="14" font-weight="bold" lengthAdjust="spacing" textLength="151.6553" x="758.1724" y="467.8851">M&#243;dulo Notifica&#231;&#227;o</text></g><!--cluster DB--><g class="cluster" data-entity="DB" data-source-line="29" data-uid="ent0020" id="cluster_DB"><path d="M696,808.49 C696,798.49 922,798.49 922,798.49 C922,798.49 1148,798.49 1148,808.49 L1148,1042.08 C1148,1052.08 922,1052.08 922,1052.08 C922,1052.08 696,1052.08 696,1042.08 L696,808.49" fill="none" style="stroke:#181818;stroke-width:1;"/><path d="M696,808.49 C696,818.49 922,818.49 922,818.49 C922,818.49 1148,818.49 1148,808.49" fill="none" style="stroke:#181818;stroke-width:1;"/><text fill="#000000" font-family="sans-serif" font-size="14" font-weight="bold" lengthAdjust="spacing" textLength="126.3076" x="858.8462" y="833.4851">Banco de Dados</text></g><!--cluster Storage--><g class="cluster" data-entity="Storage" data-source-line="35" data-uid="ent0024" id="cluster_Storage"><polygon fill="none" points="242,818.49,252,808.49,632,808.49,632,916.78,622,926.78,242,926.78,242,818.49" style="stroke:#181818;stroke-width:1;"/><line style="stroke:#181818;stroke-width:1;" x1="622" x2="632" y1="818.49" y2="808.49"/><line style="stroke:#181818;stroke-width:1;" x1="242" x2="622" y1="818.49" y2="818.49"/><line style="stroke:#181818;stroke-width:1;" x1="622" x2="622" y1="818.49" y2="926.78"/><text fill="#000000" font-family="sans-serif" font-size="14" font-weight="bold" lengthAdjust="spacing" textLength="221.8945" x="322.0527" y="834.4851">Sistema de Armazenamento</text></g><!--entity Frontend--><g class="entity" data-entity="Frontend" data-source-line="3" data-uid="ent0003" id="entity_Frontend"><rect fill="#F1F1F1" height="46.2969" rx="2.5" ry="2.5" style="stroke:#181818;stroke-width:0.5;" width="138.9023" x="518.55" y="41"/><rect fill="#F1F1F1" height="10" style="stroke:#181818;stroke-width:0.5;" width="15" x="637.4523" y="46"/><rect fill="#F1F1F1" height="2" style="stroke:#181818;stroke-width:0.5;" width="4" x="635.4523" y="48"/><rect fill="#F1F1F1" height="2" style="stroke:#181818;stroke-width:0.5;" width="4" x="635.4523" y="52"/><text fill="#000000" font-family="sans-serif" font-size="14" lengthAdjust="spacing" textLength="98.9023" x="533.55" y="73.9951">Frontend Web</text></g><!--entity Gateway--><g class="entity" data-entity="Gateway" data-source-line="4" data-uid="ent0004" id="entity_Gateway"><rect fill="#F1F1F1" height="46.2969" rx="2.5" ry="2.5" style="stroke:#181818;stroke-width:0.5;" width="128.4434" x="523.78" y="164.3"/><rect fill="#F1F1F1" height="10" style="stroke:#181818;stroke-width:0.5;" width="15" x="632.2234" y="169.3"/><rect fill="#F1F1F1" height="2" style="stroke:#181818;stroke-width:0.5;" width="4" x="630.2234" y="171.3"/><rect fill="#F1F1F1" height="2" style="stroke:#181818;stroke-width:0.5;" width="4" x="630.2234" y="175.3"/><text fill="#000000" font-family="sans-serif" font-size="14" lengthAdjust="spacing" textLength="88.4434" x="538.78" y="197.2951">API Gateway</text></g><g class="entity" data-entity="GMN40" data-source-line="60" data-uid="ent0041" id="entity_GMN40"><path d="M21.65,859.5 L21.65,899.7656 L218.3404,899.7656 L218.3404,869.5 L208.3404,859.5 L21.65,859.5" fill="#FEFFDD" style="stroke:#181818;stroke-width:0.5;"/><path d="M208.3404,859.5 L208.3404,869.5 L218.3404,869.5 L208.3404,859.5" fill="#FEFFDD" style="stroke:#181818;stroke-width:1;"/><text fill="#000000" font-family="sans-serif" font-size="13" font-weight="bold" lengthAdjust="spacing" textLength="175.6904" x="27.65" y="876.5669">Provedores suportados:</text><text fill="#000000" font-family="sans-serif" font-size="13" lengthAdjust="spacing" textLength="94.1104" x="27.65" y="891.6997">- Storage local</text></g><!--entity Candidato Service--><g class="entity" data-entity="Candidato Service" data-source-line="7" data-uid="ent0006" id="entity_Candidato Service"><rect fill="#F1F1F1" height="46.2969" rx="2.5" ry="2.5" style="stroke:#181818;stroke-width:0.5;" width="167.7158" x="172.14" y="663.19"/><rect fill="#F1F1F1" height="10" style="stroke:#181818;stroke-width:0.5;" width="15" x="319.8558" y="668.19"/><rect fill="#F1F1F1" height="2" style="stroke:#181818;stroke-width:0.5;" width="4" x="317.8558" y="670.19"/><rect fill="#F1F1F1" height="2" style="stroke:#181818;stroke-width:0.5;" width="4" x="317.8558" y="674.19"/><text fill="#000000" font-family="sans-serif" font-size="14" lengthAdjust="spacing" textLength="127.7158" x="187.14" y="696.1851">Candidato Service</text></g><!--entity Documento Service--><g class="entity" data-entity="Documento Service" data-source-line="8" data-uid="ent0007" id="entity_Documento Service"><rect fill="#F1F1F1" height="46.2969" rx="2.5" ry="2.5" style="stroke:#181818;stroke-width:0.5;" width="177.2861" x="375.36" y="663.19"/><rect fill="#F1F1F1" height="10" style="stroke:#181818;stroke-width:0.5;" width="15" x="532.6461" y="668.19"/><rect fill="#F1F1F1" height="2" style="stroke:#181818;stroke-width:0.5;" width="4" x="530.6461" y="670.19"/><rect fill="#F1F1F1" height="2" style="stroke:#181818;stroke-width:0.5;" width="4" x="530.6461" y="674.19"/><text fill="#000000" font-family="sans-serif" font-size="14" lengthAdjust="spacing" textLength="137.2861" x="390.36" y="696.1851">Documento Service</text></g><!--entity Avaliador Service--><g class="entity" data-entity="Avaliador Service" data-source-line="12" data-uid="ent0009" id="entity_Avaliador Service"><rect fill="#F1F1F1" height="46.2969" rx="2.5" ry="2.5" style="stroke:#181818;stroke-width:0.5;" width="162.1992" x="203.9" y="324.6"/><rect fill="#F1F1F1" height="10" style="stroke:#181818;stroke-width:0.5;" width="15" x="346.0992" y="329.6"/><rect fill="#F1F1F1" height="2" style="stroke:#181818;stroke-width:0.5;" width="4" x="344.0992" y="331.6"/><rect fill="#F1F1F1" height="2" style="stroke:#181818;stroke-width:0.5;" width="4" x="344.0992" y="335.6"/><text fill="#000000" font-family="sans-serif" font-size="14" lengthAdjust="spacing" textLength="122.1992" x="218.9" y="357.5951">Avaliador Service</text></g><!--entity Barema Service--><g class="entity" data-entity="Barema Service" data-source-line="13" data-uid="ent0010" id="entity_Barema Service"><rect fill="#F1F1F1" height="46.2969" rx="2.5" ry="2.5" style="stroke:#181818;stroke-width:0.5;" width="150.9609" x="401.52" y="324.6"/><rect fill="#F1F1F1" height="10" style="stroke:#181818;stroke-width:0.5;" width="15" x="532.4809" y="329.6"/><rect fill="#F1F1F1" height="2" style="stroke:#181818;stroke-width:0.5;" width="4" x="530.4809" y="331.6"/><rect fill="#F1F1F1" height="2" style="stroke:#181818;stroke-width:0.5;" width="4" x="530.4809" y="335.6"/><text fill="#000000" font-family="sans-serif" font-size="14" lengthAdjust="spacing" textLength="110.9609" x="416.52" y="357.5951">Barema Service</text></g><!--entity Calculadora Notas--><g class="entity" data-entity="Calculadora Notas" data-source-line="14" data-uid="ent0011" id="entity_Calculadora Notas"><rect fill="#F1F1F1" height="46.2969" rx="2.5" ry="2.5" style="stroke:#181818;stroke-width:0.5;" width="167.9209" x="294.04" y="484.89"/><rect fill="#F1F1F1" height="10" style="stroke:#181818;stroke-width:0.5;" width="15" x="441.9609" y="489.89"/><rect fill="#F1F1F1" height="2" style="stroke:#181818;stroke-width:0.5;" width="4" x="439.9609" y="491.89"/><rect fill="#F1F1F1" height="2" style="stroke:#181818;stroke-width:0.5;" width="4" x="439.9609" y="495.89"/><text fill="#000000" font-family="sans-serif" font-size="14" lengthAdjust="spacing" textLength="127.9209" x="309.04" y="517.8851">Calculadora Notas</text></g><!--entity Workflow Engine--><g class="entity" data-entity="Workflow Engine" data-source-line="18" data-uid="ent0013" id="entity_Workflow Engine"><rect fill="#F1F1F1" height="46.2969" rx="2.5" ry="2.5" style="stroke:#181818;stroke-width:0.5;" width="157.5371" x="1125.23" y="324.6"/><rect fill="#F1F1F1" height="10" style="stroke:#181818;stroke-width:0.5;" width="15" x="1262.7671" y="329.6"/><rect fill="#F1F1F1" height="2" style="stroke:#181818;stroke-width:0.5;" width="4" x="1260.7671" y="331.6"/><rect fill="#F1F1F1" height="2" style="stroke:#181818;stroke-width:0.5;" width="4" x="1260.7671" y="335.6"/><text fill="#000000" font-family="sans-serif" font-size="14" lengthAdjust="spacing" textLength="117.5371" x="1140.23" y="357.5951">Workflow Engine</text></g><!--entity Scheduler--><g class="entity" data-entity="Scheduler" data-source-line="19" data-uid="ent0014" id="entity_Scheduler"><rect fill="#F1F1F1" height="46.2969" rx="2.5" ry="2.5" style="stroke:#181818;stroke-width:0.5;" width="110.0889" x="1317.96" y="324.6"/><rect fill="#F1F1F1" height="10" style="stroke:#181818;stroke-width:0.5;" width="15" x="1408.0489" y="329.6"/><rect fill="#F1F1F1" height="2" style="stroke:#181818;stroke-width:0.5;" width="4" x="1406.0489" y="331.6"/><rect fill="#F1F1F1" height="2" style="stroke:#181818;stroke-width:0.5;" width="4" x="1406.0489" y="335.6"/><text fill="#000000" font-family="sans-serif" font-size="14" lengthAdjust="spacing" textLength="70.0889" x="1332.96" y="357.5951">Scheduler</text></g><!--entity Relat?rio Service--><g class="entity" data-entity="Relat.rio Service" data-source-line="20" data-uid="ent0015" id="entity_Relat.rio Service"><rect fill="#F1F1F1" height="46.2969" rx="2.5" ry="2.5" style="stroke:#181818;stroke-width:0.5;" width="159.2666" x="1136.37" y="484.89"/><rect fill="#F1F1F1" height="10" style="stroke:#181818;stroke-width:0.5;" width="15" x="1275.6366" y="489.89"/><rect fill="#F1F1F1" height="2" style="stroke:#181818;stroke-width:0.5;" width="4" x="1273.6366" y="491.89"/><rect fill="#F1F1F1" height="2" style="stroke:#181818;stroke-width:0.5;" width="4" x="1273.6366" y="495.89"/><text fill="#000000" font-family="sans-serif" font-size="14" lengthAdjust="spacing" textLength="119.2666" x="1151.37" y="517.8851">Relat&#243;rio Service</text></g><!--entity Email Service--><g class="entity" data-entity="Email Service" data-source-line="24" data-uid="ent0017" id="entity_Email Service"><rect fill="#F1F1F1" height="46.2969" rx="2.5" ry="2.5" style="stroke:#181818;stroke-width:0.5;" width="135.0332" x="679.48" y="484.89"/><rect fill="#F1F1F1" height="10" style="stroke:#181818;stroke-width:0.5;" width="15" x="794.5132" y="489.89"/><rect fill="#F1F1F1" height="2" style="stroke:#181818;stroke-width:0.5;" width="4" x="792.5132" y="491.89"/><rect fill="#F1F1F1" height="2" style="stroke:#181818;stroke-width:0.5;" width="4" x="792.5132" y="495.89"/><text fill="#000000" font-family="sans-serif" font-size="14" lengthAdjust="spacing" textLength="95.0332" x="694.48" y="517.8851">Email Service</text></g><!--entity Template Engine--><g class="entity" data-entity="Template Engine" data-source-line="25" data-uid="ent0018" id="entity_Template Engine"><rect fill="#F1F1F1" height="46.2969" rx="2.5" ry="2.5" style="stroke:#181818;stroke-width:0.5;" width="158.6924" x="849.65" y="484.89"/><rect fill="#F1F1F1" height="10" style="stroke:#181818;stroke-width:0.5;" width="15" x="988.3424" y="489.89"/><rect fill="#F1F1F1" height="2" style="stroke:#181818;stroke-width:0.5;" width="4" x="986.3424" y="491.89"/><rect fill="#F1F1F1" height="2" style="stroke:#181818;stroke-width:0.5;" width="4" x="986.3424" y="495.89"/><text fill="#000000" font-family="sans-serif" font-size="14" lengthAdjust="spacing" textLength="118.6924" x="864.65" y="517.8851">Template Engine</text></g><!--entity Queue Manager--><g class="entity" data-entity="Queue Manager" data-source-line="26" data-uid="ent0019" id="entity_Queue Manager"><rect fill="#F1F1F1" height="46.2969" rx="2.5" ry="2.5" style="stroke:#181818;stroke-width:0.5;" width="151.8086" x="679.1" y="663.19"/><rect fill="#F1F1F1" height="10" style="stroke:#181818;stroke-width:0.5;" width="15" x="810.9086" y="668.19"/><rect fill="#F1F1F1" height="2" style="stroke:#181818;stroke-width:0.5;" width="4" x="808.9086" y="670.19"/><rect fill="#F1F1F1" height="2" style="stroke:#181818;stroke-width:0.5;" width="4" x="808.9086" y="674.19"/><text fill="#000000" font-family="sans-serif" font-size="14" lengthAdjust="spacing" textLength="111.8086" x="694.1" y="696.1851">Queue Manager</text></g><!--entity Tabela Candidatos--><g class="entity" data-entity="Tabela Candidatos" data-source-line="30" data-uid="ent0021" id="entity_Tabela Candidatos"><rect fill="#F1F1F1" height="46.2969" rx="2.5" ry="2.5" style="stroke:#181818;stroke-width:0.5;" width="170.3682" x="719.82" y="856.49"/><rect fill="#F1F1F1" height="10" style="stroke:#181818;stroke-width:0.5;" width="15" x="870.1882" y="861.49"/><rect fill="#F1F1F1" height="2" style="stroke:#181818;stroke-width:0.5;" width="4" x="868.1882" y="863.49"/><rect fill="#F1F1F1" height="2" style="stroke:#181818;stroke-width:0.5;" width="4" x="868.1882" y="867.49"/><text fill="#000000" font-family="sans-serif" font-size="14" lengthAdjust="spacing" textLength="130.3682" x="734.82" y="889.4851">Tabela Candidatos</text></g><!--entity Tabela Documentos--><g class="entity" data-entity="Tabela Documentos" data-source-line="31" data-uid="ent0022" id="entity_Tabela Documentos"><rect fill="#F1F1F1" height="46.2969" rx="2.5" ry="2.5" style="stroke:#181818;stroke-width:0.5;" width="179.9385" x="925.03" y="856.49"/><rect fill="#F1F1F1" height="10" style="stroke:#181818;stroke-width:0.5;" width="15" x="1084.9685" y="861.49"/><rect fill="#F1F1F1" height="2" style="stroke:#181818;stroke-width:0.5;" width="4" x="1082.9685" y="863.49"/><rect fill="#F1F1F1" height="2" style="stroke:#181818;stroke-width:0.5;" width="4" x="1082.9685" y="867.49"/><text fill="#000000" font-family="sans-serif" font-size="14" lengthAdjust="spacing" textLength="139.9385" x="940.03" y="889.4851">Tabela Documentos</text></g><!--entity Tabela Avalia??es--><g class="entity" data-entity="Tabela Avalia..es" data-source-line="32" data-uid="ent0023" id="entity_Tabela Avalia..es"><rect fill="#F1F1F1" height="46.2969" rx="2.5" ry="2.5" style="stroke:#181818;stroke-width:0.5;" width="166.5195" x="721.74" y="981.78"/><rect fill="#F1F1F1" height="10" style="stroke:#181818;stroke-width:0.5;" width="15" x="868.2595" y="986.78"/><rect fill="#F1F1F1" height="2" style="stroke:#181818;stroke-width:0.5;" width="4" x="866.2595" y="988.78"/><rect fill="#F1F1F1" height="2" style="stroke:#181818;stroke-width:0.5;" width="4" x="866.2595" y="992.78"/><text fill="#000000" font-family="sans-serif" font-size="14" lengthAdjust="spacing" textLength="126.5195" x="736.74" y="1014.7751">Tabela Avalia&#231;&#245;es</text></g><!--entity Arquivos ZIP--><g class="entity" data-entity="Arquivos ZIP" data-source-line="36" data-uid="ent0025" id="entity_Arquivos ZIP"><rect fill="#F1F1F1" height="46.2969" rx="2.5" ry="2.5" style="stroke:#181818;stroke-width:0.5;" width="127.7393" x="266.13" y="856.49"/><rect fill="#F1F1F1" height="10" style="stroke:#181818;stroke-width:0.5;" width="15" x="373.8693" y="861.49"/><rect fill="#F1F1F1" height="2" style="stroke:#181818;stroke-width:0.5;" width="4" x="371.8693" y="863.49"/><rect fill="#F1F1F1" height="2" style="stroke:#181818;stroke-width:0.5;" width="4" x="371.8693" y="867.49"/><text fill="#000000" font-family="sans-serif" font-size="14" lengthAdjust="spacing" textLength="87.7393" x="281.13" y="889.4851">Arquivos ZIP</text></g><!--entity Documentos PDF--><g class="entity" data-entity="Documentos PDF" data-source-line="37" data-uid="ent0026" id="entity_Documentos PDF"><rect fill="#F1F1F1" height="46.2969" rx="2.5" ry="2.5" style="stroke:#181818;stroke-width:0.5;" width="160.1143" x="428.94" y="856.49"/><rect fill="#F1F1F1" height="10" style="stroke:#181818;stroke-width:0.5;" width="15" x="569.0543" y="861.49"/><rect fill="#F1F1F1" height="2" style="stroke:#181818;stroke-width:0.5;" width="4" x="567.0543" y="863.49"/><rect fill="#F1F1F1" height="2" style="stroke:#181818;stroke-width:0.5;" width="4" x="567.0543" y="867.49"/><text fill="#000000" font-family="sans-serif" font-size="14" lengthAdjust="spacing" textLength="120.1143" x="443.94" y="889.4851">Documentos PDF</text></g><!--link Frontend to Gateway--><g class="link" data-entity-1="Frontend" data-entity-2="Gateway" data-source-line="41" data-uid="lnk27" id="link_Frontend_Gateway"><path d="M588,87.68 C588,109.47 588,136.29 588,158.04" fill="none" id="Frontend-to-Gateway" style="stroke:#181818;stroke-width:1;"/><polygon fill="#181818" points="588,164.04,592,155.04,588,159.04,584,155.04,588,164.04" style="stroke:#181818;stroke-width:1;"/><text fill="#000000" font-family="sans-serif" font-size="13" lengthAdjust="spacing" textLength="79.625" x="589" y="130.3669">HTTP/HTTPS</text></g><!--link Gateway to ModCad--><g class="link" data-entity-1="Gateway" data-entity-2="ModCad" data-source-line="42" data-uid="lnk28" id="link_Gateway_ModCad"><path d="M523.36,192.65 C422.84,200.52 235.62,220.87 188,265.6 C142.73,308.12 160.84,339.28 153,400.89 C144.5,467.7 157.72,544.82 188,571.19 C252.09,626.99 504.75,548.56 569,604.19 C572.3913,607.1263 575.2398,610.5413 577.6275,614.276 C578.8213,616.1434 577.2816,612.6921 578.2552,614.6994" fill="none" id="Gateway-to-ModCad" style="stroke:#181818;stroke-width:1;"/><polygon fill="#181818" points="580.8734,620.098,580.5451,610.2547,578.6915,615.5992,573.347,613.7456,580.8734,620.098" style="stroke:#181818;stroke-width:1;"/><text fill="#000000" font-family="sans-serif" font-size="13" lengthAdjust="spacing" textLength="33.4395" x="154" y="413.9569">REST</text></g><!--link Gateway to ModAv--><g class="link" data-entity-1="Gateway" data-entity-2="ModAv" data-source-line="43" data-uid="lnk29" id="link_Gateway_ModAv"><path d="M588,210.79 C588,221.5275 588,235.2137 588,249.7472 C588,257.0139 588,264.4924 588,271.92 C588,273.7769 588,275.6307 588,277.4771 C588,278.4003 588,279.3217 588,280.2408 C588,280.4705 588,274.7002 588,274.9296" fill="none" id="Gateway-to-ModAv" style="stroke:#181818;stroke-width:1;"/><polygon fill="#181818" points="588,280.9296,592,271.9296,588,275.9296,584,271.9296,588,280.9296" style="stroke:#181818;stroke-width:1;"/><text fill="#000000" font-family="sans-serif" font-size="13" lengthAdjust="spacing" textLength="33.4395" x="589" y="253.6669">REST</text></g><!--link Gateway to ModProc--><g class="link" data-entity-1="Gateway" data-entity-2="ModProc" data-source-line="44" data-uid="lnk30" id="link_Gateway_ModProc"><path d="M652.6,208.82 C719.86,230.03 828.0325,264.14 919.9713,293.1312 C965.9406,307.6269 1007.8516,320.8428 1038.5608,330.5267 C1053.9154,335.3687 1066.4696,339.3276 1075.3304,342.122 C1077.5456,342.8206 1079.53,343.4464 1081.2696,343.9951 C1081.487,344.0636 1075.9785,342.3263 1076.1883,342.3925" fill="none" id="Gateway-to-ModProc" style="stroke:#181818;stroke-width:1;"/><polygon fill="#181818" points="1081.9104,344.1972,1074.5303,337.6754,1077.142,342.6933,1072.1241,345.3049,1081.9104,344.1972" style="stroke:#181818;stroke-width:1;"/><text fill="#000000" font-family="sans-serif" font-size="13" lengthAdjust="spacing" textLength="33.4395" x="795.04" y="253.6669">REST</text></g><!--link ModCad to DB--><g class="link" data-entity-1="ModCad" data-entity-2="DB" data-source-line="46" data-uid="lnk31" id="link_ModCad_DB"><path d="M596.192,697.2373 C596.2595,697.3146 596.3274,697.3922 596.3957,697.4701 C596.5322,697.626 596.6703,697.7832 596.8098,697.9417 C597.3679,698.5759 597.9497,699.2311 598.5544,699.9052 C599.7638,701.2535 601.0648,702.6776 602.4508,704.1606 C605.2228,707.1266 608.335,710.3284 611.735,713.6312 C625.335,726.8425 643.54,741.67 663,749.49 C674.84,754.24 1111.44,774.04 1121,782.49 C1125.0163,786.0387 1128.3317,790.1698 1131.0581,794.6863 C1131.7397,795.8154 1129.6195,791.6436 1130.2292,792.8178" fill="none" id="ModCad-to-DB" style="stroke:#181818;stroke-width:1;"/><polygon fill="#181818" points="1132.9941,798.1427,1132.3966,788.312,1130.69,793.7053,1125.2967,791.9986,1132.9941,798.1427" style="stroke:#181818;stroke-width:1;"/><text fill="#000000" font-family="sans-serif" font-size="13" lengthAdjust="spacing" textLength="31.8398" x="1042.91" y="770.5569">JDBC</text></g><!--link ModAv to DB--><g class="link" data-entity-1="ModAv" data-entity-2="DB" data-source-line="47" data-uid="lnk32" id="link_ModAv_DB"><path d="M596.0926,349.9164 C596.2421,349.9384 596.3935,349.9606 596.5468,349.9832 C601.454,350.7048 608.3373,351.7315 616.8409,353.0367 C633.8481,355.6472 657.3363,359.3719 684.4575,363.9987 C738.7,373.2525 807.475,386.115 868,400.89 C893.27,407.06 898.44,413.05 924,417.89 C945.9,422.04 1006.84,411.66 1024,425.89 C1039.8,439 1116.31,762.5 1121,782.49 C1122.2038,787.625 1122.1201,787.0632 1123.2834,792.4151" fill="none" id="ModAv-to-DB" style="stroke:#181818;stroke-width:1;"/><polygon fill="#181818" points="1124.5578,798.2782,1126.555,788.6339,1123.4958,793.3923,1118.7375,790.3331,1124.5578,798.2782" style="stroke:#181818;stroke-width:1;"/><text fill="#000000" font-family="sans-serif" font-size="13" lengthAdjust="spacing" textLength="31.8398" x="1075.66" y="592.2569">JDBC</text></g><!--link ModProc to DB--><g class="link" data-entity-1="ModProc" data-entity-2="DB" data-source-line="48" data-uid="lnk33" id="link_ModProc_DB"><path d="M1081.9282,392.7002 C1081.6265,394.9912 1081.3333,397.3485 1081.0524,399.7663 C1079.9288,409.4374 1079.0016,420.0766 1078.5113,431.3137 C1076.55,476.2625 1081.58,530.78 1109,571.19 C1113.46,577.77 1120.65,572.53 1125,579.19 C1160.865,634.1 1165.06,707.4975 1160.0713,767.8825 C1157.5769,798.075 1152.7866,825.0144 1148.5111,844.7631 C1148.3775,845.3803 1149.5323,840.1302 1149.3997,840.7332" fill="none" id="ModProc-to-DB" style="stroke:#181818;stroke-width:1;"/><polygon fill="#181818" points="1148.1119,846.5934,1153.9504,838.6617,1149.1851,841.7099,1146.1369,836.9446,1148.1119,846.5934" style="stroke:#181818;stroke-width:1;"/><text fill="#000000" font-family="sans-serif" font-size="13" lengthAdjust="spacing" textLength="31.8398" x="1135.27" y="592.2569">JDBC</text></g><!--link ModCad to Storage--><g class="link" data-entity-1="ModCad" data-entity-2="Storage" data-source-line="50" data-uid="lnk34" id="link_ModCad_Storage"><path d="M596.1012,730.3785 C596.1592,730.6866 596.2174,730.9958 596.2758,731.3061 C596.3925,731.9265 596.5101,732.5512 596.6283,733.1798 C597.5746,738.2086 598.5688,743.4922 599.595,748.9456 C601.6473,759.8524 603.8275,771.4384 606.0075,783.0237 C607.0975,788.8164 608.1875,794.6089 609.2614,800.3162 C609.5299,801.743 609.7973,803.1645 610.0636,804.5794 C610.1967,805.2868 610.3295,805.9926 610.4619,806.6965 C610.5282,807.0485 610.5943,807.4 610.6604,807.751 C610.6934,807.9266 609.6169,802.2054 609.6499,802.3807" fill="none" id="ModCad-to-Storage" style="stroke:#181818;stroke-width:1;"/><polygon fill="#181818" points="610.7594,808.2772,613.0261,798.6928,609.8348,803.3635,605.1641,800.1721,610.7594,808.2772" style="stroke:#181818;stroke-width:1;"/><text fill="#000000" font-family="sans-serif" font-size="13" lengthAdjust="spacing" textLength="139.2485" x="604.84" y="770.5569">API Upload/Download</text></g><!--link ModNot to Storage--><g class="link" data-entity-1="ModNot" data-entity-2="Storage" data-source-line="52" data-uid="lnk35" id="link_ModNot_Storage"><path d="M635.8771,518.7217 C635.6058,519.0284 635.3283,519.3406 635.0448,519.658 C634.4778,520.2929 633.8867,520.9489 633.2725,521.6237 C632.044,522.9735 630.7228,524.3991 629.3154,525.8835 C626.5008,528.8523 623.3419,532.0566 619.8925,535.3612 C606.095,548.58 587.65,563.405 568,571.19 C518.4,590.83 125.4,565.19 89,604.19 C44.93,651.39 44.82,702.39 89,749.49 C167.61,833.29 518.6,706.74 605,782.49 C609.03,786.0225 612.3559,790.1414 615.0901,794.6489 C616.4571,796.9027 617.6762,799.2536 618.7614,801.6769 C619.304,802.8886 619.8131,804.1184 620.2905,805.3632 C620.5292,805.9856 620.7599,806.6117 620.983,807.2413 C621.0945,807.556 619.2708,802.1916 619.3785,802.508" fill="none" id="ModNot-to-Storage" style="stroke:#181818;stroke-width:1;"/><polygon fill="#181818" points="621.3118,808.188,622.1984,798.3791,619.7007,803.4547,614.6251,800.9569,621.3118,808.188" style="stroke:#181818;stroke-width:1;"/><text fill="#000000" font-family="sans-serif" font-size="13" lengthAdjust="spacing" textLength="65.2793" x="90" y="690.9069">Gera links</text></g><!--link ModNot to ModCad--><g class="link" data-entity-1="ModNot" data-entity-2="ModCad" data-source-line="53" data-uid="lnk36" id="link_ModNot_ModCad"><path d="M635.9836,514.468 C635.8354,514.5738 635.6857,514.681 635.5343,514.7897 C635.2316,515.007 634.9225,515.23 634.6073,515.4587 C629.5641,519.1181 622.9569,524.225 615.9713,530.4725 C602,542.9675 586.515,560.025 579,579.19 C574.7475,590.0375 573.1331,601.9744 573.1159,613.8075 C573.1138,615.2866 573.1366,616.7642 573.1823,618.2377 C573.1938,618.6061 573.2066,618.9743 573.2209,619.3421 C573.228,619.5261 572.9801,613.7154 572.988,613.8991" fill="none" id="ModNot-to-ModCad" style="stroke:#181818;stroke-width:1;"/><polygon fill="#181818" points="573.2433,619.8937,576.8566,610.7316,573.0305,614.8982,568.8639,611.0721,573.2433,619.8937" style="stroke:#181818;stroke-width:1;"/><text fill="#000000" font-family="sans-serif" font-size="13" lengthAdjust="spacing" textLength="82.3735" x="580" y="592.2569">Busca dados</text></g><!--link ModNot to ModAv--><g class="link" data-entity-1="ModNot" data-entity-2="ModAv" data-source-line="54" data-uid="lnk37" id="link_ModNot_ModAv"><path d="M635.9863,488.777 C635.9391,488.6673 635.8917,488.5573 635.8442,488.4469 C635.7493,488.226 635.6537,488.0036 635.5575,487.7797 C634.019,484.1976 632.3316,480.2309 630.5488,475.9812 C623.4175,458.9825 614.76,437.455 608,417.89 C605.47,410.5675 602.9925,402.7362 600.6905,395.0722 C599.5395,391.2402 598.4323,387.4499 597.3844,383.786 C597.1224,382.87 596.8641,381.9619 596.6098,381.063 C596.4826,380.6136 596.3565,380.1664 596.2313,379.7218 C596.1687,379.4994 597.7283,385.0544 597.6662,384.8333" fill="none" id="ModNot-to-ModAv" style="stroke:#181818;stroke-width:1;"/><polygon fill="#181818" points="596.0443,379.0566,594.626,388.8028,597.3959,383.8705,602.3282,386.6404,596.0443,379.0566" style="stroke:#181818;stroke-width:1;"/><text fill="#000000" font-family="sans-serif" font-size="13" lengthAdjust="spacing" textLength="122.5098" x="609" y="413.9569">Notifica avalia&#231;&#245;es</text></g><!--link ModAv to ModNot--><g class="link" data-entity-1="ModAv" data-entity-2="ModNot" data-source-line="57" data-uid="lnk39" id="link_ModAv_ModNot"><path d="M596.0656,348.6527 C596.1843,348.6536 596.3041,348.6547 596.4251,348.6558 C597.3932,348.6647 598.435,348.6798 599.5456,348.703 C601.7669,348.7493 604.263,348.828 606.9934,348.9544 C617.915,349.46 632.5838,350.73 648.39,353.755 C680.0025,359.805 716.165,372.875 736,400.89 C740.37,407.06 741.04,412.27 736,417.89 C725.11,430.04 675.22,415.07 663,425.89 C659.6425,428.865 656.8195,432.3095 654.4509,436.0662 C653.8587,437.0054 653.2949,437.9641 652.7583,438.9399 C652.49,439.4277 652.2285,439.9199 651.9736,440.416 C651.8461,440.664 651.7203,440.913 651.5962,441.163 C651.5341,441.288 654.105,436.0217 654.0438,436.1471" fill="none" id="ModAv-to-ModNot" style="stroke:#181818;stroke-width:1;"/><polygon fill="#181818" points="651.4112,441.5387,658.9545,435.2064,653.605,437.0457,651.7657,431.6962,651.4112,441.5387" style="stroke:#181818;stroke-width:1;"/><text fill="#000000" font-family="sans-serif" font-size="13" lengthAdjust="spacing" textLength="118.8535" x="740.53" y="413.9569">Notifica conclus&#227;o</text></g><!--link ModProc to ModNot--><g class="link" data-entity-1="ModProc" data-entity-2="ModNot" data-source-line="56" data-uid="lnk38" id="link_ModProc_ModNot"><path d="M1081.9499,352.1048 C1081.4311,352.3182 1080.8888,352.5406 1080.3237,352.7718 C1079.1935,353.2342 1077.9718,353.7317 1076.6627,354.2618 C1074.0443,355.3219 1071.0761,356.5125 1067.7902,357.8136 C1054.6466,363.0178 1036.4206,369.9894 1015.1763,377.4512 C972.6875,392.375 918.125,409.26 868,417.89 C856.77,419.83 671.79,418.64 663,425.89 C659.54,428.745 656.6394,432.0986 654.2134,435.7882 C653.0004,437.6329 654.5678,434.1845 653.5815,436.1769" fill="none" id="ModProc-to-ModNot" style="stroke:#181818;stroke-width:1;"/><polygon fill="#181818" points="650.9198,441.5542,658.4973,435.2628,653.1379,437.0731,651.3276,431.7138,650.9198,441.5542" style="stroke:#181818;stroke-width:1;"/><text fill="#000000" font-family="sans-serif" font-size="13" lengthAdjust="spacing" textLength="132.1328" x="937.4" y="413.9569">Dispara notifica&#231;&#245;es</text></g><!--link Storage to GMN40--><g class="link" data-entity-1="Storage" data-entity-2="GMN40" data-source-line="60" data-uid="lnk42" id="link_Storage_GMN40"><path d="M620.147,808.4077 C620.0941,808.2163 620.0407,808.0252 619.9868,807.8342 C618.2623,801.7232 616.0361,795.8143 613.1816,790.3927 C607.4725,779.5494 599.25,770.655 587.5,765.99 C554.45,752.86 301.16,754.52 267.5,765.99 C213.34,784.43 163.56,831.7 138,859.12" fill="none" id="Storage-GMN40" style="stroke:#181818;stroke-width:1;stroke-dasharray:7,7;"/></g><!--SRC=[ZLDBRjim4Dtd50DlkZAy5m83jkIaBk12ZLq4QE75c1exX2bI9IMx7-GqNVG0GK_WYtKecupbD4K1GH3V3D-RprE5OeiRWjvSkffAX89WJeeElmu_3KpJGKxkIoCTzk375G0_ds-iqJNf0kvfjGHq400V7ELJkCMQzlYjZPs-ZrU5AIkZITVGcnsUYaOPIB50LrlJyyapK_2v5MAg57KX2wmD5sHtKj3oY6T6D2MJTF37LnL6ErGIstw2o6WND8x1mjWBZJ5QFumkcA8IZVBP2EzDZUxVmharWfoBgluSTE-DtQwLsSD4RwGE0dFnG7oLxEbyHmhhmvEL_zag5oNNKdIRPJ2eJagKwgAf1PKLgr2taWyDDGGprEmDUoRAwy0LElRB6BKmtYqP3yIrOjau22rmnQL3tA1RTl2umGiyhketdSzMcw9hq94jyJjfR3bQwNdDIs4RXxLQzkpEEFWqpIzTuo3FRixOtq3AO_pgDVaKpTtl3uDv8O6tYqK-yAyvvmJOfvmicy3TPBvu6MEdlHPgxH23_9oeV9WdcS2xR9mUOMRv2zeINE9TdZ2M1Fn_-R5I1ej1PlRQVyHixv1kzYsnnPNKMzVDYDsE6oTu5NxrBpBQdeCL0Szs6XLZwQUR2MJILSYY-jd2nmlFxSVSo2sC5gfnRFPW5FQnbPk76imwjDEk_terPCqTyRzB3bnJ6LlxufFhmMhOPlHZ-ye8L8nv5tZ6gyS_]--></g></svg>