<svg xmlns="http://www.w3.org/2000/svg" xmlns:xlink="http://www.w3.org/1999/xlink" contentStyleType="text/css" data-diagram-type="DESCRIPTION" height="452px" preserveAspectRatio="none" style="width:3031px;height:452px;background:#FFFFFF;" version="1.1" viewBox="0 0 3031 452" width="3031px" zoomAndPan="magnify"><defs/><g><!--cluster WebCluster--><g class="cluster" data-entity="WebCluster" data-source-line="3" data-uid="ent0003" id="cluster_WebCluster"><polygon fill="none" points="766.6,177.53,776.6,167.53,1139.6,167.53,1139.6,425.12,1129.6,435.12,766.6,435.12,766.6,177.53" style="stroke:#181818;stroke-width:1;"/><line style="stroke:#181818;stroke-width:1;" x1="1129.6" x2="1139.6" y1="177.53" y2="167.53"/><line style="stroke:#181818;stroke-width:1;" x1="766.6" x2="1129.6" y1="177.53" y2="177.53"/><line style="stroke:#181818;stroke-width:1;" x1="1129.6" x2="1129.6" y1="177.53" y2="435.12"/><text fill="#000000" font-family="sans-serif" font-size="14" font-weight="bold" lengthAdjust="spacing" textLength="124.6123" x="886.7938" y="193.5251">Servidores Web</text></g><!--cluster AppCluster--><g class="cluster" data-entity="AppCluster" data-source-line="9" data-uid="ent0007" id="cluster_AppCluster"><polygon fill="none" points="1179.6,177.53,1189.6,167.53,1544.6,167.53,1544.6,299.82,1534.6,309.82,1179.6,309.82,1179.6,177.53" style="stroke:#181818;stroke-width:1;"/><line style="stroke:#181818;stroke-width:1;" x1="1534.6" x2="1544.6" y1="177.53" y2="167.53"/><line style="stroke:#181818;stroke-width:1;" x1="1179.6" x2="1534.6" y1="177.53" y2="177.53"/><line style="stroke:#181818;stroke-width:1;" x1="1534.6" x2="1534.6" y1="177.53" y2="309.82"/><text fill="#000000" font-family="sans-serif" font-size="14" font-weight="bold" lengthAdjust="spacing" textLength="165.2178" x="1275.4911" y="193.5251">Servidores Aplica&#231;&#227;o</text></g><!--cluster DBCluster--><g class="cluster" data-entity="DBCluster" data-source-line="14" data-uid="ent0010" id="cluster_DBCluster"><path d="M1584.6,157.53 C1584.6,147.53 1748.1,147.53 1748.1,147.53 C1748.1,147.53 1911.6,147.53 1911.6,157.53 L1911.6,425.12 C1911.6,435.12 1748.1,435.12 1748.1,435.12 C1748.1,435.12 1584.6,435.12 1584.6,425.12 L1584.6,157.53" fill="none" style="stroke:#181818;stroke-width:1;"/><path d="M1584.6,157.53 C1584.6,167.53 1748.1,167.53 1748.1,167.53 C1748.1,167.53 1911.6,167.53 1911.6,157.53" fill="none" style="stroke:#181818;stroke-width:1;"/><text fill="#000000" font-family="sans-serif" font-size="14" font-weight="bold" lengthAdjust="spacing" textLength="153.5693" x="1671.3153" y="182.5251">Cluster PostgreSQL</text></g><!--cluster MQ--><g class="cluster" data-entity="MQ" data-source-line="20" data-uid="ent0014" id="cluster_MQ"><polygon fill="none" points="1951.6,177.53,1961.6,167.53,2181.6,167.53,2181.6,299.82,2171.6,309.82,1951.6,309.82,1951.6,177.53" style="stroke:#181818;stroke-width:1;"/><line style="stroke:#181818;stroke-width:1;" x1="2171.6" x2="2181.6" y1="177.53" y2="167.53"/><line style="stroke:#181818;stroke-width:1;" x1="1951.6" x2="2171.6" y1="177.53" y2="177.53"/><line style="stroke:#181818;stroke-width:1;" x1="2171.6" x2="2171.6" y1="177.53" y2="309.82"/><text fill="#000000" font-family="sans-serif" font-size="14" font-weight="bold" lengthAdjust="spacing" textLength="124.7559" x="2000.2221" y="193.5251">Message Queue</text></g><!--cluster Cache--><g class="cluster" data-entity="Cache" data-source-line="24" data-uid="ent0016" id="cluster_Cache"><polygon fill="none" points="2221.6,177.53,2231.6,167.53,2421.6,167.53,2421.6,299.82,2411.6,309.82,2221.6,309.82,2221.6,177.53" style="stroke:#181818;stroke-width:1;"/><line style="stroke:#181818;stroke-width:1;" x1="2411.6" x2="2421.6" y1="177.53" y2="167.53"/><line style="stroke:#181818;stroke-width:1;" x1="2221.6" x2="2411.6" y1="177.53" y2="177.53"/><line style="stroke:#181818;stroke-width:1;" x1="2411.6" x2="2411.6" y1="177.53" y2="309.82"/><text fill="#000000" font-family="sans-serif" font-size="14" font-weight="bold" lengthAdjust="spacing" textLength="47.4824" x="2293.8588" y="193.5251">Cache</text></g><!--cluster Storage--><g class="cluster" data-entity="Storage" data-source-line="28" data-uid="ent0018" id="cluster_Storage"><polygon fill="none" points="2461.6,177.53,2471.6,167.53,2897.6,167.53,2897.6,299.82,2887.6,309.82,2461.6,309.82,2461.6,177.53" style="stroke:#181818;stroke-width:1;"/><line style="stroke:#181818;stroke-width:1;" x1="2887.6" x2="2897.6" y1="177.53" y2="167.53"/><line style="stroke:#181818;stroke-width:1;" x1="2461.6" x2="2887.6" y1="177.53" y2="177.53"/><line style="stroke:#181818;stroke-width:1;" x1="2887.6" x2="2887.6" y1="177.53" y2="309.82"/><text fill="#000000" font-family="sans-serif" font-size="14" font-weight="bold" lengthAdjust="spacing" textLength="221.8945" x="2564.6527" y="193.5251">Sistema de Armazenamento</text></g><!--entity WS1--><g class="entity" data-entity="WS1" data-source-line="4" data-uid="ent0004" id="entity_WS1"><polygon fill="#F1F1F1" points="791.07,249.53,801.07,239.53,926.1305,239.53,926.1305,275.8269,916.1305,285.8269,791.07,285.8269,791.07,249.53" style="stroke:#181818;stroke-width:0.5;"/><line style="stroke:#181818;stroke-width:0.5;" x1="916.1305" x2="926.1305" y1="249.53" y2="239.53"/><line style="stroke:#181818;stroke-width:0.5;" x1="791.07" x2="916.1305" y1="249.53" y2="249.53"/><line style="stroke:#181818;stroke-width:0.5;" x1="916.1305" x2="916.1305" y1="249.53" y2="285.8269"/><text fill="#000000" font-family="sans-serif" font-size="14" lengthAdjust="spacing" textLength="95.0605" x="806.07" y="272.5251">Web Server 1</text></g><!--entity WS2--><g class="entity" data-entity="WS2" data-source-line="5" data-uid="ent0005" id="entity_WS2"><polygon fill="#F1F1F1" points="961.07,249.53,971.07,239.53,1096.1305,239.53,1096.1305,275.8269,1086.1305,285.8269,961.07,285.8269,961.07,249.53" style="stroke:#181818;stroke-width:0.5;"/><line style="stroke:#181818;stroke-width:0.5;" x1="1086.1305" x2="1096.1305" y1="249.53" y2="239.53"/><line style="stroke:#181818;stroke-width:0.5;" x1="961.07" x2="1086.1305" y1="249.53" y2="249.53"/><line style="stroke:#181818;stroke-width:0.5;" x1="1086.1305" x2="1086.1305" y1="249.53" y2="285.8269"/><text fill="#000000" font-family="sans-serif" font-size="14" lengthAdjust="spacing" textLength="95.0605" x="976.07" y="272.5251">Web Server 2</text></g><!--entity WS3--><g class="entity" data-entity="WS3" data-source-line="6" data-uid="ent0006" id="entity_WS3"><polygon fill="#F1F1F1" points="791.07,374.82,801.07,364.82,926.1305,364.82,926.1305,401.1169,916.1305,411.1169,791.07,411.1169,791.07,374.82" style="stroke:#181818;stroke-width:0.5;"/><line style="stroke:#181818;stroke-width:0.5;" x1="916.1305" x2="926.1305" y1="374.82" y2="364.82"/><line style="stroke:#181818;stroke-width:0.5;" x1="791.07" x2="916.1305" y1="374.82" y2="374.82"/><line style="stroke:#181818;stroke-width:0.5;" x1="916.1305" x2="916.1305" y1="374.82" y2="411.1169"/><text fill="#000000" font-family="sans-serif" font-size="14" lengthAdjust="spacing" textLength="95.0605" x="806.07" y="397.8151">Web Server 3</text></g><!--entity AS1--><g class="entity" data-entity="AS1" data-source-line="10" data-uid="ent0008" id="entity_AS1"><polygon fill="#F1F1F1" points="1204.07,249.53,1214.07,239.53,1335.1384,239.53,1335.1384,275.8269,1325.1384,285.8269,1204.07,285.8269,1204.07,249.53" style="stroke:#181818;stroke-width:0.5;"/><line style="stroke:#181818;stroke-width:0.5;" x1="1325.1384" x2="1335.1384" y1="249.53" y2="239.53"/><line style="stroke:#181818;stroke-width:0.5;" x1="1204.07" x2="1325.1384" y1="249.53" y2="249.53"/><line style="stroke:#181818;stroke-width:0.5;" x1="1325.1384" x2="1325.1384" y1="249.53" y2="285.8269"/><text fill="#000000" font-family="sans-serif" font-size="14" lengthAdjust="spacing" textLength="91.0684" x="1219.07" y="272.5251">App Server 1</text></g><!--entity AS2--><g class="entity" data-entity="AS2" data-source-line="11" data-uid="ent0009" id="entity_AS2"><polygon fill="#F1F1F1" points="1370.07,249.53,1380.07,239.53,1501.1384,239.53,1501.1384,275.8269,1491.1384,285.8269,1370.07,285.8269,1370.07,249.53" style="stroke:#181818;stroke-width:0.5;"/><line style="stroke:#181818;stroke-width:0.5;" x1="1491.1384" x2="1501.1384" y1="249.53" y2="239.53"/><line style="stroke:#181818;stroke-width:0.5;" x1="1370.07" x2="1491.1384" y1="249.53" y2="249.53"/><line style="stroke:#181818;stroke-width:0.5;" x1="1491.1384" x2="1491.1384" y1="249.53" y2="285.8269"/><text fill="#000000" font-family="sans-serif" font-size="14" lengthAdjust="spacing" textLength="91.0684" x="1385.07" y="272.5251">App Server 2</text></g><!--entity PDB--><g class="entity" data-entity="PDB" data-source-line="15" data-uid="ent0011" id="entity_PDB"><polygon fill="#F1F1F1" points="1609.01,249.53,1619.01,239.53,1728.1907,239.53,1728.1907,275.8269,1718.1907,285.8269,1609.01,285.8269,1609.01,249.53" style="stroke:#181818;stroke-width:0.5;"/><line style="stroke:#181818;stroke-width:0.5;" x1="1718.1907" x2="1728.1907" y1="249.53" y2="239.53"/><line style="stroke:#181818;stroke-width:0.5;" x1="1609.01" x2="1718.1907" y1="249.53" y2="249.53"/><line style="stroke:#181818;stroke-width:0.5;" x1="1718.1907" x2="1718.1907" y1="249.53" y2="285.8269"/><text fill="#000000" font-family="sans-serif" font-size="14" lengthAdjust="spacing" textLength="79.1807" x="1624.01" y="272.5251">Primary DB</text></g><!--entity R1--><g class="entity" data-entity="R1" data-source-line="16" data-uid="ent0012" id="entity_R1"><polygon fill="#F1F1F1" points="1763.28,249.53,1773.28,239.53,1867.9206,239.53,1867.9206,275.8269,1857.9206,285.8269,1763.28,285.8269,1763.28,249.53" style="stroke:#181818;stroke-width:0.5;"/><line style="stroke:#181818;stroke-width:0.5;" x1="1857.9206" x2="1867.9206" y1="249.53" y2="239.53"/><line style="stroke:#181818;stroke-width:0.5;" x1="1763.28" x2="1857.9206" y1="249.53" y2="249.53"/><line style="stroke:#181818;stroke-width:0.5;" x1="1857.9206" x2="1857.9206" y1="249.53" y2="285.8269"/><text fill="#000000" font-family="sans-serif" font-size="14" lengthAdjust="spacing" textLength="64.6406" x="1778.28" y="272.5251">Replica 1</text></g><!--entity R2--><g class="entity" data-entity="R2" data-source-line="17" data-uid="ent0013" id="entity_R2"><polygon fill="#F1F1F1" points="1616.28,374.82,1626.28,364.82,1720.9206,364.82,1720.9206,401.1169,1710.9206,411.1169,1616.28,411.1169,1616.28,374.82" style="stroke:#181818;stroke-width:0.5;"/><line style="stroke:#181818;stroke-width:0.5;" x1="1710.9206" x2="1720.9206" y1="374.82" y2="364.82"/><line style="stroke:#181818;stroke-width:0.5;" x1="1616.28" x2="1710.9206" y1="374.82" y2="374.82"/><line style="stroke:#181818;stroke-width:0.5;" x1="1710.9206" x2="1710.9206" y1="374.82" y2="411.1169"/><text fill="#000000" font-family="sans-serif" font-size="14" lengthAdjust="spacing" textLength="64.6406" x="1631.28" y="397.8151">Replica 2</text></g><!--entity RabbitMQ Cluster--><g class="entity" data-entity="RabbitMQ Cluster" data-source-line="21" data-uid="ent0015" id="entity_RabbitMQ Cluster"><rect fill="#F1F1F1" height="46.2969" rx="2.5" ry="2.5" style="stroke:#181818;stroke-width:0.5;" width="162.6982" x="1975.25" y="239.53"/><rect fill="#F1F1F1" height="10" style="stroke:#181818;stroke-width:0.5;" width="15" x="2117.9482" y="244.53"/><rect fill="#F1F1F1" height="2" style="stroke:#181818;stroke-width:0.5;" width="4" x="2115.9482" y="246.53"/><rect fill="#F1F1F1" height="2" style="stroke:#181818;stroke-width:0.5;" width="4" x="2115.9482" y="250.53"/><text fill="#000000" font-family="sans-serif" font-size="14" lengthAdjust="spacing" textLength="122.6982" x="1990.25" y="272.5251">RabbitMQ Cluster</text></g><!--entity Redis Cluster--><g class="entity" data-entity="Redis Cluster" data-source-line="25" data-uid="ent0017" id="entity_Redis Cluster"><rect fill="#F1F1F1" height="46.2969" rx="2.5" ry="2.5" style="stroke:#181818;stroke-width:0.5;" width="132.5518" x="2245.33" y="239.53"/><rect fill="#F1F1F1" height="10" style="stroke:#181818;stroke-width:0.5;" width="15" x="2357.8818" y="244.53"/><rect fill="#F1F1F1" height="2" style="stroke:#181818;stroke-width:0.5;" width="4" x="2355.8818" y="246.53"/><rect fill="#F1F1F1" height="2" style="stroke:#181818;stroke-width:0.5;" width="4" x="2355.8818" y="250.53"/><text fill="#000000" font-family="sans-serif" font-size="14" lengthAdjust="spacing" textLength="92.5518" x="2260.33" y="272.5251">Redis Cluster</text></g><!--entity Bucket Documentos--><g class="entity" data-entity="Bucket Documentos" data-source-line="29" data-uid="ent0019" id="entity_Bucket Documentos"><rect fill="#F1F1F1" height="46.2969" rx="2.5" ry="2.5" style="stroke:#181818;stroke-width:0.5;" width="181.2236" x="2485.99" y="239.53"/><rect fill="#F1F1F1" height="10" style="stroke:#181818;stroke-width:0.5;" width="15" x="2647.2136" y="244.53"/><rect fill="#F1F1F1" height="2" style="stroke:#181818;stroke-width:0.5;" width="4" x="2645.2136" y="246.53"/><rect fill="#F1F1F1" height="2" style="stroke:#181818;stroke-width:0.5;" width="4" x="2645.2136" y="250.53"/><text fill="#000000" font-family="sans-serif" font-size="14" lengthAdjust="spacing" textLength="141.2236" x="2500.99" y="272.5251">Bucket Documentos</text></g><!--entity Bucket Backups--><g class="entity" data-entity="Bucket Backups" data-source-line="30" data-uid="ent0020" id="entity_Bucket Backups"><rect fill="#F1F1F1" height="46.2969" rx="2.5" ry="2.5" style="stroke:#181818;stroke-width:0.5;" width="151.877" x="2702.66" y="239.53"/><rect fill="#F1F1F1" height="10" style="stroke:#181818;stroke-width:0.5;" width="15" x="2834.537" y="244.53"/><rect fill="#F1F1F1" height="2" style="stroke:#181818;stroke-width:0.5;" width="4" x="2832.537" y="246.53"/><rect fill="#F1F1F1" height="2" style="stroke:#181818;stroke-width:0.5;" width="4" x="2832.537" y="250.53"/><text fill="#000000" font-family="sans-serif" font-size="14" lengthAdjust="spacing" textLength="111.877" x="2717.66" y="272.5251">Bucket Backups</text></g><!--entity LB--><g class="entity" data-entity="LB" data-source-line="1" data-uid="ent0002" id="entity_LB"><polygon fill="#F1F1F1" points="602.67,249.53,612.67,239.53,742.543,239.53,742.543,275.8269,732.543,285.8269,602.67,285.8269,602.67,249.53" style="stroke:#181818;stroke-width:0.5;"/><line style="stroke:#181818;stroke-width:0.5;" x1="732.543" x2="742.543" y1="249.53" y2="239.53"/><line style="stroke:#181818;stroke-width:0.5;" x1="602.67" x2="732.543" y1="249.53" y2="249.53"/><line style="stroke:#181818;stroke-width:0.5;" x1="732.543" x2="732.543" y1="249.53" y2="285.8269"/><text fill="#000000" font-family="sans-serif" font-size="14" lengthAdjust="spacing" textLength="99.873" x="617.67" y="272.5251">Load Balancer</text></g><!--entity C--><g class="entity" data-entity="C" data-source-line="42" data-uid="ent0027" id="entity_C"><ellipse cx="32.6021" cy="233.03" fill="#F1F1F1" rx="8" ry="8" style="stroke:#181818;stroke-width:0.5;"/><path d="M32.6021,241.03 L32.6021,268.03 M19.6021,249.03 L45.6021,249.03 M32.6021,268.03 L19.6021,283.03 M32.6021,268.03 L45.6021,283.03" fill="none" style="stroke:#181818;stroke-width:0.5;"/><text fill="#000000" font-family="sans-serif" font-size="14" lengthAdjust="spacing" textLength="53.2041" x="6" y="297.5251">Usu&#225;rio</text></g><!--entity AI--><g class="entity" data-entity="AI" data-source-line="43" data-uid="ent0028" id="entity_AI"><ellipse cx="154.5984" cy="233.03" fill="#F1F1F1" rx="8" ry="8" style="stroke:#181818;stroke-width:0.5;"/><path d="M154.5984,241.03 L154.5984,268.03 M141.5984,249.03 L167.5984,249.03 M154.5984,268.03 L141.5984,283.03 M154.5984,268.03 L167.5984,283.03" fill="none" style="stroke:#181818;stroke-width:0.5;"/><text fill="#000000" font-family="sans-serif" font-size="14" lengthAdjust="spacing" textLength="120.7568" x="94.22" y="297.5251">Avaliador Interno</text></g><!--entity AE--><g class="entity" data-entity="AE" data-source-line="44" data-uid="ent0029" id="entity_AE"><ellipse cx="312.6029" cy="233.03" fill="#F1F1F1" rx="8" ry="8" style="stroke:#181818;stroke-width:0.5;"/><path d="M312.6029,241.03 L312.6029,268.03 M299.6029,249.03 L325.6029,249.03 M312.6029,268.03 L299.6029,283.03 M312.6029,268.03 L325.6029,283.03" fill="none" style="stroke:#181818;stroke-width:0.5;"/><text fill="#000000" font-family="sans-serif" font-size="14" lengthAdjust="spacing" textLength="124.8857" x="250.16" y="297.5251">Avaliador Externo</text></g><!--entity Admin--><g class="entity" data-entity="Admin" data-source-line="45" data-uid="ent0030" id="entity_Admin"><ellipse cx="2974.6" cy="233.03" fill="#F1F1F1" rx="8" ry="8" style="stroke:#181818;stroke-width:0.5;"/><path d="M2974.6,241.03 L2974.6,268.03 M2961.6,249.03 L2987.6,249.03 M2974.6,268.03 L2961.6,283.03 M2974.6,268.03 L2987.6,283.03" fill="none" style="stroke:#181818;stroke-width:0.5;"/><text fill="#000000" font-family="sans-serif" font-size="14" lengthAdjust="spacing" textLength="99.0801" x="2925.06" y="297.5251">Administrador</text></g><g class="entity" data-entity="GMN35" data-source-line="53" data-uid="ent0036" id="entity_GMN35"><path d="M409.97,227.41 L409.97,258.67 L375.51,262.67 L409.97,266.67 L409.97,297.9412 A0,0 0 0 0 409.97,297.9412 L567.2288,297.9412 A0,0 0 0 0 567.2288,297.9412 L567.2288,237.41 L557.2288,227.41 L409.97,227.41 A0,0 0 0 0 409.97,227.41" fill="#FEFFDD" style="stroke:#181818;stroke-width:0.5;"/><path d="M557.2288,227.41 L557.2288,237.41 L567.2288,237.41 L557.2288,227.41" fill="#FEFFDD" style="stroke:#181818;stroke-width:0.5;"/><text fill="#000000" font-family="sans-serif" font-size="13" font-weight="bold" lengthAdjust="spacing" textLength="136.2588" x="415.97" y="244.4769">Avaliador Externo:</text><text fill="#000000" font-family="sans-serif" font-size="13" lengthAdjust="spacing" textLength="119.8564" x="415.97" y="259.6097">Acesso via VPN ou</text><text fill="#000000" font-family="sans-serif" font-size="13" lengthAdjust="spacing" textLength="131.2061" x="415.97" y="274.7425">link tempor&#225;rio com</text><text fill="#000000" font-family="sans-serif" font-size="13" lengthAdjust="spacing" textLength="119.5327" x="415.97" y="289.8753">autentica&#231;&#227;o forte</text></g><g class="entity" data-entity="GMN38" data-source-line="60" data-uid="ent0039" id="entity_GMN38"><path d="M2793.67,6 L2793.67,76.5313 L2985.5362,76.5313 L2985.5362,16 L2975.5362,6 L2793.67,6" fill="#FEFFDD" style="stroke:#181818;stroke-width:0.5;"/><path d="M2975.5362,6 L2975.5362,16 L2985.5362,16 L2975.5362,6" fill="#FEFFDD" style="stroke:#181818;stroke-width:1;"/><text fill="#000000" font-family="sans-serif" font-size="13" font-weight="bold" lengthAdjust="spacing" textLength="168.397" x="2799.67" y="23.0669">Documentos sens&#237;veis:</text><text fill="#000000" font-family="sans-serif" font-size="13" lengthAdjust="spacing" textLength="167.3179" x="2799.67" y="38.1997">- Criptografia em repouso</text><text fill="#000000" font-family="sans-serif" font-size="13" lengthAdjust="spacing" textLength="142.1812" x="2799.67" y="53.3325">- Links com expira&#231;&#227;o</text><text fill="#000000" font-family="sans-serif" font-size="13" lengthAdjust="spacing" textLength="170.8662" x="2799.67" y="68.4653">- Log de acesso detalhado</text></g><!--link LB to WebCluster--><g class="link" data-entity-1="LB" data-entity-2="WebCluster" data-source-line="34" data-uid="lnk21" id="link_LB_WebCluster"><path d="M684.27,239.23 C700.16,210.26 731.63,162.36 774.6,142.47 C842.76,110.91 1055.49,93.68 1112.6,142.47 C1117.5,146.655 1121.5022,151.5491 1124.7509,156.9238 C1126.3753,159.6112 1127.8113,162.4188 1129.077,165.318 C1129.3935,166.0428 1127.4637,161.2053 1127.7592,161.9411" fill="none" id="LB-to-WebCluster" style="stroke:#181818;stroke-width:1;"/><polygon fill="#181818" points="1129.9947,167.5091,1130.3534,157.6668,1128.1317,162.8691,1122.9294,160.6474,1129.9947,167.5091" style="stroke:#181818;stroke-width:1;"/><text fill="#000000" font-family="sans-serif" font-size="13" lengthAdjust="spacing" textLength="79.625" x="897.1" y="119.5969">HTTP/HTTPS</text></g><!--link WebCluster to AppCluster--><g class="link" data-entity-1="WebCluster" data-entity-2="AppCluster" data-source-line="35" data-uid="lnk22" id="link_WebCluster_AppCluster"><path d="M1139.6851,218.8994 C1139.7907,218.5185 1139.8976,218.1365 1140.0058,217.7534 C1140.2223,216.9872 1140.4441,216.2169 1140.6713,215.4428 C1141.1258,213.8946 1141.6021,212.3316 1142.1013,210.7575 C1150.0875,185.5725 1163.915,157.565 1187.6,142.47 C1249.44,103.05 1461.85,94.83 1517.6,142.47 C1522.5,146.655 1526.5022,151.5491 1529.7509,156.9238 C1531.3753,159.6112 1532.8113,162.4188 1534.077,165.318 C1534.3935,166.0428 1532.4637,161.2053 1532.7592,161.9411" fill="none" id="WebCluster-to-AppCluster" style="stroke:#181818;stroke-width:1;"/><polygon fill="#181818" points="1534.9947,167.5091,1535.3534,157.6668,1533.1317,162.8691,1527.9294,160.6474,1534.9947,167.5091" style="stroke:#181818;stroke-width:1;"/><text fill="#000000" font-family="sans-serif" font-size="13" lengthAdjust="spacing" textLength="63.8257" x="1300.1" y="119.5969">RPC/HTTP</text></g><!--link AppCluster to DBCluster--><g class="link" data-entity-1="AppCluster" data-entity-2="DBCluster" data-source-line="36" data-uid="lnk23" id="link_AppCluster_DBCluster"><path d="M1544.6851,218.8994 C1544.7907,218.5185 1544.8976,218.1365 1545.0058,217.7534 C1545.2223,216.9872 1545.4441,216.2169 1545.6713,215.4428 C1546.1258,213.8946 1546.6021,212.3316 1547.1013,210.7575 C1555.0875,185.5725 1568.915,157.565 1592.6,142.47 C1647.14,107.71 1834.27,100.66 1883.6,142.47 C1884.8309,143.5128 1886.0063,144.6001 1887.1283,145.7284 C1887.6893,146.2926 1884.1863,142.4406 1884.7209,143.0248" fill="none" id="AppCluster-to-DBCluster" style="stroke:#181818;stroke-width:1;"/><polygon fill="#181818" points="1888.7715,147.4511,1885.6464,138.1112,1885.396,143.7625,1879.7447,143.5121,1888.7715,147.4511" style="stroke:#181818;stroke-width:1;"/><text fill="#000000" font-family="sans-serif" font-size="13" lengthAdjust="spacing" textLength="31.8398" x="1871.1" y="119.5969">JDBC</text></g><!--link AppCluster to MQ--><g class="link" data-entity-1="AppCluster" data-entity-2="MQ" data-source-line="37" data-uid="lnk24" id="link_AppCluster_MQ"><path d="M1544.6851,218.8994 C1544.7907,218.5185 1544.8976,218.1365 1545.0058,217.7534 C1545.2223,216.9872 1545.4441,216.2169 1545.6713,215.4428 C1546.1258,213.8946 1546.6021,212.3316 1547.1013,210.7575 C1555.0875,185.5725 1568.915,157.565 1592.6,142.47 C1645.17,108.97 2106.05,102.17 2153.6,142.47 C2158.5238,146.6413 2162.5581,151.5248 2165.8452,156.8918 C2167.4887,159.5753 2168.9454,162.3797 2170.2329,165.2763 C2170.5548,166.0004 2168.5927,161.1777 2168.8937,161.913" fill="none" id="AppCluster-to-MQ" style="stroke:#181818;stroke-width:1;"/><polygon fill="#181818" points="2171.1672,167.4655,2171.4586,157.621,2169.2726,162.8384,2164.0552,160.6524,2171.1672,167.4655" style="stroke:#181818;stroke-width:1;"/><text fill="#000000" font-family="sans-serif" font-size="13" lengthAdjust="spacing" textLength="38.1812" x="1702.6" y="119.5969">AMQP</text></g><!--link AppCluster to Cache--><g class="link" data-entity-1="AppCluster" data-entity-2="Cache" data-source-line="38" data-uid="lnk25" id="link_AppCluster_Cache"><path d="M1544.6851,218.8994 C1544.7907,218.5185 1544.8976,218.1365 1545.0058,217.7534 C1545.2223,216.9872 1545.4441,216.2169 1545.6713,215.4428 C1546.1258,213.8946 1546.6021,212.3316 1547.1013,210.7575 C1555.0875,185.5725 1568.915,157.565 1592.6,142.47 C1630.13,118.55 2359.65,113.7 2393.6,142.47 C2398.5238,146.6413 2402.5581,151.5248 2405.8452,156.8918 C2407.4887,159.5753 2408.9454,162.3797 2410.2329,165.2763 C2410.5548,166.0004 2408.5927,161.1777 2408.8937,161.913" fill="none" id="AppCluster-to-Cache" style="stroke:#181818;stroke-width:1;"/><polygon fill="#181818" points="2411.1672,167.4655,2411.4586,157.621,2409.2726,162.8384,2404.0552,160.6524,2411.1672,167.4655" style="stroke:#181818;stroke-width:1;"/><text fill="#000000" font-family="sans-serif" font-size="13" lengthAdjust="spacing" textLength="92.7012" x="1537.6" y="119.5969">Redis Protocol</text></g><!--link AppCluster to Storage--><g class="link" data-entity-1="AppCluster" data-entity-2="Storage" data-source-line="39" data-uid="lnk26" id="link_AppCluster_Storage"><path d="M1544.6851,218.8994 C1544.7907,218.5185 1544.8976,218.1365 1545.0058,217.7534 C1545.2223,216.9872 1545.4441,216.2169 1545.6713,215.4428 C1546.1258,213.8946 1546.6021,212.3316 1547.1013,210.7575 C1555.0875,185.5725 1568.915,157.565 1592.6,142.47 C1652.48,104.31 2816.62,96.35 2870.6,142.47 C2875.5,146.655 2879.5022,151.5491 2882.7509,156.9238 C2884.3753,159.6112 2885.8113,162.4188 2887.077,165.318 C2887.3935,166.0428 2885.4637,161.2053 2885.7592,161.9411" fill="none" id="AppCluster-to-Storage" style="stroke:#181818;stroke-width:1;"/><polygon fill="#181818" points="2887.9947,167.5091,2888.3534,157.6668,2886.1317,162.8691,2880.9294,160.6474,2887.9947,167.5091" style="stroke:#181818;stroke-width:1;"/><text fill="#000000" font-family="sans-serif" font-size="13" lengthAdjust="spacing" textLength="58.1382" x="1637.6" y="119.5969">REST API</text></g><!--link C to LB--><g class="link" data-entity-1="C" data-entity-2="LB" data-source-line="47" data-uid="lnk31" id="link_C_LB"><path d="M35.44,224.31 C39.73,196.54 50.37,160.8 76.6,142.47 C122.87,110.13 534.26,116.93 584.6,142.47 C624.51,162.71 648.2431,205.0027 661.0031,233.8527" fill="none" id="C-to-LB" style="stroke:#181818;stroke-width:1;"/><polygon fill="#181818" points="663.43,239.34,663.4478,229.4912,661.4075,234.7673,656.1314,232.7271,663.43,239.34" style="stroke:#181818;stroke-width:1;"/><text fill="#000000" font-family="sans-serif" font-size="13" lengthAdjust="spacing" textLength="78.7744" x="175.6" y="119.5969">Acesso Web</text></g><!--link AI to LB--><g class="link" data-entity-1="AI" data-entity-2="LB" data-source-line="48" data-uid="lnk32" id="link_AI_LB"><path d="M168,224.19 C180.09,195.96 200.9,159.69 232.6,142.47 C301.34,105.13 514.84,107.08 584.6,142.47 C624.51,162.71 648.2431,205.0027 661.0031,233.8527" fill="none" id="AI-to-LB" style="stroke:#181818;stroke-width:1;"/><polygon fill="#181818" points="663.43,239.34,663.4478,229.4912,661.4075,234.7673,656.1314,232.7271,663.43,239.34" style="stroke:#181818;stroke-width:1;"/><text fill="#000000" font-family="sans-serif" font-size="13" lengthAdjust="spacing" textLength="78.7744" x="507.6" y="119.5969">Acesso Web</text></g><!--link AE to LB--><g class="link" data-entity-1="AE" data-entity-2="LB" data-source-line="49" data-uid="lnk33" id="link_AE_LB"><path d="M326.61,224.16 C339.15,195.92 360.56,159.63 392.6,142.47 C467.82,102.17 508.5,103.86 584.6,142.47 C624.51,162.71 648.2431,205.0027 661.0031,233.8527" fill="none" id="AE-to-LB" style="stroke:#181818;stroke-width:1;"/><polygon fill="#181818" points="663.43,239.34,663.4478,229.4912,661.4075,234.7673,656.1314,232.7271,663.43,239.34" style="stroke:#181818;stroke-width:1;"/><text fill="#000000" font-family="sans-serif" font-size="13" lengthAdjust="spacing" textLength="78.7744" x="391.6" y="119.5969">Acesso Web</text></g><!--link Admin to AppCluster--><g class="link" data-entity-1="Admin" data-entity-2="AppCluster" data-source-line="50" data-uid="lnk34" id="link_Admin_AppCluster"><path d="M2963.86,224.04 C2953.8,195.94 2935.69,159.89 2905.6,142.47 C2842.48,105.92 1654.12,103.26 1592.6,142.47 C1568.915,157.565 1555.0875,185.5725 1547.1013,210.7575 C1546.6021,212.3316 1546.1258,213.8946 1545.6713,215.4428 C1545.4441,216.2169 1545.2223,216.9872 1545.0058,217.7534 C1544.8976,218.1365 1546.3932,212.7365 1546.2876,213.1174" fill="none" id="Admin-to-AppCluster" style="stroke:#181818;stroke-width:1;"/><polygon fill="#181818" points="1544.6851,218.8994,1550.9435,211.2947,1546.0205,214.0811,1543.2341,209.1581,1544.6851,218.8994" style="stroke:#181818;stroke-width:1;"/><text fill="#000000" font-family="sans-serif" font-size="13" lengthAdjust="spacing" textLength="116.2954" x="1747.6" y="119.5969">SSH/Management</text></g><!--link GMN38 to Storage--><g class="link" data-entity-1="GMN38" data-entity-2="Storage" data-source-line="60" data-uid="lnk40" id="link_GMN38_Storage"><path d="M2889.6,76.54 C2889.6,91.7275 2889.6,110.6519 2889.6,130.5542 C2889.6,140.5054 2889.6,150.7011 2889.6,160.7963 C2889.6,162.0583 2889.6,163.3186 2889.6,164.5767 C2889.6,165.2058 2889.6,165.8342 2889.6,166.4621 C2889.6,166.776 2889.6,167.0898 2889.6,167.4034" fill="none" id="GMN38-Storage" style="stroke:#181818;stroke-width:1;stroke-dasharray:7,7;"/></g><!--SRC=[RLFBZjf04BpxArfSSbeXs1jQ8Tc0j4GG6KoIGxI7ncvWX3rZpOmHIPIFYNB8ASTy0J-Mdh411xZuKLNkgkvfIvKHT6OACuWmHvcIxW0Qc4L183sNa3w8J6aoy9dMdkJxAA-C9GtV0u1Qno0uBOEzMfNq7f7zXkm_8fyRyZduyS0_B7EHukdtwPVokh0ixtCm-7-Ei9MZHVORik-iChIuHiEASy5O6RlLb2ncNZUExfrYBGhKNvdpadWSNQWb-QXDWcNlZgZTb_rhdtCo1hS4YuegyknyuSs-B76z5fRVcWXlruz6cEvgiNzgz9G9yq2S20OA17uETO7VI691qjQpJApIpjvNYAfqJnR6Agsymhorq0ZJVLKQN_WTZ9Iau-alcM0MmTEmlHi3U5sjugwx944BPrNhv0QmZ4TU5BHGrbn7Fe3t_793ypm64CuNjv_LW-2gVWgnLbQbAhyHdRjbsIHPGHXFNIyVJNNwgOKo0QOiWCuPg2TyHiC3vW9v9M4gkPvibd5wpq-EBNvouRD2I3uBxJGrvv0W6BbeF4RkA-LjK6wOGJXzY4uUegxEtNoJvBKxHydzkiDqss09jDZkBAYDomNmiXxUfHwyTDT3vfhw1u7mAVu0gc8i5t8Fl4obqdv0aAg2OQmiEvp_KTWeRIaWcO6pR8ojAfrjSmArztNHm90qfpy74kRi_mGZBKghjXetd84Aq5IgoYZFpJY9SVP0nrBeshbcrDQjEjRnCxAOxxY_Ivv_]--></g></svg>