<svg xmlns="http://www.w3.org/2000/svg" xmlns:xlink="http://www.w3.org/1999/xlink" contentStyleType="text/css" data-diagram-type="SEQUENCE" height="1088px" preserveAspectRatio="none" style="width:846px;height:1088px;background:#FFFFFF;" version="1.1" viewBox="0 0 846 1088" width="846px" zoomAndPan="magnify"><defs/><g><g><title>Usu.rio</title><rect fill="#000000" fill-opacity="0.00000" height="926.1172" width="8" x="30.6021" y="81.2969"/><line style="stroke:#181818;stroke-width:0.5;stroke-dasharray:5,5;" x1="34" x2="34" y1="81.2969" y2="1007.4141"/></g><g><title>Aplica..o Web</title><rect fill="#000000" fill-opacity="0.00000" height="926.1172" width="8" x="262.875" y="81.2969"/><line style="stroke:#181818;stroke-width:0.5;stroke-dasharray:5,5;" x1="266.2979" x2="266.2979" y1="81.2969" y2="1007.4141"/></g><g><title>Banco de Dados</title><rect fill="#000000" fill-opacity="0.00000" height="926.1172" width="8" x="522.7856" y="81.2969"/><line style="stroke:#181818;stroke-width:0.5;stroke-dasharray:5,5;" x1="525.873" x2="525.873" y1="81.2969" y2="1007.4141"/></g><g><title>Servi.o de E-mail</title><rect fill="#000000" fill-opacity="0.00000" height="926.1172" width="8" x="664.6919" y="81.2969"/><line style="stroke:#181818;stroke-width:0.5;stroke-dasharray:5,5;" x1="667.6982" x2="667.6982" y1="81.2969" y2="1007.4141"/></g><g><title>Avaliador</title><rect fill="#000000" fill-opacity="0.00000" height="926.1172" width="8" x="788.4707" y="81.2969"/><line style="stroke:#181818;stroke-width:0.5;stroke-dasharray:5,5;" x1="792.4668" x2="792.4668" y1="81.2969" y2="1007.4141"/></g><g class="participant participant-head" data-participant="C"><text fill="#000000" font-family="sans-serif" font-size="14" lengthAdjust="spacing" textLength="53.2041" x="5" y="77.9951">Usu&#225;rio</text><ellipse cx="34.6021" cy="13.5" fill="#E2E2F0" rx="8" ry="8" style="stroke:#181818;stroke-width:0.5;"/><path d="M34.6021,21.5 L34.6021,48.5 M21.6021,29.5 L47.6021,29.5 M34.6021,48.5 L21.6021,63.5 M34.6021,48.5 L47.6021,63.5" fill="none" style="stroke:#181818;stroke-width:0.5;"/></g><g class="participant participant-tail" data-participant="C"><text fill="#000000" font-family="sans-serif" font-size="14" lengthAdjust="spacing" textLength="53.2041" x="5" y="1019.4092">Usu&#225;rio</text><ellipse cx="34.6021" cy="1031.2109" fill="#E2E2F0" rx="8" ry="8" style="stroke:#181818;stroke-width:0.5;"/><path d="M34.6021,1039.2109 L34.6021,1066.2109 M21.6021,1047.2109 L47.6021,1047.2109 M34.6021,1066.2109 L21.6021,1081.2109 M34.6021,1066.2109 L47.6021,1081.2109" fill="none" style="stroke:#181818;stroke-width:0.5;"/></g><g class="participant participant-head" data-participant="App"><rect fill="#E2E2F0" height="30.2969" rx="2.5" ry="2.5" style="stroke:#181818;stroke-width:0.5;" width="117.1543" x="208.2979" y="50"/><text fill="#000000" font-family="sans-serif" font-size="14" lengthAdjust="spacing" textLength="103.1543" x="215.2979" y="69.9951">Aplica&#231;&#227;o Web</text></g><g class="participant participant-tail" data-participant="App"><rect fill="#E2E2F0" height="30.2969" rx="2.5" ry="2.5" style="stroke:#181818;stroke-width:0.5;" width="117.1543" x="208.2979" y="1006.4141"/><text fill="#000000" font-family="sans-serif" font-size="14" lengthAdjust="spacing" textLength="103.1543" x="215.2979" y="1026.4092">Aplica&#231;&#227;o Web</text></g><g class="participant participant-head" data-participant="BD"><rect fill="#E2E2F0" height="30.2969" rx="2.5" ry="2.5" style="stroke:#181818;stroke-width:0.5;" width="127.8252" x="462.873" y="50"/><text fill="#000000" font-family="sans-serif" font-size="14" lengthAdjust="spacing" textLength="113.8252" x="469.873" y="69.9951">Banco de Dados</text></g><g class="participant participant-tail" data-participant="BD"><rect fill="#E2E2F0" height="30.2969" rx="2.5" ry="2.5" style="stroke:#181818;stroke-width:0.5;" width="127.8252" x="462.873" y="1006.4141"/><text fill="#000000" font-family="sans-serif" font-size="14" lengthAdjust="spacing" textLength="113.8252" x="469.873" y="1026.4092">Banco de Dados</text></g><g class="participant participant-head" data-participant="Email"><rect fill="#E2E2F0" height="30.2969" rx="2.5" ry="2.5" style="stroke:#181818;stroke-width:0.5;" width="135.9873" x="600.6982" y="50"/><text fill="#000000" font-family="sans-serif" font-size="14" lengthAdjust="spacing" textLength="121.9873" x="607.6982" y="69.9951">Servi&#231;o de E-mail</text></g><g class="participant participant-tail" data-participant="Email"><rect fill="#E2E2F0" height="30.2969" rx="2.5" ry="2.5" style="stroke:#181818;stroke-width:0.5;" width="135.9873" x="600.6982" y="1006.4141"/><text fill="#000000" font-family="sans-serif" font-size="14" lengthAdjust="spacing" textLength="121.9873" x="607.6982" y="1026.4092">Servi&#231;o de E-mail</text></g><g class="participant participant-head" data-participant="Aval"><text fill="#000000" font-family="sans-serif" font-size="14" lengthAdjust="spacing" textLength="66.0078" x="756.4668" y="77.9951">Avaliador</text><ellipse cx="792.4707" cy="13.5" fill="#E2E2F0" rx="8" ry="8" style="stroke:#181818;stroke-width:0.5;"/><path d="M792.4707,21.5 L792.4707,48.5 M779.4707,29.5 L805.4707,29.5 M792.4707,48.5 L779.4707,63.5 M792.4707,48.5 L805.4707,63.5" fill="none" style="stroke:#181818;stroke-width:0.5;"/></g><g class="participant participant-tail" data-participant="Aval"><text fill="#000000" font-family="sans-serif" font-size="14" lengthAdjust="spacing" textLength="66.0078" x="756.4668" y="1019.4092">Avaliador</text><ellipse cx="792.4707" cy="1031.2109" fill="#E2E2F0" rx="8" ry="8" style="stroke:#181818;stroke-width:0.5;"/><path d="M792.4707,1039.2109 L792.4707,1066.2109 M779.4707,1047.2109 L805.4707,1047.2109 M792.4707,1066.2109 L779.4707,1081.2109 M792.4707,1066.2109 L805.4707,1081.2109" fill="none" style="stroke:#181818;stroke-width:0.5;"/></g><g class="message" data-participant-1="C" data-participant-2="App"><polygon fill="#181818" points="254.875,108.4297,264.875,112.4297,254.875,116.4297,258.875,112.4297" style="stroke:#181818;stroke-width:1;"/><line style="stroke:#181818;stroke-width:1;" x1="34.6021" x2="260.875" y1="112.4297" y2="112.4297"/><text fill="#000000" font-family="sans-serif" font-size="13" lengthAdjust="spacing" textLength="208.2729" x="41.6021" y="107.3638">Consulta candidatos (matr&#237;cula)</text></g><g class="message" data-participant-1="App" data-participant-2="BD"><polygon fill="#181818" points="514.7856,137.5625,524.7856,141.5625,514.7856,145.5625,518.7856,141.5625" style="stroke:#181818;stroke-width:1;"/><line style="stroke:#181818;stroke-width:1;" x1="266.875" x2="520.7856" y1="141.5625" y2="141.5625"/><text fill="#000000" font-family="sans-serif" font-size="13" lengthAdjust="spacing" textLength="200.5098" x="273.875" y="136.4966">getDadosCandidato(matr&#237;cula)</text></g><g class="message" data-participant-1="BD" data-participant-2="App"><polygon fill="#181818" points="277.875,166.6953,267.875,170.6953,277.875,174.6953,273.875,170.6953" style="stroke:#181818;stroke-width:1;"/><line style="stroke:#181818;stroke-width:1;stroke-dasharray:2,2;" x1="271.875" x2="525.7856" y1="170.6953" y2="170.6953"/><text fill="#000000" font-family="sans-serif" font-size="13" lengthAdjust="spacing" textLength="235.9106" x="283.875" y="165.6294">Dados candidato + metadados docs</text></g><g class="message" data-participant-1="App" data-participant-2="C"><polygon fill="#181818" points="45.6021,195.8281,35.6021,199.8281,45.6021,203.8281,41.6021,199.8281" style="stroke:#181818;stroke-width:1;"/><line style="stroke:#181818;stroke-width:1;stroke-dasharray:2,2;" x1="39.6021" x2="265.875" y1="199.8281" y2="199.8281"/><text fill="#000000" font-family="sans-serif" font-size="13" lengthAdjust="spacing" textLength="201.627" x="51.6021" y="194.7622">Exibe dados e op&#231;&#227;o download</text></g><g class="message" data-participant-1="C" data-participant-2="App"><polygon fill="#181818" points="254.875,224.9609,264.875,228.9609,254.875,232.9609,258.875,228.9609" style="stroke:#181818;stroke-width:1;"/><line style="stroke:#181818;stroke-width:1;" x1="34.6021" x2="260.875" y1="228.9609" y2="228.9609"/><text fill="#000000" font-family="sans-serif" font-size="13" lengthAdjust="spacing" textLength="198.6943" x="41.6021" y="223.895">Solicita download documentos</text></g><g class="message" data-participant-1="App" data-participant-2="BD"><polygon fill="#181818" points="514.7856,254.0938,524.7856,258.0938,514.7856,262.0938,518.7856,258.0938" style="stroke:#181818;stroke-width:1;"/><line style="stroke:#181818;stroke-width:1;" x1="266.875" x2="520.7856" y1="258.0938" y2="258.0938"/><text fill="#000000" font-family="sans-serif" font-size="13" lengthAdjust="spacing" textLength="231.6514" x="273.875" y="253.0278">downloadDocumentos(candidatoId)</text></g><g class="message" data-participant-1="BD" data-participant-2="App"><polygon fill="#181818" points="277.875,283.2266,267.875,287.2266,277.875,291.2266,273.875,287.2266" style="stroke:#181818;stroke-width:1;"/><line style="stroke:#181818;stroke-width:1;stroke-dasharray:2,2;" x1="271.875" x2="525.7856" y1="287.2266" y2="287.2266"/><text fill="#000000" font-family="sans-serif" font-size="13" lengthAdjust="spacing" textLength="119.9199" x="283.875" y="282.1606">Arquivos PDF/DOC</text></g><g class="message" data-participant-1="App" data-participant-2="C"><polygon fill="#181818" points="45.6021,312.3594,35.6021,316.3594,45.6021,320.3594,41.6021,316.3594" style="stroke:#181818;stroke-width:1;"/><line style="stroke:#181818;stroke-width:1;stroke-dasharray:2,2;" x1="39.6021" x2="265.875" y1="316.3594" y2="316.3594"/><text fill="#000000" font-family="sans-serif" font-size="13" lengthAdjust="spacing" textLength="134.748" x="51.6021" y="311.2935">Download dispon&#237;vel</text></g><g class="message" data-participant-1="C" data-participant-2="App"><polygon fill="#181818" points="254.875,341.4922,264.875,345.4922,254.875,349.4922,258.875,345.4922" style="stroke:#181818;stroke-width:1;"/><line style="stroke:#181818;stroke-width:1;" x1="34.6021" x2="260.875" y1="345.4922" y2="345.4922"/><text fill="#000000" font-family="sans-serif" font-size="13" lengthAdjust="spacing" textLength="124.7505" x="41.6021" y="340.4263">Valida documentos</text></g><g class="message" data-participant-1="App" data-participant-2="App"><line style="stroke:#181818;stroke-width:1;" x1="266.875" x2="308.875" y1="374.625" y2="374.625"/><line style="stroke:#181818;stroke-width:1;" x1="308.875" x2="308.875" y1="374.625" y2="387.625"/><line style="stroke:#181818;stroke-width:1;" x1="267.875" x2="308.875" y1="387.625" y2="387.625"/><polygon fill="#181818" points="277.875,383.625,267.875,387.625,277.875,391.625,273.875,387.625" style="stroke:#181818;stroke-width:1;"/><text fill="#000000" font-family="sans-serif" font-size="13" lengthAdjust="spacing" textLength="186.8306" x="273.875" y="369.5591">checkValidadeDocumentos()</text></g><g class="message" data-participant-1="App" data-participant-2="C"><polygon fill="#181818" points="45.6021,412.7578,35.6021,416.7578,45.6021,420.7578,41.6021,416.7578" style="stroke:#181818;stroke-width:1;"/><line style="stroke:#181818;stroke-width:1;stroke-dasharray:2,2;" x1="39.6021" x2="265.875" y1="416.7578" y2="416.7578"/><text fill="#000000" font-family="sans-serif" font-size="13" lengthAdjust="spacing" textLength="202.2681" x="51.6021" y="411.6919">Resultado valida&#231;&#227;o (OK/Erros)</text></g><g class="message" data-participant-1="C" data-participant-2="App"><polygon fill="#181818" points="254.875,441.8906,264.875,445.8906,254.875,449.8906,258.875,445.8906" style="stroke:#181818;stroke-width:1;"/><line style="stroke:#181818;stroke-width:1;" x1="34.6021" x2="260.875" y1="445.8906" y2="445.8906"/><text fill="#000000" font-family="sans-serif" font-size="13" lengthAdjust="spacing" textLength="152.3628" x="41.6021" y="440.8247">Inicia prepara&#231;&#227;o envio</text></g><g class="message" data-participant-1="App" data-participant-2="App"><line style="stroke:#181818;stroke-width:1;" x1="266.875" x2="308.875" y1="475.0234" y2="475.0234"/><line style="stroke:#181818;stroke-width:1;" x1="308.875" x2="308.875" y1="475.0234" y2="488.0234"/><line style="stroke:#181818;stroke-width:1;" x1="267.875" x2="308.875" y1="488.0234" y2="488.0234"/><polygon fill="#181818" points="277.875,484.0234,267.875,488.0234,277.875,492.0234,273.875,488.0234" style="stroke:#181818;stroke-width:1;"/><text fill="#000000" font-family="sans-serif" font-size="13" lengthAdjust="spacing" textLength="156.4126" x="273.875" y="469.9575">compactaDocumentos()</text></g><g class="message" data-participant-1="App" data-participant-2="BD"><polygon fill="#181818" points="514.7856,513.1563,524.7856,517.1563,514.7856,521.1563,518.7856,517.1563" style="stroke:#181818;stroke-width:1;"/><line style="stroke:#181818;stroke-width:1;" x1="266.875" x2="520.7856" y1="517.1563" y2="517.1563"/><text fill="#000000" font-family="sans-serif" font-size="13" lengthAdjust="spacing" textLength="209.0854" x="273.875" y="512.0903">uploadZip(candidatoId, arquivo)</text></g><g class="message" data-participant-1="BD" data-participant-2="App"><polygon fill="#181818" points="277.875,542.2891,267.875,546.2891,277.875,550.2891,273.875,546.2891" style="stroke:#181818;stroke-width:1;"/><line style="stroke:#181818;stroke-width:1;stroke-dasharray:2,2;" x1="271.875" x2="525.7856" y1="546.2891" y2="546.2891"/><text fill="#000000" font-family="sans-serif" font-size="13" lengthAdjust="spacing" textLength="127.0801" x="283.875" y="541.2231">URL compartilh&#225;vel</text></g><g class="message" data-participant-1="C" data-participant-2="App"><polygon fill="#181818" points="254.875,571.4219,264.875,575.4219,254.875,579.4219,258.875,575.4219" style="stroke:#181818;stroke-width:1;"/><line style="stroke:#181818;stroke-width:1;" x1="34.6021" x2="260.875" y1="575.4219" y2="575.4219"/><text fill="#000000" font-family="sans-serif" font-size="13" lengthAdjust="spacing" textLength="142.0479" x="41.6021" y="570.356">Seleciona avaliadores</text></g><g class="message" data-participant-1="App" data-participant-2="Email"><polygon fill="#181818" points="656.6919,600.5547,666.6919,604.5547,656.6919,608.5547,660.6919,604.5547" style="stroke:#181818;stroke-width:1;"/><line style="stroke:#181818;stroke-width:1;" x1="266.875" x2="662.6919" y1="604.5547" y2="604.5547"/><text fill="#000000" font-family="sans-serif" font-size="13" lengthAdjust="spacing" textLength="212.8306" x="273.875" y="599.4888">enviaNotifica&#231;&#227;o(avaliador, URL)</text></g><g class="message" data-participant-1="Email" data-participant-2="Aval"><polygon fill="#181818" points="780.4707,629.6875,790.4707,633.6875,780.4707,637.6875,784.4707,633.6875" style="stroke:#181818;stroke-width:1;"/><line style="stroke:#181818;stroke-width:1;stroke-dasharray:2,2;" x1="668.6919" x2="786.4707" y1="633.6875" y2="633.6875"/><text fill="#000000" font-family="sans-serif" font-size="13" lengthAdjust="spacing" textLength="99.7788" x="675.6919" y="628.6216">E-mail com link</text></g><g class="message" data-participant-1="Aval" data-participant-2="BD"><polygon fill="#181818" points="537.7856,658.8203,527.7856,662.8203,537.7856,666.8203,533.7856,662.8203" style="stroke:#181818;stroke-width:1;"/><line style="stroke:#181818;stroke-width:1;" x1="531.7856" x2="791.4707" y1="662.8203" y2="662.8203"/><text fill="#000000" font-family="sans-serif" font-size="13" lengthAdjust="spacing" textLength="199.5005" x="543.7856" y="657.7544">GET URL (acessa documentos)</text></g><g class="message" data-participant-1="BD" data-participant-2="Aval"><polygon fill="#181818" points="780.4707,687.9531,790.4707,691.9531,780.4707,695.9531,784.4707,691.9531" style="stroke:#181818;stroke-width:1;"/><line style="stroke:#181818;stroke-width:1;stroke-dasharray:2,2;" x1="526.7856" x2="786.4707" y1="691.9531" y2="691.9531"/><text fill="#000000" font-family="sans-serif" font-size="13" lengthAdjust="spacing" textLength="121.9639" x="533.7856" y="686.8872">Serve arquivos ZIP</text></g><g class="message" data-participant-1="Aval" data-participant-2="App"><polygon fill="#181818" points="277.875,717.0859,267.875,721.0859,277.875,725.0859,273.875,721.0859" style="stroke:#181818;stroke-width:1;"/><line style="stroke:#181818;stroke-width:1;" x1="271.875" x2="791.4707" y1="721.0859" y2="721.0859"/><text fill="#000000" font-family="sans-serif" font-size="13" lengthAdjust="spacing" textLength="154.8511" x="283.875" y="716.02">GET Formul&#225;rio barema</text></g><g class="message" data-participant-1="App" data-participant-2="Aval"><polygon fill="#181818" points="780.4707,746.2188,790.4707,750.2188,780.4707,754.2188,784.4707,750.2188" style="stroke:#181818;stroke-width:1;"/><line style="stroke:#181818;stroke-width:1;stroke-dasharray:2,2;" x1="266.875" x2="786.4707" y1="750.2188" y2="750.2188"/><text fill="#000000" font-family="sans-serif" font-size="13" lengthAdjust="spacing" textLength="124.4902" x="273.875" y="745.1528">Formul&#225;rio barema</text></g><g class="message" data-participant-1="Aval" data-participant-2="App"><polygon fill="#181818" points="277.875,775.3516,267.875,779.3516,277.875,783.3516,273.875,779.3516" style="stroke:#181818;stroke-width:1;"/><line style="stroke:#181818;stroke-width:1;" x1="271.875" x2="791.4707" y1="779.3516" y2="779.3516"/><text fill="#000000" font-family="sans-serif" font-size="13" lengthAdjust="spacing" textLength="166.4229" x="283.875" y="774.2856">POST Barema preenchido</text></g><g class="message" data-participant-1="App" data-participant-2="C"><polygon fill="#181818" points="45.6021,804.4844,35.6021,808.4844,45.6021,812.4844,41.6021,808.4844" style="stroke:#181818;stroke-width:1;"/><line style="stroke:#181818;stroke-width:1;" x1="39.6021" x2="265.875" y1="808.4844" y2="808.4844"/><text fill="#000000" font-family="sans-serif" font-size="13" lengthAdjust="spacing" textLength="177.3281" x="51.6021" y="803.4185">Notifica "Barema recebido"</text></g><g class="message" data-participant-1="C" data-participant-2="App"><polygon fill="#181818" points="254.875,833.6172,264.875,837.6172,254.875,841.6172,258.875,837.6172" style="stroke:#181818;stroke-width:1;"/><line style="stroke:#181818;stroke-width:1;" x1="34.6021" x2="260.875" y1="837.6172" y2="837.6172"/><text fill="#000000" font-family="sans-serif" font-size="13" lengthAdjust="spacing" textLength="170.4917" x="41.6021" y="832.5513">Visualiza todas avalia&#231;&#245;es</text></g><g class="message" data-participant-1="App" data-participant-2="App"><line style="stroke:#181818;stroke-width:1;" x1="266.875" x2="308.875" y1="866.75" y2="866.75"/><line style="stroke:#181818;stroke-width:1;" x1="308.875" x2="308.875" y1="866.75" y2="879.75"/><line style="stroke:#181818;stroke-width:1;" x1="267.875" x2="308.875" y1="879.75" y2="879.75"/><polygon fill="#181818" points="277.875,875.75,267.875,879.75,277.875,883.75,273.875,879.75" style="stroke:#181818;stroke-width:1;"/><text fill="#000000" font-family="sans-serif" font-size="13" lengthAdjust="spacing" textLength="127.5308" x="273.875" y="861.6841">calculaResultados()</text></g><g class="message" data-participant-1="App" data-participant-2="C"><polygon fill="#181818" points="45.6021,904.8828,35.6021,908.8828,45.6021,912.8828,41.6021,908.8828" style="stroke:#181818;stroke-width:1;"/><line style="stroke:#181818;stroke-width:1;stroke-dasharray:2,2;" x1="39.6021" x2="265.875" y1="908.8828" y2="908.8828"/><text fill="#000000" font-family="sans-serif" font-size="13" lengthAdjust="spacing" textLength="160.3989" x="51.6021" y="903.8169">Ranking final candidatos</text></g><path d="M479,921.8828 L479,991.8828 L839,991.8828 L839,931.8828 L829,921.8828 L479,921.8828" fill="#FEFFDD" style="stroke:#181818;stroke-width:0.5;"/><path d="M829,921.8828 L829,931.8828 L839,931.8828 L829,921.8828" fill="#FEFFDD" style="stroke:#181818;stroke-width:0.5;"/><text fill="#000000" font-family="sans-serif" font-size="13" font-weight="bold" lengthAdjust="spacing" textLength="132.4756" x="564.2737" y="938.9497">Problema comum:</text><text fill="#000000" font-family="sans-serif" font-size="13" lengthAdjust="spacing" textLength="167.1846" x="564.2737" y="954.0825">Avaliadores externos t&#234;m</text><text fill="#000000" font-family="sans-serif" font-size="13" lengthAdjust="spacing" textLength="181.0542" x="564.2737" y="969.2153">problemas de acesso ao BD</text><text fill="#000000" font-family="sans-serif" font-size="13" lengthAdjust="spacing" textLength="150.1919" x="564.2737" y="984.3481">(firewall, autentica&#231;&#227;o)</text><!--SRC=[RLJBJXj14BplLxHyYQs0K5wN5KAolIP2YOA58P6uzUuqC69sPZFx0ELlK0v8aJZc2_R7qZF3hiU4c-qkLrTNTGyMZR4mkQZR_i5ACm6iOPbKQ1jPo0fr0vDvfMI1_MF_sy0FoZraNbMxe0Ngme0Wo52OscCMsIvaGxQJ_QD7hVPBbCh3LkvJWa77l4CbcS66BlmjITx0CTO4xr9O6bstga7WDkPEAuCYMSB-aPCJLGlKGWfiJ0tJ4XlRFnMjmbd2A0TUP2bSK-E5BWVe3d2HmVx0wc5RIdWB9JKe_A_257LWPVGoXTMzp0b2ZS1KmJCnI8sqRWnxAbdhK7HSRKcQHSSwXt8sLgUZb1EngtHkVxQouzRhxFWWErt6ohAnZQmhe_kdZhREla_XEzikdZCcM5lYvCBNI7G0lQBKLuiRAcu3H52aTnRhE2CVaJ3GHHsdfryELjQQUXPxTABP8eGg4WEaEsbssvgoukN1_pi61zlApNqfgzYuFS1Wrgw35sTV0nzlhRhf7sAJFd1ef6Ymw9jfvDLm5d6mZ2caqGWuh3ADFlbLJ_qGk4Cm7S5xJiGiySWWZ2lfyxquSQ2alXrLVKmXd4pGuJuFWtzUdVk1fbXGNSUnROVstEukQJ2aXikJzSZZHt94nyQMhV9F1EHegSGnrK3o6Y0cMPzkpc7X2ovHqiMD56EIl1c37-ufyIXB1UMCcOp3VWetRiR5YNTJrYtxy0kXCOAV3XnS-KilrXILE_9n4LykAEfRgQ_XIcfMltr9aaIRXc-w8-idtkFN3U0mFrfRaokdbxDfo_Jm83_YmdmRFj1zGrQpiqt_f-HQzVoFsZs4FXm3QC0JJg-afJjKYZUqRJYjOKDc2Ma1JiC_]--></g></svg>