<svg xmlns="http://www.w3.org/2000/svg" xmlns:xlink="http://www.w3.org/1999/xlink" contentStyleType="text/css" data-diagram-type="STATE" height="1985px" preserveAspectRatio="none" style="width:1191px;height:1985px;background:#FFFFFF;" version="1.1" viewBox="0 0 1191 1985" width="1191px" zoomAndPan="magnify"><defs/><g><!--cluster EmValidacao--><g class="cluster" data-entity="EmValidacao" data-source-line="5" data-uid="ent0002" id="cluster_EmValidacao"><path d="M19.5,351 L447.5,351 A12.5,12.5 0 0 1 460,363.5 L460,372.2969 L7,372.2969 L7,363.5 A12.5,12.5 0 0 1 19.5,351" fill="#F1F1F1"/><rect fill="none" height="480.53" rx="12.5" ry="12.5" style="stroke:#181818;stroke-width:0.5;" width="453" x="7" y="351"/><line style="stroke:#181818;stroke-width:0.5;" x1="7" x2="460" y1="372.2969" y2="372.2969"/><text fill="#000000" font-family="sans-serif" font-size="14" lengthAdjust="spacing" textLength="90.7266" x="188.1367" y="367.9951">EmValidacao</text></g><!--cluster EmAvaliacao--><g class="cluster" data-entity="EmAvaliacao" data-source-line="16" data-uid="ent0003" id="cluster_EmAvaliacao"><path d="M512.5,743.53 L982.5,743.53 A12.5,12.5 0 0 1 995,756.03 L995,764.8269 L500,764.8269 L500,756.03 A12.5,12.5 0 0 1 512.5,743.53" fill="#F1F1F1"/><rect fill="none" height="864.3" rx="12.5" ry="12.5" style="stroke:#181818;stroke-width:0.5;" width="495" x="500" y="743.53"/><line style="stroke:#181818;stroke-width:0.5;" x1="500" x2="995" y1="764.8269" y2="764.8269"/><text fill="#000000" font-family="sans-serif" font-size="14" lengthAdjust="spacing" textLength="90.125" x="702.4375" y="760.5251">EmAvaliacao</text></g><!--cluster Classificado--><g class="cluster" data-entity="Classificado" data-source-line="34" data-uid="ent0005" id="cluster_Classificado"><path d="M457.5,1672.83 L901.5,1672.83 A12.5,12.5 0 0 1 914,1685.33 L914,1694.1269 L445,1694.1269 L445,1685.33 A12.5,12.5 0 0 1 457.5,1672.83" fill="#F1F1F1"/><rect fill="none" height="214" rx="12.5" ry="12.5" style="stroke:#181818;stroke-width:0.5;" width="469" x="445" y="1672.83"/><line style="stroke:#181818;stroke-width:0.5;" x1="445" x2="914" y1="1694.1269" y2="1694.1269"/><text fill="#000000" font-family="sans-serif" font-size="14" lengthAdjust="spacing" textLength="83.2686" x="637.8657" y="1689.8251">Classificado</text></g><ellipse cx="187" cy="404" fill="#222222" rx="10" ry="10" style="stroke:#222222;stroke-width:1;"/><g id="EmValidacao.Analisando"><rect fill="#F1F1F1" height="50" rx="12.5" ry="12.5" style="stroke:#181818;stroke-width:0.5;" width="97.0068" x="138.5" y="475"/><line style="stroke:#181818;stroke-width:0.5;" x1="138.5" x2="235.5068" y1="501.2969" y2="501.2969"/><text fill="#000000" font-family="sans-serif" font-size="14" lengthAdjust="spacing" textLength="77.0068" x="148.5" y="492.9951">Analisando</text></g><g id="EmValidacao.Validado"><rect fill="#F1F1F1" height="50" rx="12.5" ry="12.5" style="stroke:#181818;stroke-width:0.5;" width="80.8535" x="217.57" y="612.27"/><line style="stroke:#181818;stroke-width:0.5;" x1="217.57" x2="298.4235" y1="638.5669" y2="638.5669"/><text fill="#000000" font-family="sans-serif" font-size="14" lengthAdjust="spacing" textLength="60.8535" x="227.57" y="630.2651">Validado</text></g><g id="EmValidacao.ComPendencia"><rect fill="#F1F1F1" height="50" rx="12.5" ry="12.5" style="stroke:#181818;stroke-width:0.5;" width="124.4463" x="30.78" y="612.27"/><line style="stroke:#181818;stroke-width:0.5;" x1="30.78" x2="155.2263" y1="638.5669" y2="638.5669"/><text fill="#000000" font-family="sans-serif" font-size="14" lengthAdjust="spacing" textLength="104.4463" x="40.78" y="630.2651">ComPendencia</text></g><g id="EmValidacao.Rejeitado"><rect fill="#F1F1F1" height="50" rx="12.5" ry="12.5" style="stroke:#181818;stroke-width:0.5;" width="86.2539" x="341.87" y="612.27"/><line style="stroke:#181818;stroke-width:0.5;" x1="341.87" x2="428.1239" y1="638.5669" y2="638.5669"/><text fill="#000000" font-family="sans-serif" font-size="14" lengthAdjust="spacing" textLength="66.2539" x="351.87" y="630.2651">Rejeitado</text></g><ellipse cx="93" cy="796.53" fill="none" rx="11" ry="11" style="stroke:#222222;stroke-width:1;"/><ellipse cx="93" cy="796.53" fill="#222222" rx="6" ry="6" style="stroke:#222222;stroke-width:1;"/><path d="M536.41,886.53 L697.5819,886.53 A12.5,12.5 0 0 1 710.0819,899.03 L710.0819,912.8269 L523.91,912.8269 L523.91,899.03 A12.5,12.5 0 0 1 536.41,886.53" fill="#F1F1F1"/><rect fill="none" height="316.2969" rx="12.5" ry="12.5" style="stroke:#181818;stroke-width:0.5;" width="186.1719" x="523.91" y="886.53"/><line style="stroke:#181818;stroke-width:0.5;" x1="523.91" x2="710.0819" y1="912.8269" y2="912.8269"/><text fill="#000000" font-family="sans-serif" font-size="14" lengthAdjust="spacing" textLength="141.8115" x="546.0902" y="904.5251">Problema de Acesso</text><ellipse cx="581.39" cy="933.8269" fill="#222222" rx="10" ry="10" style="stroke:#222222;stroke-width:1;"/><g id="EmAvaliacao.Problema.Notificado"><rect fill="#F1F1F1" height="50" rx="12.5" ry="12.5" style="stroke:#181818;stroke-width:0.5;" width="90.9639" x="535.91" y="980.8269"/><line style="stroke:#181818;stroke-width:0.5;" x1="535.91" x2="626.8739" y1="1007.1238" y2="1007.1238"/><text fill="#000000" font-family="sans-serif" font-size="14" lengthAdjust="spacing" textLength="70.9639" x="545.91" y="998.822">Notificado</text></g><g id="EmAvaliacao.Problema.Resolvido"><rect fill="#F1F1F1" height="50" rx="12.5" ry="12.5" style="stroke:#181818;stroke-width:0.5;" width="87.7168" x="537.53" y="1083.8269"/><line style="stroke:#181818;stroke-width:0.5;" x1="537.53" x2="625.2468" y1="1110.1238" y2="1110.1238"/><text fill="#000000" font-family="sans-serif" font-size="14" lengthAdjust="spacing" textLength="67.7168" x="547.53" y="1101.822">Resolvido</text></g><ellipse cx="581.39" cy="1181.8269" fill="none" rx="11" ry="11" style="stroke:#222222;stroke-width:1;"/><ellipse cx="581.39" cy="1181.8269" fill="#222222" rx="6" ry="6" style="stroke:#222222;stroke-width:1;"/><!--link *start*Problema to Notificado--><g class="link" data-entity-1=".start.Problema" data-entity-2="Notificado" data-source-line="23" data-uid="lnk33" id="link_.start.Problema_Notificado"><path d="M581.39,944.2669 C581.39,953.5269 581.39,962.0169 581.39,974.5069" fill="none" id="*start*Problema-to-Notificado" style="stroke:#181818;stroke-width:1;"/><polygon fill="#181818" points="581.39,980.5069,585.39,971.5069,581.39,975.5069,577.39,971.5069,581.39,980.5069" style="stroke:#181818;stroke-width:1;"/></g><!--link Notificado to Resolvido--><g class="link" data-entity-1="Notificado" data-entity-2="Resolvido" data-source-line="24" data-uid="lnk35" id="link_Notificado_Resolvido"><path d="M581.39,1031.2769 C581.39,1047.1569 581.39,1061.7669 581.39,1077.6069" fill="none" id="Notificado-to-Resolvido" style="stroke:#181818;stroke-width:1;"/><polygon fill="#181818" points="581.39,1083.6069,585.39,1074.6069,581.39,1078.6069,577.39,1074.6069,581.39,1083.6069" style="stroke:#181818;stroke-width:1;"/><text fill="#000000" font-family="sans-serif" font-size="13" lengthAdjust="spacing" textLength="117.6919" x="582.39" y="1061.8938">Corre&#231;&#227;o aplicada</text></g><!--link Resolvido to *end*Problema--><g class="link" data-entity-1="Resolvido" data-entity-2=".end.Problema" data-source-line="25" data-uid="lnk37" id="link_Resolvido_.end.Problema"><path d="M581.39,1134.2569 C581.39,1146.6169 581.39,1154.9569 581.39,1164.4269" fill="none" id="Resolvido-to-*end*Problema" style="stroke:#181818;stroke-width:1;"/><polygon fill="#181818" points="581.39,1170.4269,585.39,1161.4269,581.39,1165.4269,577.39,1161.4269,581.39,1170.4269" style="stroke:#181818;stroke-width:1;"/></g><ellipse cx="839" cy="796.53" fill="#222222" rx="10" ry="10" style="stroke:#222222;stroke-width:1;"/><g id="EmAvaliacao.AguardandoAvaliadores"><rect fill="#F1F1F1" height="50" rx="12.5" ry="12.5" style="stroke:#181818;stroke-width:0.5;" width="187.3779" x="745.31" y="1019.68"/><line style="stroke:#181818;stroke-width:0.5;" x1="745.31" x2="932.6879" y1="1045.9769" y2="1045.9769"/><text fill="#000000" font-family="sans-serif" font-size="14" lengthAdjust="spacing" textLength="167.3779" x="755.31" y="1037.6751">AguardandoAvaliadores</text></g><g id="EmAvaliacao.SendoAvaliado"><rect fill="#F1F1F1" height="50" rx="12.5" ry="12.5" style="stroke:#181818;stroke-width:0.5;" width="124.0771" x="606.96" y="1279.83"/><line style="stroke:#181818;stroke-width:0.5;" x1="606.96" x2="731.0371" y1="1306.1269" y2="1306.1269"/><text fill="#000000" font-family="sans-serif" font-size="14" lengthAdjust="spacing" textLength="104.0771" x="616.96" y="1297.8251">SendoAvaliado</text></g><g id="EmAvaliacao.AvaliadoParcial"><rect fill="#F1F1F1" height="50" rx="12.5" ry="12.5" style="stroke:#181818;stroke-width:0.5;" width="127.085" x="685.46" y="1406.83"/><line style="stroke:#181818;stroke-width:0.5;" x1="685.46" x2="812.545" y1="1433.1269" y2="1433.1269"/><text fill="#000000" font-family="sans-serif" font-size="14" lengthAdjust="spacing" textLength="107.085" x="695.46" y="1424.8251">AvaliadoParcial</text></g><g id="EmAvaliacao.TotalmenteAvaliado"><rect fill="#F1F1F1" height="50" rx="12.5" ry="12.5" style="stroke:#181818;stroke-width:0.5;" width="160.5537" x="722.72" y="1533.83"/><line style="stroke:#181818;stroke-width:0.5;" x1="722.72" x2="883.2737" y1="1560.1269" y2="1560.1269"/><text fill="#000000" font-family="sans-serif" font-size="14" lengthAdjust="spacing" textLength="140.5537" x="732.72" y="1551.8251">TotalmenteAvaliado</text></g><ellipse cx="629" cy="1725.83" fill="#222222" rx="10" ry="10" style="stroke:#222222;stroke-width:1;"/><g id="Classificado.Aprovado"><rect fill="#F1F1F1" height="50" rx="12.5" ry="12.5" style="stroke:#181818;stroke-width:0.5;" width="87.1016" x="469.45" y="1812.83"/><line style="stroke:#181818;stroke-width:0.5;" x1="469.45" x2="556.5516" y1="1839.1269" y2="1839.1269"/><text fill="#000000" font-family="sans-serif" font-size="14" lengthAdjust="spacing" textLength="67.1016" x="479.45" y="1830.8251">Aprovado</text></g><g id="Classificado.EmListaEspera"><rect fill="#F1F1F1" height="50" rx="12.5" ry="12.5" style="stroke:#181818;stroke-width:0.5;" width="123.5098" x="594.25" y="1812.83"/><line style="stroke:#181818;stroke-width:0.5;" x1="594.25" x2="717.7598" y1="1839.1269" y2="1839.1269"/><text fill="#000000" font-family="sans-serif" font-size="14" lengthAdjust="spacing" textLength="103.5098" x="604.25" y="1830.8251">EmListaEspera</text></g><g id="Classificado.Reprovado"><rect fill="#F1F1F1" height="50" rx="12.5" ry="12.5" style="stroke:#181818;stroke-width:0.5;" width="95.8652" x="777.07" y="1812.83"/><line style="stroke:#181818;stroke-width:0.5;" x1="777.07" x2="872.9352" y1="1839.1269" y2="1839.1269"/><text fill="#000000" font-family="sans-serif" font-size="14" lengthAdjust="spacing" textLength="75.8652" x="787.07" y="1830.8251">Reprovado</text></g><ellipse cx="452" cy="16" fill="#222222" rx="10" ry="10" style="stroke:#222222;stroke-width:1;"/><g id="Cadastrado"><rect fill="#F1F1F1" height="50" rx="12.5" ry="12.5" style="stroke:#181818;stroke-width:0.5;" width="100.3906" x="401.8" y="103"/><line style="stroke:#181818;stroke-width:0.5;" x1="401.8" x2="502.1906" y1="129.2969" y2="129.2969"/><text fill="#000000" font-family="sans-serif" font-size="14" lengthAdjust="spacing" textLength="80.3906" x="411.8" y="120.9951">Cadastrado</text></g><g id="DocumentosBaixados"><rect fill="#F1F1F1" height="50" rx="12.5" ry="12.5" style="stroke:#181818;stroke-width:0.5;" width="172.0723" x="365.96" y="230"/><line style="stroke:#181818;stroke-width:0.5;" x1="365.96" x2="538.0323" y1="256.2969" y2="256.2969"/><text fill="#000000" font-family="sans-serif" font-size="14" lengthAdjust="spacing" textLength="152.0723" x="375.96" y="247.9951">DocumentosBaixados</text></g><ellipse cx="752" cy="1968.83" fill="none" rx="11" ry="11" style="stroke:#222222;stroke-width:1;"/><ellipse cx="752" cy="1968.83" fill="#222222" rx="6" ry="6" style="stroke:#222222;stroke-width:1;"/><g class="entity" data-entity="GMN2" data-source-line="45" data-uid="ent0003" id="entity_GMN2"><path d="M536.88,107.87 L536.88,124 L502.36,128 L536.88,132 L536.88,148.1356 A0,0 0 0 0 536.88,148.1356 L749.1285,148.1356 A0,0 0 0 0 749.1285,148.1356 L749.1285,117.87 L739.1285,107.87 L536.88,107.87 A0,0 0 0 0 536.88,107.87" fill="#FEFFDD" style="stroke:#181818;stroke-width:0.5;"/><path d="M739.1285,107.87 L739.1285,117.87 L749.1285,117.87 L739.1285,107.87" fill="#FEFFDD" style="stroke:#181818;stroke-width:0.5;"/><text fill="#000000" font-family="sans-serif" font-size="13" lengthAdjust="spacing" textLength="156.2539" x="542.88" y="124.9369">Dados b&#225;sicos inseridos</text><text fill="#000000" font-family="sans-serif" font-size="13" lengthAdjust="spacing" textLength="191.2485" x="542.88" y="140.0697">manualmente pelo candidato</text></g><g class="entity" data-entity="GMN5" data-source-line="50" data-uid="ent0006" id="entity_GMN5"><path d="M483.57,602 L483.57,633.27 L428.35,637.27 L483.57,641.27 L483.57,672.5313 A0,0 0 0 0 483.57,672.5313 L672.4211,672.5313 A0,0 0 0 0 672.4211,672.5313 L672.4211,612 L662.4211,602 L483.57,602 A0,0 0 0 0 483.57,602" fill="#FEFFDD" style="stroke:#181818;stroke-width:0.5;"/><path d="M662.4211,602 L662.4211,612 L672.4211,612 L662.4211,602" fill="#FEFFDD" style="stroke:#181818;stroke-width:0.5;"/><text fill="#000000" font-family="sans-serif" font-size="13" font-weight="bold" lengthAdjust="spacing" textLength="123.8364" x="489.57" y="619.0669">Motivos comuns:</text><text fill="#000000" font-family="sans-serif" font-size="13" lengthAdjust="spacing" textLength="167.8511" x="489.57" y="634.1997">- Documentos falsificados</text><text fill="#000000" font-family="sans-serif" font-size="13" lengthAdjust="spacing" textLength="98.376" x="489.57" y="649.3325">- Fora do prazo</text><text fill="#000000" font-family="sans-serif" font-size="13" lengthAdjust="spacing" textLength="88.3467" x="489.57" y="664.4653">- Incompletos</text></g><!--link *start* to Cadastrado--><g class="link" data-entity-1=".start." data-entity-2="Cadastrado" data-source-line="1" data-uid="lnk4" id="link_.start._Cadastrado"><path d="M452,26.38 C452,43.11 452,72.6 452,96.63" fill="none" id="*start*-to-Cadastrado" style="stroke:#181818;stroke-width:1;"/><polygon fill="#181818" points="452,102.63,456,93.63,452,97.63,448,93.63,452,102.63" style="stroke:#181818;stroke-width:1;"/><text fill="#000000" font-family="sans-serif" font-size="13" lengthAdjust="spacing" textLength="153.8418" x="453" y="69.0669">Candidato insere dados</text></g><!--link Cadastrado to DocumentosBaixados--><g class="link" data-entity-1="Cadastrado" data-entity-2="DocumentosBaixados" data-source-line="2" data-uid="lnk6" id="link_Cadastrado_DocumentosBaixados"><path d="M452,153.4 C452,175.43 452,201.66 452,223.67" fill="none" id="Cadastrado-to-DocumentosBaixados" style="stroke:#181818;stroke-width:1;"/><polygon fill="#181818" points="452,229.67,456,220.67,452,224.67,448,220.67,452,229.67" style="stroke:#181818;stroke-width:1;"/><text fill="#000000" font-family="sans-serif" font-size="13" lengthAdjust="spacing" textLength="169.4507" x="453" y="196.0669">Download de documentos</text></g><!--link DocumentosBaixados to EmValidacao--><g class="link" data-entity-1="DocumentosBaixados" data-entity-2="EmValidacao" data-source-line="3" data-uid="lnk7" id="link_DocumentosBaixados_EmValidacao"><path d="M452,280.28 C452,290.555 452,303.205 452,316.4387 C452,323.0556 452,329.8184 452,336.5033 C452,339.8457 452,343.1686 452,346.4441 C452,347.2629 452,348.0788 452,348.8913 C452,349.2976 452,349.703 452,350.1075 C452,350.3097 452,344.5117 452,344.7135" fill="none" id="DocumentosBaixados-to-EmValidacao" style="stroke:#181818;stroke-width:1;"/><polygon fill="#181818" points="452,350.7135,456,341.7135,452,345.7135,448,341.7135,452,350.7135" style="stroke:#181818;stroke-width:1;"/><text fill="#000000" font-family="sans-serif" font-size="13" lengthAdjust="spacing" textLength="100.7119" x="453" y="323.0669">Inicia valida&#231;&#227;o</text></g><!--link *start*EmValidacao to Analisando--><g class="link" data-entity-1=".start.EmValidacao" data-entity-2="Analisando" data-source-line="6" data-uid="lnk10" id="link_.start.EmValidacao_Analisando"><path d="M187,414.36 C187,428.29 187,448.96 187,468.65" fill="none" id="*start*EmValidacao-to-Analisando" style="stroke:#181818;stroke-width:1;"/><polygon fill="#181818" points="187,474.65,191,465.65,187,469.65,183,465.65,187,474.65" style="stroke:#181818;stroke-width:1;"/></g><!--link Analisando to Validado--><g class="link" data-entity-1="Analisando" data-entity-2="Validado" data-source-line="7" data-uid="lnk12" id="link_Analisando_Validado"><path d="M180.64,525.39 C178.21,539.61 177.4,557.52 184,572 C191.27,587.95 199.9377,597.7815 213.3577,608.2415" fill="none" id="Analisando-to-Validado" style="stroke:#181818;stroke-width:1;"/><polygon fill="#181818" points="218.09,611.93,213.4505,603.2423,214.1464,608.8562,208.5325,609.5521,218.09,611.93" style="stroke:#181818;stroke-width:1;"/><text fill="#000000" font-family="sans-serif" font-size="13" lengthAdjust="spacing" textLength="104.9648" x="185" y="568.0669">Documentos OK</text></g><!--link Analisando to ComPendencia--><g class="link" data-entity-1="Analisando" data-entity-2="ComPendencia" data-source-line="8" data-uid="lnk14" id="link_Analisando_ComPendencia"><path d="M138.06,516.17 C119.64,524.53 100.6,536.97 90,555 C79.98,572.04 80.5431,588.8874 84.2631,605.9674" fill="none" id="Analisando-to-ComPendencia" style="stroke:#181818;stroke-width:1;"/><polygon fill="#181818" points="85.54,611.83,87.5331,602.1849,84.476,606.9445,79.7163,603.8874,85.54,611.83" style="stroke:#181818;stroke-width:1;"/><text fill="#000000" font-family="sans-serif" font-size="13" lengthAdjust="spacing" textLength="79.041" x="91" y="568.0669">Faltam docs</text></g><!--link Analisando to Rejeitado--><g class="link" data-entity-1="Analisando" data-entity-2="Rejeitado" data-source-line="9" data-uid="lnk16" id="link_Analisando_Rejeitado"><path d="M235.92,522.36 C254.7,531.4 275.95,542.7 294,555 C318.68,571.82 339.4961,590.559 357.0661,607.789" fill="none" id="Analisando-to-Rejeitado" style="stroke:#181818;stroke-width:1;"/><polygon fill="#181818" points="361.35,611.99,357.7248,602.8326,357.7801,608.4892,352.1235,608.5444,361.35,611.99" style="stroke:#181818;stroke-width:1;"/><text fill="#000000" font-family="sans-serif" font-size="13" lengthAdjust="spacing" textLength="93.7295" x="316.42" y="568.0669">Docs inv&#225;lidos</text></g><!--link ComPendencia to *end*EmValidacao--><g class="link" data-entity-1="ComPendencia" data-entity-2=".end.EmValidacao" data-source-line="10" data-uid="lnk18" id="link_ComPendencia_.end.EmValidacao"><path d="M93,662.5 C93,697.48 93,754.63 93,779.29" fill="none" id="ComPendencia-to-*end*EmValidacao" style="stroke:#181818;stroke-width:1;"/><polygon fill="#181818" points="93,785.29,97,776.29,93,780.29,89,776.29,93,785.29" style="stroke:#181818;stroke-width:1;"/><text fill="#000000" font-family="sans-serif" font-size="13" lengthAdjust="spacing" textLength="115.9019" x="94" y="715.5969">Aguarda corre&#231;&#227;o</text></g><!--link Validado to EmAvaliacao--><g class="link" data-entity-1="Validado" data-entity-2="EmAvaliacao" data-source-line="13" data-uid="lnk19" id="link_Validado_EmAvaliacao"><path d="M298.86,662.62 C306.96,666.53 315.57,670.09 324,672.53 C561.79,741.34 632.29,699.22 879,719.53 C890.11,720.45 970.97,719.8 979,727.53 C981.6538,730.0875 983.782,733.0228 985.4732,736.2069 C986.3188,737.799 987.0551,739.4533 987.6932,741.1536 C987.8527,741.5787 988.0061,742.0066 988.1535,742.4372 C988.2272,742.6525 988.2994,742.8685 988.3702,743.0851 C988.4055,743.1934 986.6172,737.5856 986.6518,737.6942" fill="none" id="Validado-to-EmAvaliacao" style="stroke:#181818;stroke-width:1;"/><polygon fill="#181818" points="988.4752,743.4104,989.551,733.6205,986.9557,738.6469,981.9293,736.0516,988.4752,743.4104" style="stroke:#181818;stroke-width:1;"/><text fill="#000000" font-family="sans-serif" font-size="13" lengthAdjust="spacing" textLength="147.9639" x="880" y="715.5969">Enviado p/ avaliadores</text></g><!--link Rejeitado to *end*--><g class="link" data-entity-1="Rejeitado" data-entity-2=".end." data-source-line="14" data-uid="lnk21" id="link_Rejeitado_.end."><path d="M428.21,659.81 C440.17,664.86 453.35,669.62 466,672.53 C527.37,686.68 983.66,662.17 1032,702.53 C1064.6,729.76 1054,753.06 1054,795.53 C1054,795.53 1054,795.53 1054,1838.83 C1054,1967.68 824.6283,1969.7146 769.4683,1968.3846" fill="none" id="Rejeitado-to-*end*" style="stroke:#181818;stroke-width:1;"/><polygon fill="#181818" points="763.47,1968.24,772.371,1972.4558,768.4685,1968.3605,772.5638,1964.4581,763.47,1968.24" style="stroke:#181818;stroke-width:1;"/><text fill="#000000" font-family="sans-serif" font-size="13" lengthAdjust="spacing" textLength="128.1592" x="1055" y="1436.3969">Processo encerrado</text></g><!--link *start*EmAvaliacao to AguardandoAvaliadores--><g class="link" data-entity-1=".start.EmAvaliacao" data-entity-2="AguardandoAvaliadores" data-source-line="17" data-uid="lnk24" id="link_.start.EmAvaliacao_AguardandoAvaliadores"><path d="M839,806.88 C839,841.92 839,960.16 839,1013.29" fill="none" id="*start*EmAvaliacao-to-AguardandoAvaliadores" style="stroke:#181818;stroke-width:1;"/><polygon fill="#181818" points="839,1019.29,843,1010.29,839,1014.29,835,1010.29,839,1019.29" style="stroke:#181818;stroke-width:1;"/></g><!--link AguardandoAvaliadores to SendoAvaliado--><g class="link" data-entity-1="AguardandoAvaliadores" data-entity-2="SendoAvaliado" data-source-line="18" data-uid="lnk26" id="link_AguardandoAvaliadores_SendoAvaliado"><path d="M836.08,1070.16 C830.01,1111.55 812.56,1196.08 767,1249.83 C756.83,1261.83 748.5006,1268.6928 734.7306,1276.4928" fill="none" id="AguardandoAvaliadores-to-SendoAvaliado" style="stroke:#181818;stroke-width:1;"/><polygon fill="#181818" points="729.51,1279.45,739.3124,1278.4946,733.8605,1276.9857,735.3695,1271.5338,729.51,1279.45" style="stroke:#181818;stroke-width:1;"/><text fill="#000000" font-family="sans-serif" font-size="13" lengthAdjust="spacing" textLength="155.0161" x="778.64" y="1245.8969">1+ avaliadores aceitam</text></g><!--link SendoAvaliado to AvaliadoParcial--><g class="link" data-entity-1="SendoAvaliado" data-entity-2="AvaliadoParcial" data-source-line="19" data-uid="lnk28" id="link_SendoAvaliado_AvaliadoParcial"><path d="M684.61,1330.23 C698.71,1352.25 716.1057,1379.4364 730.1857,1401.4364" fill="none" id="SendoAvaliado-to-AvaliadoParcial" style="stroke:#181818;stroke-width:1;"/><polygon fill="#181818" points="733.42,1406.49,731.9376,1396.7533,730.7247,1402.2786,725.1994,1401.0658,733.42,1406.49" style="stroke:#181818;stroke-width:1;"/><text fill="#000000" font-family="sans-serif" font-size="13" lengthAdjust="spacing" textLength="115.1528" x="714.79" y="1372.8969">Recebe 1 barema</text></g><!--link AvaliadoParcial to TotalmenteAvaliado--><g class="link" data-entity-1="AvaliadoParcial" data-entity-2="TotalmenteAvaliado" data-source-line="20" data-uid="lnk30" id="link_AvaliadoParcial_TotalmenteAvaliado"><path d="M759.54,1457.23 C769.05,1479.25 780.5993,1505.9825 790.1093,1527.9825" fill="none" id="AvaliadoParcial-to-TotalmenteAvaliado" style="stroke:#181818;stroke-width:1;"/><polygon fill="#181818" points="792.49,1533.49,792.5906,1523.6417,790.5061,1528.9004,785.2473,1526.816,792.49,1533.49" style="stroke:#181818;stroke-width:1;"/><text fill="#000000" font-family="sans-serif" font-size="13" lengthAdjust="spacing" textLength="167.4321" x="780.23" y="1499.8969">Todos baremas recebidos</text></g><!--link SendoAvaliado to Problema--><g class="link" data-entity-1="SendoAvaliado" data-entity-2="Problema" data-source-line="28" data-uid="lnk38" id="link_SendoAvaliado_Problema"><path d="M658.22,1279.48 C654.52,1270.33 650.65,1259.74 648,1249.83 C644,1234.85 641.6274,1224.9873 638.5174,1209.1673" fill="none" id="SendoAvaliado-to-Problema" style="stroke:#181818;stroke-width:1;"/><polygon fill="#181818" points="637.36,1203.28,635.1712,1212.8826,638.3245,1208.1861,643.0209,1211.3394,637.36,1203.28" style="stroke:#181818;stroke-width:1;"/><text fill="#000000" font-family="sans-serif" font-size="13" lengthAdjust="spacing" textLength="113.3818" x="649" y="1245.8969">Avaliador reporta</text></g><!--link Problema to SendoAvaliado--><g class="link" data-entity-1="Problema" data-entity-2="SendoAvaliado" data-source-line="29" data-uid="lnk39" id="link_Problema_SendoAvaliado"><path d="M570.76,1203.2 C572.02,1219.49 576.05,1235.36 584,1249.83 C590.65,1261.93 596.305,1268.3708 607.845,1276.1008" fill="none" id="Problema-to-SendoAvaliado" style="stroke:#181818;stroke-width:1;"/><polygon fill="#181818" points="612.83,1279.44,607.5786,1271.1079,608.6759,1276.6574,603.1264,1277.7546,612.83,1279.44" style="stroke:#181818;stroke-width:1;"/><text fill="#000000" font-family="sans-serif" font-size="13" lengthAdjust="spacing" textLength="50.7114" x="585" y="1245.8969">Retoma</text></g><!--link TotalmenteAvaliado to Classificado--><g class="link" data-entity-1="TotalmenteAvaliado" data-entity-2="Classificado" data-source-line="32" data-uid="lnk40" id="link_TotalmenteAvaliado_Classificado"><path d="M836,1583.95 C857.46,1601.59 883.97,1627.48 898,1656.83 C899.59,1660.155 900.9122,1663.6719 902.0081,1667.2854 C902.5561,1669.0921 901.6542,1665.0871 902.0943,1666.9302" fill="none" id="TotalmenteAvaliado-to-Classificado" style="stroke:#181818;stroke-width:1;"/><polygon fill="#181818" points="903.4875,1672.7662,905.2883,1663.0834,902.3265,1667.9029,897.507,1664.941,903.4875,1672.7662" style="stroke:#181818;stroke-width:1;"/><text fill="#000000" font-family="sans-serif" font-size="13" lengthAdjust="spacing" textLength="126.147" x="893.87" y="1644.8969">Notas consolidadas</text></g><!--link *start*Classificado to Aprovado--><g class="link" data-entity-1=".start.Classificado" data-entity-2="Aprovado" data-source-line="35" data-uid="lnk43" id="link_.start.Classificado_Aprovado"><path d="M618.97,1727.85 C599.08,1730.41 554.55,1738.99 531,1765.83 C519.76,1778.64 516.0135,1791.5257 514.3635,1806.5857" fill="none" id="*start*Classificado-to-Aprovado" style="stroke:#181818;stroke-width:1;"/><polygon fill="#181818" points="513.71,1812.55,518.6664,1804.0392,514.2546,1807.5797,510.714,1803.1679,513.71,1812.55" style="stroke:#181818;stroke-width:1;"/><text fill="#000000" font-family="sans-serif" font-size="13" lengthAdjust="spacing" textLength="83.4399" x="532" y="1778.8969">Nota &#8805; corte</text></g><!--link *start*Classificado to EmListaEspera--><g class="link" data-entity-1=".start.Classificado" data-entity-2="EmListaEspera" data-source-line="36" data-uid="lnk45" id="link_.start.Classificado_EmListaEspera"><path d="M626.89,1735.73 C624.6,1746.91 621.8,1766.62 626,1782.83 C628.66,1793.11 630.7058,1798.3396 635.9458,1807.2396" fill="none" id="*start*Classificado-to-EmListaEspera" style="stroke:#181818;stroke-width:1;"/><polygon fill="#181818" points="638.99,1812.41,637.8707,1802.625,636.4532,1808.1013,630.9768,1806.6838,638.99,1812.41" style="stroke:#181818;stroke-width:1;"/><text fill="#000000" font-family="sans-serif" font-size="13" lengthAdjust="spacing" textLength="126.0327" x="627" y="1778.8969">Nota pr&#243;xima corte</text></g><!--link *start*Classificado to Reprovado--><g class="link" data-entity-1=".start.Classificado" data-entity-2="Reprovado" data-source-line="37" data-uid="lnk47" id="link_.start.Classificado_Reprovado"><path d="M636.75,1732.43 C638.72,1733.67 640.88,1734.9 643,1735.83 C691.37,1757.04 712.55,1738.91 758,1765.83 C777.83,1777.58 791.7901,1792.1644 804.0001,1807.6844" fill="none" id="*start*Classificado-to-Reprovado" style="stroke:#181818;stroke-width:1;"/><polygon fill="#181818" points="807.71,1812.4,805.2889,1802.8534,804.6184,1808.4703,799.0015,1807.7999,807.71,1812.4" style="stroke:#181818;stroke-width:1;"/><text fill="#000000" font-family="sans-serif" font-size="13" lengthAdjust="spacing" textLength="83.4399" x="780.3" y="1778.8969">Nota &lt; corte</text></g><!--link Aprovado to *end*--><g class="link" data-entity-1="Aprovado" data-entity-2=".end." data-source-line="40" data-uid="lnk48" id="link_Aprovado_.end."><path d="M502.9,1863.26 C496.54,1882.98 492.06,1910.25 507,1927.83 C537.7,1963.95 690.5701,1967.4905 734.6501,1967.7805" fill="none" id="Aprovado-to-*end*" style="stroke:#181818;stroke-width:1;"/><polygon fill="#181818" points="740.65,1967.82,731.6765,1963.7609,735.6501,1967.7871,731.6239,1971.7607,740.65,1967.82" style="stroke:#181818;stroke-width:1;"/><text fill="#000000" font-family="sans-serif" font-size="13" lengthAdjust="spacing" textLength="134.3799" x="508" y="1923.8969">Carta oferta enviada</text></g><!--link EmListaEspera to *end*--><g class="link" data-entity-1="EmListaEspera" data-entity-2=".end." data-source-line="41" data-uid="lnk49" id="link_EmListaEspera_.end."><path d="M649.85,1863.26 C646.49,1882.47 645.26,1909.02 658,1927.83 C677.1,1956.02 714.4622,1963.7198 734.9322,1966.1598" fill="none" id="EmListaEspera-to-*end*" style="stroke:#181818;stroke-width:1;"/><polygon fill="#181818" points="740.89,1966.87,732.4267,1961.8329,735.9251,1966.2782,731.4798,1969.7766,740.89,1966.87" style="stroke:#181818;stroke-width:1;"/><text fill="#000000" font-family="sans-serif" font-size="13" lengthAdjust="spacing" textLength="132.5137" x="659" y="1923.8969">Aguarda desist&#234;ncia</text></g><!--link Reprovado to *end*--><g class="link" data-entity-1="Reprovado" data-entity-2=".end." data-source-line="42" data-uid="lnk50" id="link_Reprovado_.end."><path d="M822.18,1863.11 C819.08,1881.98 812.74,1908.17 800,1927.83 C789.97,1943.31 777.2111,1952.7273 766.3311,1959.4173" fill="none" id="Reprovado-to-*end*" style="stroke:#181818;stroke-width:1;"/><polygon fill="#181818" points="761.22,1962.56,770.9818,1961.2533,765.4792,1959.941,766.7915,1954.4385,761.22,1962.56" style="stroke:#181818;stroke-width:1;"/><text fill="#000000" font-family="sans-serif" font-size="13" lengthAdjust="spacing" textLength="128.6162" x="809.27" y="1923.8969">Notifica&#231;&#227;o enviada</text></g><!--SRC=[RLHBQXj14DtFAGel4upnLWY1OijWyZEAoSPaKPefEHrwkeRkbc8IV80SmuGGo3P7c9la9Adg-Li2WPZgL-zLlQhkknUVuFHq0HTOO8WU2uQPVBZ251WPZ0la2Gg9Xso4qPHBpdSbkSZX5Pe7HKZg9Nzrbh60Gh9wG7O4gnIhyYDQKSfHPQ-ToGt2FeNgt_LFph8GCT84zpq3k6khNZe91wcM9JXyfBCc8_KpgCFxruV82ovlo1NaL7q6LsWZbbfzECIkwGkPsDC6SMXVFuaIAtZ2f70jT0RB-ntw0Y5dxwbfx37B-W8R9vRQT-l4oksDdbHdW2bSiAUG3U83zutdd49W457oEfp1j85oObfJZNIq7773yNZA-42Ze6YUlnoN1PXhLQLGJ859hFsuGI-UM4bUKquRWdFOeASILVWPHlDkEQBLcT58zvPrSPgy05w9MkFbrpHz8dvih9ph0YwJCoSWu3wiJWnUlEDejYR7j40m-co77TZkJNCd-ja1LbOnc586J3iJYJus5HswqLSnwvlsqaV5FYfRVtpCz3L55hjaSOvuazROOWXT-JFjHVhEsKbzkcSOkiMO02URKNdU3zdmxySltTb88yogV6E4PXKgyjW1Ar__VJ0b7g3Nz8notaAaZLvjMEOB52E0jwH_b2u1PbF5mrjLK93p-ezUkcmG783TL9lfTRIPO_72c_lFKHH73w2KVvbUg4tz54pEeNa5TTDqgYMwNMi_L6GPykwrp6HYeAmjjwLjekwlhMJFDuktKiwUTJJbpeNP_6opa8FJyIkrHTiDAAIpAvRMzK7m-8rJvDf9VcL9NzTEzpy0]--></g></svg>