<svg xmlns="http://www.w3.org/2000/svg" xmlns:xlink="http://www.w3.org/1999/xlink" contentStyleType="text/css" data-diagram-type="DESCRIPTION" height="1378px" preserveAspectRatio="none" style="width:1185px;height:1378px;background:#FFFFFF;" version="1.1" viewBox="0 0 1185 1378" width="1185px" zoomAndPan="magnify"><defs/><g><!--cluster Sistema de Sele??o IC/Pesquisa--><g class="cluster" data-entity="Sistema de Sele..o IC.Pesquisa" data-source-line="7" data-uid="ent0005" id="cluster_Sistema de Sele..o IC.Pesquisa"><rect fill="none" height="1221" rx="2.5" ry="2.5" style="stroke:#181818;stroke-width:1;" width="688.14" x="491.64" y="61.35"/><text fill="#000000" font-family="sans-serif" font-size="14" font-weight="bold" lengthAdjust="spacing" textLength="250.0654" x="710.6773" y="76.3451">Sistema de Sele&#231;&#227;o IC/Pesquisa</text></g><!--entity UC1--><g class="entity" data-entity="UC1" data-source-line="8" data-uid="ent0006" id="entity_UC1"><ellipse cx="640.6312" cy="646.3482" fill="#F1F1F1" rx="92.9912" ry="20.9982" style="stroke:#181818;stroke-width:0.5;"/><text fill="#000000" font-family="sans-serif" font-size="14" lengthAdjust="spacing" textLength="160.4805" x="560.391" y="650.9967">Consultar dados no BD</text></g><!--entity UC2--><g class="entity" data-entity="UC2" data-source-line="9" data-uid="ent0007" id="entity_UC2"><ellipse cx="1031.1941" cy="358.3468" fill="#F1F1F1" rx="132.5841" ry="28.9168" style="stroke:#181818;stroke-width:0.5;"/><text fill="#000000" font-family="sans-serif" font-size="14" lengthAdjust="spacing" textLength="246.0254" x="908.1814" y="362.9953">Baixar documentos dos candidatos</text></g><!--entity UC3--><g class="entity" data-entity="UC3" data-source-line="10" data-uid="ent0008" id="entity_UC3"><ellipse cx="640.6277" cy="571.3475" fill="#F1F1F1" rx="84.0377" ry="19.2075" style="stroke:#181818;stroke-width:0.5;"/><text fill="#000000" font-family="sans-serif" font-size="14" lengthAdjust="spacing" textLength="140.1025" x="570.5764" y="575.996">Validar documentos</text></g><!--entity UC4--><g class="entity" data-entity="UC4" data-source-line="11" data-uid="ent0009" id="entity_UC4"><ellipse cx="640.6298" cy="729.348" fill="#F1F1F1" rx="121.8398" ry="26.768" style="stroke:#181818;stroke-width:0.5;"/><text fill="#000000" font-family="sans-serif" font-size="14" lengthAdjust="spacing" textLength="223.2754" x="528.9921" y="733.9964">Preparar arquivos compactados</text></g><!--entity UC5--><g class="entity" data-entity="UC5" data-source-line="12" data-uid="ent0010" id="entity_UC5"><ellipse cx="640.6315" cy="817.3543" fill="#F1F1F1" rx="117.6215" ry="25.9243" style="stroke:#181818;stroke-width:0.5;"/><text fill="#000000" font-family="sans-serif" font-size="14" lengthAdjust="spacing" textLength="214.2725" x="533.4953" y="822.0027">Selecionar lista de avaliadores</text></g><!--entity UC6--><g class="entity" data-entity="UC6" data-source-line="13" data-uid="ent0011" id="entity_UC6"><ellipse cx="640.6305" cy="123.3541" fill="#F1F1F1" rx="125.3205" ry="27.4641" style="stroke:#181818;stroke-width:0.5;"/><text fill="#000000" font-family="sans-serif" font-size="14" lengthAdjust="spacing" textLength="230.6719" x="525.2946" y="128.0025">Enviar documentos para sistema</text></g><!--entity UC7--><g class="entity" data-entity="UC7" data-source-line="14" data-uid="ent0012" id="entity_UC7"><ellipse cx="640.6322" cy="212.3484" fill="#F1F1F1" rx="119.3422" ry="26.2684" style="stroke:#181818;stroke-width:0.5;"/><text fill="#000000" font-family="sans-serif" font-size="14" lengthAdjust="spacing" textLength="217.9502" x="531.6571" y="216.9969">Notificar avaliadores via e-mail</text></g><!--entity UC8--><g class="entity" data-entity="UC8" data-source-line="15" data-uid="ent0013" id="entity_UC8"><ellipse cx="640.6341" cy="297.3468" fill="#F1F1F1" rx="108.3841" ry="24.0768" style="stroke:#181818;stroke-width:0.5;"/><text fill="#000000" font-family="sans-serif" font-size="14" lengthAdjust="spacing" textLength="194.3799" x="543.4442" y="301.9953">Receber retorno do barema</text></g><!--entity UC9--><g class="entity" data-entity="UC9" data-source-line="16" data-uid="ent0014" id="entity_UC9"><ellipse cx="1031.1905" cy="162.3501" fill="#F1F1F1" rx="89.4505" ry="20.2901" style="stroke:#181818;stroke-width:0.5;"/><text fill="#000000" font-family="sans-serif" font-size="14" lengthAdjust="spacing" textLength="152.4961" x="954.9425" y="166.9985">Consolidar avalia&#231;&#245;es</text></g><!--entity UC10--><g class="entity" data-entity="UC10" data-source-line="18" data-uid="ent0015" id="entity_UC10"><ellipse cx="640.6259" cy="904.3512" fill="#F1F1F1" rx="117.9059" ry="25.9812" style="stroke:#181818;stroke-width:0.5;"/><text fill="#000000" font-family="sans-serif" font-size="14" lengthAdjust="spacing" textLength="214.8809" x="533.1855" y="908.9996">Receber notifica&#231;&#227;o por e-mail</text></g><!--entity UC11--><g class="entity" data-entity="UC11" data-source-line="19" data-uid="ent0016" id="entity_UC11"><ellipse cx="640.6299" cy="992.348" fill="#F1F1F1" rx="123.5399" ry="27.108" style="stroke:#181818;stroke-width:0.5;"/><text fill="#000000" font-family="sans-serif" font-size="14" lengthAdjust="spacing" textLength="226.8916" x="527.1841" y="996.9964">Acessar documentos no sistema</text></g><!--entity UC12--><g class="entity" data-entity="UC12" data-source-line="20" data-uid="ent0017" id="entity_UC12"><ellipse cx="640.6287" cy="1081.3517" fill="#F1F1F1" rx="121.6087" ry="26.7217" style="stroke:#181818;stroke-width:0.5;"/><text fill="#000000" font-family="sans-serif" font-size="14" lengthAdjust="spacing" textLength="222.7832" x="529.2371" y="1086.0002">Preencher barema de avalia&#231;&#227;o</text></g><!--entity UC13--><g class="entity" data-entity="UC13" data-source-line="21" data-uid="ent0018" id="entity_UC13"><ellipse cx="640.6284" cy="1247.3457" fill="#F1F1F1" rx="83.9284" ry="19.1857" style="stroke:#181818;stroke-width:0.5;"/><text fill="#000000" font-family="sans-serif" font-size="14" lengthAdjust="spacing" textLength="139.8496" x="570.7036" y="1251.9941">Submeter avalia&#231;&#227;o</text></g><!--entity UC14--><g class="entity" data-entity="UC14" data-source-line="23" data-uid="ent0019" id="entity_UC14"><ellipse cx="640.628" cy="1168.3536" fill="#F1F1F1" rx="114.268" ry="25.2536" style="stroke:#181818;stroke-width:0.5;"/><text fill="#000000" font-family="sans-serif" font-size="14" lengthAdjust="spacing" textLength="207.0811" x="537.0875" y="1173.002">Reportar problema de acesso</text></g><!--entity UC15--><g class="entity" data-entity="UC15" data-source-line="24" data-uid="ent0020" id="entity_UC15"><ellipse cx="640.6333" cy="385.3467" fill="#F1F1F1" rx="132.9833" ry="28.9967" style="stroke:#181818;stroke-width:0.5;"/><text fill="#000000" font-family="sans-serif" font-size="14" lengthAdjust="spacing" textLength="246.8662" x="517.2002" y="389.9951">Validar integridade de documentos</text></g><!--entity UC16--><g class="entity" data-entity="UC16" data-source-line="25" data-uid="ent0021" id="entity_UC16"><ellipse cx="640.6294" cy="467.3519" fill="#F1F1F1" rx="79.0594" ry="18.2119" style="stroke:#181818;stroke-width:0.5;"/><text fill="#000000" font-family="sans-serif" font-size="14" lengthAdjust="spacing" textLength="128.4541" x="576.4024" y="472.0003">Rejeitar candidato</text></g><!--entity Usuario--><g class="entity" data-entity="Usuario" data-source-line="3" data-uid="ent0002" id="entity_Usuario"><ellipse cx="250.2021" cy="262.71" fill="#F1F1F1" rx="8" ry="8" style="stroke:#181818;stroke-width:0.5;"/><path d="M250.2021,270.71 L250.2021,297.71 M237.2021,278.71 L263.2021,278.71 M250.2021,297.71 L237.2021,312.71 M250.2021,297.71 L263.2021,312.71" fill="none" style="stroke:#181818;stroke-width:0.5;"/><text fill="#000000" font-family="sans-serif" font-size="14" lengthAdjust="spacing" textLength="53.2041" x="223.6" y="327.2051">Usu&#225;rio</text></g><!--entity AvaliadorInt--><g class="entity" data-entity="AvaliadorInt" data-source-line="4" data-uid="ent0003" id="entity_AvaliadorInt"><ellipse cx="66.3784" cy="1076.71" fill="#F1F1F1" rx="8" ry="8" style="stroke:#181818;stroke-width:0.5;"/><path d="M66.3784,1084.71 L66.3784,1111.71 M53.3784,1092.71 L79.3784,1092.71 M66.3784,1111.71 L53.3784,1126.71 M66.3784,1111.71 L79.3784,1126.71" fill="none" style="stroke:#181818;stroke-width:0.5;"/><text fill="#000000" font-family="sans-serif" font-size="14" lengthAdjust="spacing" textLength="120.7568" x="6" y="1141.2051">Avaliador Interno</text></g><!--entity AvaliadorExt--><g class="entity" data-entity="AvaliadorExt" data-source-line="5" data-uid="ent0004" id="entity_AvaliadorExt"><ellipse cx="250.2029" cy="1167.71" fill="#F1F1F1" rx="8" ry="8" style="stroke:#181818;stroke-width:0.5;"/><path d="M250.2029,1175.71 L250.2029,1202.71 M237.2029,1183.71 L263.2029,1183.71 M250.2029,1202.71 L237.2029,1217.71 M250.2029,1202.71 L263.2029,1217.71" fill="none" style="stroke:#181818;stroke-width:0.5;"/><text fill="#000000" font-family="sans-serif" font-size="14" lengthAdjust="spacing" textLength="124.8857" x="187.76" y="1232.2051">Avaliador Externo</text></g><g class="entity" data-entity="GMN46" data-source-line="63" data-uid="ent0047" id="entity_GMN46"><path d="M545.11,1301.09 L545.11,1371.6213 L736.1383,1371.6213 L736.1383,1311.09 L726.1383,1301.09 L545.11,1301.09" fill="#FEFFDD" style="stroke:#181818;stroke-width:0.5;"/><path d="M726.1383,1301.09 L726.1383,1311.09 L736.1383,1311.09 L726.1383,1301.09" fill="#FEFFDD" style="stroke:#181818;stroke-width:1;"/><text fill="#000000" font-family="sans-serif" font-size="13" font-weight="bold" lengthAdjust="spacing" textLength="166.8228" x="551.11" y="1318.1569">Problema identificado:</text><text fill="#000000" font-family="sans-serif" font-size="13" lengthAdjust="spacing" textLength="120.6055" x="551.11" y="1333.2897">Acesso ao sistema</text><text fill="#000000" font-family="sans-serif" font-size="13" lengthAdjust="spacing" textLength="142.2319" x="551.11" y="1348.4225">frequentemente falha</text><text fill="#000000" font-family="sans-serif" font-size="13" lengthAdjust="spacing" textLength="170.0283" x="551.11" y="1363.5553">para avaliadores externos</text></g><!--link Usuario to UC1--><g class="link" data-entity-1="Usuario" data-entity-2="UC1" data-source-line="29" data-uid="lnk22" id="link_Usuario_UC1"><path d="M276.92,311.86 C294.68,324.65 319.22,341.04 342.64,352.35 C398.7,379.44 438.24,346.58 475.64,396.35 C489.8,415.2 468.73,590.1 483.64,608.35 C499.51,627.78 517.6413,636.9555 542.0813,642.3555" fill="none" id="Usuario-to-UC1" style="stroke:#181818;stroke-width:1;"/><polygon fill="#181818" points="547.94,643.65,540.0149,637.8025,543.0578,642.5713,538.289,645.6141,547.94,643.65" style="stroke:#181818;stroke-width:1;"/></g><!--link Usuario to UC2--><g class="link" data-entity-1="Usuario" data-entity-2="UC2" data-source-line="30" data-uid="lnk23" id="link_Usuario_UC2"><path d="M276.19,253.83 C313.6,200.51 389.88,107.49 483.64,78.35 C606.71,40.11 655.65,26.45 773.61,78.35 C804.31,91.86 944.479,256.2373 1002.259,324.9673" fill="none" id="Usuario-to-UC2" style="stroke:#181818;stroke-width:1;"/><polygon fill="#181818" points="1006.12,329.56,1003.3903,320.097,1002.9025,325.7328,997.2667,325.245,1006.12,329.56" style="stroke:#181818;stroke-width:1;"/></g><!--link Usuario to UC3--><g class="link" data-entity-1="Usuario" data-entity-2="UC3" data-source-line="31" data-uid="lnk24" id="link_Usuario_UC3"><path d="M277.09,295.83 C330.63,303.6 450.65,324.17 475.64,355.35 C496.24,381.06 464.86,476.3 483.64,503.35 C504.28,533.08 535.1195,548.2516 567.6895,557.7416" fill="none" id="Usuario-to-UC3" style="stroke:#181818;stroke-width:1;"/><polygon fill="#181818" points="573.45,559.42,565.9283,553.062,568.6496,558.0213,563.6904,560.7426,573.45,559.42" style="stroke:#181818;stroke-width:1;"/></g><!--link Usuario to UC4--><g class="link" data-entity-1="Usuario" data-entity-2="UC4" data-source-line="32" data-uid="lnk25" id="link_Usuario_UC4"><path d="M277.12,329.48 C293.7,350.79 316.88,376.57 342.64,393.35 C394.82,427.33 438.37,387.48 475.64,437.35 C492.08,459.35 466.78,662.68 483.64,684.35 C495.76,699.93 507.2892,708.2509 525.8192,715.1709" fill="none" id="Usuario-to-UC4" style="stroke:#181818;stroke-width:1;"/><polygon fill="#181818" points="531.44,717.27,524.4081,710.3741,526.756,715.5208,521.6093,717.8686,531.44,717.27" style="stroke:#181818;stroke-width:1;"/></g><!--link Usuario to UC5--><g class="link" data-entity-1="Usuario" data-entity-2="UC5" data-source-line="33" data-uid="lnk26" id="link_Usuario_UC5"><path d="M267.06,330.74 C282.11,362.71 307.64,407.24 342.64,434.35 C391.86,472.48 438.5,428.38 475.64,478.35 C495.2,504.67 463.5,747.48 483.64,773.35 C496.09,789.34 508.2165,797.8004 527.3465,804.6004" fill="none" id="Usuario-to-UC5" style="stroke:#181818;stroke-width:1;"/><polygon fill="#181818" points="533,806.61,525.8595,799.8266,528.2888,804.9353,523.1801,807.3646,533,806.61" style="stroke:#181818;stroke-width:1;"/></g><!--link Usuario to UC6--><g class="link" data-entity-1="Usuario" data-entity-2="UC6" data-source-line="34" data-uid="lnk27" id="link_Usuario_UC6"><path d="M277.13,272.47 C294.97,259.29 319.54,242.15 342.64,229.35 C411.72,191.09 491.4878,163.9624 552.9878,146.1124" fill="none" id="Usuario-to-UC6" style="stroke:#181818;stroke-width:1;"/><polygon fill="#181818" points="558.75,144.44,548.9917,143.1072,553.9482,145.8337,551.2217,150.7901,558.75,144.44" style="stroke:#181818;stroke-width:1;"/></g><!--link Usuario to UC7--><g class="link" data-entity-1="Usuario" data-entity-2="UC7" data-source-line="35" data-uid="lnk28" id="link_Usuario_UC7"><path d="M277.09,285.04 C295.34,280.01 320.39,273.37 342.64,268.35 C409.95,253.19 480.5622,239.8781 539.0722,229.4981" fill="none" id="Usuario-to-UC7" style="stroke:#181818;stroke-width:1;"/><polygon fill="#181818" points="544.98,228.45,535.4197,226.0836,540.0569,229.3234,536.8171,233.9606,544.98,228.45" style="stroke:#181818;stroke-width:1;"/></g><!--link Usuario to UC8--><g class="link" data-entity-1="Usuario" data-entity-2="UC8" data-source-line="36" data-uid="lnk29" id="link_Usuario_UC8"><path d="M277.29,292.69 C328.57,293.35 439.1005,294.7729 526.2505,295.8929" fill="none" id="Usuario-to-UC8" style="stroke:#181818;stroke-width:1;"/><polygon fill="#181818" points="532.25,295.97,523.3021,291.8547,527.2504,295.9057,523.1993,299.854,532.25,295.97" style="stroke:#181818;stroke-width:1;"/></g><!--link Usuario to UC9--><g class="link" data-entity-1="Usuario" data-entity-2="UC9" data-source-line="37" data-uid="lnk30" id="link_Usuario_UC9"><path d="M260.99,253.82 C273.53,211.37 299.03,143.42 342.64,100.35 C391.74,51.87 416.24,50.14 483.64,35.35 C609.52,7.74 648.12,6 773.61,35.35 C862.66,56.19 951.2441,109.3723 996.8441,139.5023" fill="none" id="Usuario-to-UC9" style="stroke:#181818;stroke-width:1;"/><polygon fill="#181818" points="1001.85,142.81,996.5462,134.5112,997.6784,140.0536,992.136,141.1858,1001.85,142.81" style="stroke:#181818;stroke-width:1;"/></g><!--link AvaliadorInt to UC10--><g class="link" data-entity-1="AvaliadorInt" data-entity-2="UC10" data-source-line="39" data-uid="lnk31" id="link_AvaliadorInt_UC10"><path d="M71.63,1067.81 C86,958.43 143.63,645.84 342.64,519.35 C392.53,487.65 433.36,478.05 475.64,519.35 C489.2,532.6 472.03,845.38 483.64,860.35 C496.06,876.36 508.1765,884.8404 527.3065,891.6404" fill="none" id="AvaliadorInt-to-UC10" style="stroke:#181818;stroke-width:1;"/><polygon fill="#181818" points="532.96,893.65,525.8195,886.8666,528.2488,891.9753,523.1401,894.4046,532.96,893.65" style="stroke:#181818;stroke-width:1;"/></g><!--link AvaliadorInt to UC11--><g class="link" data-entity-1="AvaliadorInt" data-entity-2="UC11" data-source-line="40" data-uid="lnk32" id="link_AvaliadorInt_UC11"><path d="M126.96,1086.25 C136.9,1082.92 147.12,1079.53 156.76,1076.35 C239.22,1049.21 257.5,1033.3 342.64,1016.35 C399.59,1005.02 457.7103,999.3614 511.7403,996.1914" fill="none" id="AvaliadorInt-to-UC11" style="stroke:#181818;stroke-width:1;"/><polygon fill="#181818" points="517.73,995.84,508.5112,992.374,512.7386,996.1329,508.9797,1000.3603,517.73,995.84" style="stroke:#181818;stroke-width:1;"/></g><!--link AvaliadorInt to UC12--><g class="link" data-entity-1="AvaliadorInt" data-entity-2="UC12" data-source-line="41" data-uid="lnk33" id="link_AvaliadorInt_UC12"><path d="M127,1103.75 C219.82,1099.69 394.6757,1092.0519 514.8357,1086.8019" fill="none" id="AvaliadorInt-to-UC12" style="stroke:#181818;stroke-width:1;"/><polygon fill="#181818" points="520.83,1086.54,511.664,1082.9367,515.8348,1086.7583,512.0132,1090.929,520.83,1086.54" style="stroke:#181818;stroke-width:1;"/></g><!--link AvaliadorInt to UC13--><g class="link" data-entity-1="AvaliadorInt" data-entity-2="UC13" data-source-line="42" data-uid="lnk34" id="link_AvaliadorInt_UC13"><path d="M86.09,1144.68 C105.84,1180.28 140.65,1231.05 187.76,1253.35 C319.82,1315.9 493.0781,1285.7112 580.8581,1263.8312" fill="none" id="AvaliadorInt-to-UC13" style="stroke:#181818;stroke-width:1;"/><polygon fill="#181818" points="586.68,1262.38,576.9798,1260.6755,581.8284,1263.5893,578.9146,1268.438,586.68,1262.38" style="stroke:#181818;stroke-width:1;"/></g><!--link AvaliadorExt to UC10--><g class="link" data-entity-1="AvaliadorExt" data-entity-2="UC10" data-source-line="44" data-uid="lnk35" id="link_AvaliadorExt_UC10"><path d="M261.61,1158.85 C274.51,1117.61 300.15,1052.56 342.64,1011.35 C396.35,959.28 471.3562,933.5913 535.1462,919.7613" fill="none" id="AvaliadorExt-to-UC10" style="stroke:#181818;stroke-width:1;"/><polygon fill="#181818" points="541.01,918.49,531.3668,916.4878,536.1235,919.5494,533.0619,924.3061,541.01,918.49" style="stroke:#181818;stroke-width:1;"/></g><!--link AvaliadorExt to UC11--><g class="link" data-entity-1="AvaliadorExt" data-entity-2="UC11" data-source-line="45" data-uid="lnk36" id="link_AvaliadorExt_UC11"><path d="M300.77,1158.89 C314.14,1148.95 328.76,1138.49 342.64,1129.35 C399.7,1091.8 428.19,1101.49 475.64,1052.35 C480.89,1046.92 477.77,1042.11 483.64,1037.35 C499.85,1024.23 514.0197,1016.8026 534.0797,1010.2126" fill="none" id="AvaliadorExt-to-UC11" style="stroke:#181818;stroke-width:1;"/><polygon fill="#181818" points="539.78,1008.34,529.9812,1007.3487,535.0298,1009.9005,532.478,1014.9491,539.78,1008.34" style="stroke:#181818;stroke-width:1;"/></g><!--link AvaliadorExt to UC12--><g class="link" data-entity-1="AvaliadorExt" data-entity-2="UC12" data-source-line="46" data-uid="lnk37" id="link_AvaliadorExt_UC12"><path d="M313.04,1184.12 C369.64,1171.27 448.58,1151.28 475.64,1134.35 C480.18,1131.52 479.11,1128.2 483.64,1125.35 C502.48,1113.56 518.7994,1106.5618 540.2994,1100.1618" fill="none" id="AvaliadorExt-to-UC12" style="stroke:#181818;stroke-width:1;"/><polygon fill="#181818" points="546.05,1098.45,536.2829,1097.184,541.2578,1099.8765,538.5653,1104.8515,546.05,1098.45" style="stroke:#181818;stroke-width:1;"/></g><!--link AvaliadorExt to UC13--><g class="link" data-entity-1="AvaliadorExt" data-entity-2="UC13" data-source-line="47" data-uid="lnk38" id="link_AvaliadorExt_UC13"><path d="M312.75,1205.28 C381.74,1214.16 487.5492,1227.7735 560.8392,1237.2135" fill="none" id="AvaliadorExt-to-UC13" style="stroke:#181818;stroke-width:1;"/><polygon fill="#181818" points="566.79,1237.98,558.3747,1232.863,561.831,1237.3413,557.3527,1240.7975,566.79,1237.98" style="stroke:#181818;stroke-width:1;"/></g><!--link AvaliadorExt to UC14--><g class="link" data-entity-1="AvaliadorExt" data-entity-2="UC14" data-source-line="48" data-uid="lnk39" id="link_AvaliadorExt_UC14"><path d="M312.75,1192.76 C371.47,1188.38 455.1966,1182.1266 525.7966,1176.8566" fill="none" id="AvaliadorExt-to-UC14" style="stroke:#181818;stroke-width:1;"/><polygon fill="#181818" points="531.78,1176.41,522.5072,1173.091,526.7939,1176.7822,523.1027,1181.0689,531.78,1176.41" style="stroke:#181818;stroke-width:1;"/></g><!--reverse link AvaliadorInt to AvaliadorExt--><g class="link" data-entity-1="AvaliadorInt" data-entity-2="AvaliadorExt" data-source-line="51" data-uid="lnk40" id="link_AvaliadorInt_AvaliadorExt"><path d="M143.268,1144.3332 C162.618,1154.0132 168.02,1156.72 187.51,1166.48" fill="none" id="AvaliadorInt-backto-AvaliadorExt" style="stroke:#181818;stroke-width:1;"/><polygon fill="none" points="127.17,1136.28,140.5836,1149.6992,145.9524,1138.9672,127.17,1136.28" style="stroke:#181818;stroke-width:1;"/></g><!--link UC11 to UC14--><g class="link" data-entity-1="UC11" data-entity-2="UC14" data-source-line="54" data-uid="lnk41" id="link_UC11_UC14"><path d="M543.2,975.36 C492.37,972.52 433.59,979.83 398.22,1019.35 C342.14,1082.03 462.0488,1125.7468 552.5688,1149.0068" fill="none" id="UC11-to-UC14" style="stroke:#181818;stroke-width:1;stroke-dasharray:7,7;"/><polygon fill="#181818" points="558.38,1150.5,550.6587,1144.386,553.5373,1149.2556,548.6677,1152.1343,558.38,1150.5" style="stroke:#181818;stroke-width:1;"/><text fill="#000000" font-family="sans-serif" font-size="13" lengthAdjust="spacing" textLength="61.1851" x="378.7235" y="1032.4169">&#171;extend&#187;</text><text fill="#000000" font-family="sans-serif" font-size="13" lengthAdjust="spacing" textLength="105.3521" x="356.64" y="1047.5497">se acesso falhar</text></g><!--link UC3 to UC15--><g class="link" data-entity-1="UC3" data-entity-2="UC15" data-source-line="55" data-uid="lnk42" id="link_UC3_UC15"><path d="M585.67,586.24 C526.81,598.47 435.14,606.12 385.22,552.35 C324.22,486.64 449.7432,436.4763 545.7332,408.9063" fill="none" id="UC3-to-UC15" style="stroke:#181818;stroke-width:1;stroke-dasharray:7,7;"/><polygon fill="#181818" points="551.5,407.25,541.7455,405.8899,546.6943,408.6303,543.954,413.5791,551.5,407.25" style="stroke:#181818;stroke-width:1;"/><text fill="#000000" font-family="sans-serif" font-size="13" lengthAdjust="spacing" textLength="61.1851" x="378.8727" y="533.4169">&#171;extend&#187;</text><text fill="#000000" font-family="sans-serif" font-size="13" lengthAdjust="spacing" textLength="131.6504" x="343.64" y="548.5497">valida&#231;&#227;o detalhada</text></g><!--link UC3 to UC16--><g class="link" data-entity-1="UC3" data-entity-2="UC16" data-source-line="56" data-uid="lnk43" id="link_UC3_UC16"><path d="M640.63,551.79 C640.63,532.85 640.63,510.33 640.63,491.78" fill="none" id="UC3-to-UC16" style="stroke:#181818;stroke-width:1;stroke-dasharray:7,7;"/><polygon fill="#181818" points="640.63,485.78,636.63,494.78,640.63,490.78,644.63,494.78,640.63,485.78" style="stroke:#181818;stroke-width:1;"/><text fill="#000000" font-family="sans-serif" font-size="13" lengthAdjust="spacing" textLength="61.1851" x="591.1185" y="515.9269">&#171;extend&#187;</text><text fill="#000000" font-family="sans-serif" font-size="13" lengthAdjust="spacing" textLength="142.1621" x="550.63" y="531.0597">documentos inv&#225;lidos</text></g><!--reverse link UC1 to UC2--><g class="link" data-entity-1="UC1" data-entity-2="UC2" data-source-line="59" data-uid="lnk44" id="link_UC1_UC2"><path d="M718.5198,631.1293 C739.0098,625.4193 755.05,619.14 773.61,608.35 C876.32,548.67 968.6,438.88 1008.83,386.98" fill="none" id="UC1-backto-UC2" style="stroke:#181818;stroke-width:1;stroke-dasharray:7,7;"/><polygon fill="#181818" points="712.74,632.74,722.4834,634.1772,717.5565,631.3978,720.3359,626.4708,712.74,632.74" style="stroke:#181818;stroke-width:1;"/><text fill="#000000" font-family="sans-serif" font-size="13" lengthAdjust="spacing" textLength="63.0068" x="804.61" y="534.8669">&#171;include&#187;</text></g><!--reverse link UC8 to UC9--><g class="link" data-entity-1="UC8" data-entity-2="UC9" data-source-line="60" data-uid="lnk45" id="link_UC8_UC9"><path d="M712.3437,276.1025 C733.7537,269.5025 751.9,263.7 773.61,256.35 C847.76,231.27 932.92,199.47 984.09,180.03" fill="none" id="UC8-backto-UC9" style="stroke:#181818;stroke-width:1;stroke-dasharray:7,7;"/><polygon fill="#181818" points="706.61,277.87,716.389,279.0412,711.3881,276.3971,714.0323,271.3962,706.61,277.87" style="stroke:#181818;stroke-width:1;"/><text fill="#000000" font-family="sans-serif" font-size="13" lengthAdjust="spacing" textLength="63.0068" x="804.61" y="220.0369">&#171;include&#187;</text></g><!--link AvaliadorExt to GMN46--><g class="link" data-entity-1="AvaliadorExt" data-entity-2="GMN46" data-source-line="63" data-uid="lnk48" id="link_AvaliadorExt_GMN46"><path d="M313.05,1222.1 C322.92,1225.93 333.04,1229.8 342.64,1233.35 C409.81,1258.23 486.17,1284.68 544.64,1304.54" fill="none" id="AvaliadorExt-GMN46" style="stroke:#181818;stroke-width:1;stroke-dasharray:7,7;"/></g><!--SRC=[RLJDJjj04BxlKuno0Gu1d3y8YYm1HHMN2e7QKoyRxmIssko6NJj2_NaOr4EVe4-G5-kCrqvirv8FdfblPxxvDRZA8NVWzVDB3afxp7Bjh10oovs7mUTGxDwzTWEG0KYGz5_RhhVIQAdezzxcw6q4xRMa_1zvzzQ39AKG75dQPuCmUD8XnxK4XV241dT_ThyTtD-UFM1uBNIG0_WX08vldGs5oQK7HLu2M0St7qvAehS90swaVcEhouersfmW3CkaLLf94YliYB5VY8jgWIlhcAqF7ZVIarbwOh1bBswzeUmuS0MSC93vPbH0WXhAein1rdbY3PqozCvkTPiTXu0Gaw-GCqP-ShbUwOp37rm1lGOShgKs5VQ2iO-OuH8zUAJAKqMKWwNq1uUNTULSp3Twf1B_tRER4wJfobRXOnysrCLMsEISmTSPXj1EXwAtaqcIgfPeinTo78aTIbG6gB5bLvwAvHffOle0uprDeiHJiF5kQMg7J6SFdJGxh6bOdptz4eo_RiEJQVJw3JLxtOzBRPw9Nq8SmIEQgcmKMDjCRwGEebeH60xJSWhRygWZZplof2DFE_Ai8rzqvCkEF1UYkOurg_DURTAh7VLgnmt7jBqzZXlQf5SxwjMEUxKJBlX7jEZ9zZsEGPlNukTms3aeH-MniQ5iqN4z7E5iPOetcavf-1B9dBVvH31DE8t1u0eM2-ItAas_sb1F4woaUP6UiECAEkr0j-M8nJrHc3DSoGP-ri4tbaNRxUwTNhl0pEzjPegIEJE3nUafJq_vMhD9OPgIvRAop3iMGIkBrKrtgtPT01RBzA5U5QqeVBdTobqjpfOfsQzZjdA_lgHRUNmj28fC5sCbI5rUhEPHmdZVWw0C-N3WFm00]--></g></svg>